<svg width="34" height="32" viewBox="0 0 34 32" fill="none" xmlns="http://www.w3.org/2000/svg">
<path d="M16.1915 31.576C13.2155 31.576 10.5595 30.888 8.22346 29.512C5.91946 28.104 4.12746 26.216 2.84746 23.848C1.59946 21.448 0.975464 18.84 0.975464 16.024C0.975464 12.728 1.80746 9.91199 3.47146 7.57598C5.13546 5.20798 7.26346 3.43198 9.85546 2.24798C12.4795 1.06398 15.1515 0.471985 17.8715 0.471985C20.9115 0.471985 23.5835 1.19199 25.8875 2.63199C28.1915 4.03998 29.9515 5.91198 31.1675 8.24798C32.4155 10.584 33.0395 13.064 33.0395 15.688C33.0395 18.6 32.2715 21.272 30.7355 23.704C29.1995 26.136 27.1355 28.056 24.5435 29.464C21.9835 30.872 19.1995 31.576 16.1915 31.576ZM17.8235 30.424C19.7435 30.424 21.4555 29.912 22.9595 28.888C24.4955 27.832 25.6955 26.296 26.5595 24.28C27.4555 22.264 27.9035 19.864 27.9035 17.08C27.9035 14.104 27.4075 11.464 26.4155 9.15999C25.4555 6.82399 24.0635 4.99999 22.2395 3.68799C20.4475 2.37599 18.3355 1.71999 15.9035 1.71999C12.7675 1.71999 10.3515 2.83998 8.65546 5.07998C6.95946 7.28798 6.11146 10.36 6.11146 14.296C6.11146 17.368 6.60746 20.136 7.59946 22.6C8.59146 25.032 9.98347 26.952 11.7755 28.36C13.5675 29.736 15.5835 30.424 17.8235 30.424Z" fill="#4F4F4F"/>
</svg>
