<svg width="82" height="77" viewBox="0 0 82 77" fill="none" xmlns="http://www.w3.org/2000/svg">
<path d="M10.8164 2.75999L13.5764 3V61.92C13.5764 66.08 14.2964 69.08 15.7365 70.92C17.2564 72.68 19.6564 73.56 22.9364 73.56C23.1764 73.56 23.2964 73.8 23.2964 74.28C23.2964 74.76 23.1764 75 22.9364 75C20.9364 75 19.4164 74.96 18.3764 74.88L12.3764 74.76L6.25644 74.88C5.13644 74.96 3.49646 75 1.33646 75C1.17646 75 1.09644 74.76 1.09644 74.28C1.09644 73.8 1.17646 73.56 1.33646 73.56C4.77646 73.56 7.21643 72.68 8.65643 70.92C10.0964 69.08 10.8164 66.08 10.8164 61.92V2.75999ZM71.2964 76.44C71.2964 76.6 71.0964 76.72 70.6964 76.8C70.2964 76.88 70.0164 76.84 69.8564 76.68L14.6564 9.83999C12.0964 6.72 9.73645 4.56 7.57645 3.36C5.49645 2.08 3.41646 1.44 1.33646 1.44C1.09646 1.44 0.97644 1.2 0.97644 0.719997C0.97644 0.239999 1.09646 0 1.33646 0L5.77643 0.119999C6.73643 0.199998 8.05645 0.239997 9.73645 0.239997C11.4964 0.239997 12.9365 0.199998 14.0565 0.119999C15.1765 0.04 16.0564 0 16.6964 0C17.2564 0 17.6964 0.159998 18.0164 0.479994C18.4164 0.719995 18.8565 1.28 19.3365 2.15999C20.2965 3.59999 21.2965 4.96 22.3365 6.24L70.3365 65.16L71.2964 76.44ZM71.2964 76.44L68.5364 72.72V13.2C68.5364 9.04 67.8164 6.04 66.3764 4.2C65.0164 2.36 62.6964 1.44 59.4164 1.44C59.2564 1.44 59.1765 1.2 59.1765 0.719997C59.1765 0.239999 59.2564 0 59.4164 0L64.0964 0.119999C66.4964 0.279997 68.4564 0.359995 69.9764 0.359995C71.4164 0.359995 73.4164 0.279997 75.9764 0.119999L80.8965 0C81.1365 0 81.2564 0.239999 81.2564 0.719997C81.2564 1.2 81.1365 1.44 80.8965 1.44C77.5365 1.44 75.0965 2.36 73.5764 4.2C72.0564 6.04 71.2964 9.04 71.2964 13.2V76.44Z" fill="#4F4F4F"/>
</svg>
