<svg width="33" height="31" viewBox="0 0 33 31" fill="none" xmlns="http://www.w3.org/2000/svg">
<path d="M26.5815 5.856C26.5815 4.192 26.1975 2.896 25.4295 1.968C24.6935 1.04 23.6215 0.575998 22.2135 0.575998C22.1495 0.575998 22.1175 0.479999 22.1175 0.287999C22.1175 0.0959997 22.1495 0 22.2135 0L24.4214 0.0479994C25.6374 0.111999 26.5975 0.143998 27.3015 0.143998C27.8775 0.143998 28.7415 0.111999 29.8935 0.0479994L32.0055 0C32.0695 0 32.1015 0.0959997 32.1015 0.287999C32.1015 0.479999 32.0695 0.575998 32.0055 0.575998C30.7575 0.575998 29.7815 1.04 29.0775 1.968C28.4055 2.896 28.0695 4.192 28.0695 5.856V19.296C28.0695 21.6 27.5735 23.616 26.5815 25.344C25.6215 27.04 24.2455 28.352 22.4535 29.28C20.6935 30.208 18.6455 30.672 16.3095 30.672C13.9735 30.672 11.8935 30.224 10.0695 29.328C8.24546 28.4 6.82145 27.088 5.79745 25.392C4.80545 23.664 4.30946 21.648 4.30946 19.344V3.888C4.30946 2.928 4.21345 2.224 4.02145 1.776C3.82945 1.328 3.47745 1.024 2.96545 0.863997C2.48545 0.671998 1.71745 0.575998 0.661453 0.575998C0.565453 0.575998 0.517456 0.479999 0.517456 0.287999C0.517456 0.0959997 0.565453 0 0.661453 0L3.15746 0.0479994C4.56546 0.111999 5.70145 0.143998 6.56545 0.143998C7.52545 0.143998 8.70945 0.111999 10.1175 0.0479994L12.5175 0C12.6135 0 12.6615 0.0959997 12.6615 0.287999C12.6615 0.479999 12.6135 0.575998 12.5175 0.575998C11.4615 0.575998 10.6775 0.671998 10.1655 0.863997C9.65346 1.056 9.30145 1.392 9.10945 1.872C8.94945 2.32 8.86945 3.024 8.86945 3.984V17.664C8.86945 21.472 9.65346 24.32 11.2215 26.208C12.8215 28.064 15.0455 28.992 17.8935 28.992C20.6135 28.992 22.7415 28.16 24.2775 26.496C25.8135 24.8 26.5815 22.416 26.5815 19.344V5.856Z" fill="#4F4F4F"/>
</svg>
