<svg width="23" height="30" viewBox="0 0 23 30" fill="none" xmlns="http://www.w3.org/2000/svg">
<path d="M0.305084 30C0.209084 30 0.161072 29.904 0.161072 29.712C0.161072 29.52 0.209084 29.424 0.305084 29.424C1.39308 29.424 2.17707 29.344 2.65707 29.184C3.16907 29.024 3.50508 28.72 3.66508 28.272C3.85708 27.792 3.95308 27.072 3.95308 26.112V3.888C3.95308 2.928 3.85708 2.224 3.66508 1.776C3.50508 1.328 3.16907 1.024 2.65707 0.863997C2.14507 0.671998 1.36108 0.575998 0.305084 0.575998C0.209084 0.575998 0.161072 0.479999 0.161072 0.287999C0.161072 0.0959997 0.209084 0 0.305084 0H20.2731C20.5931 0 20.7531 0.143999 20.7531 0.431997L20.8491 6.672C20.8491 6.736 20.7531 6.784 20.5611 6.816C20.4011 6.816 20.3051 6.768 20.2731 6.672C19.5051 3.056 17.2971 1.248 13.6491 1.248H11.6811C10.4971 1.248 9.66507 1.456 9.18507 1.872C8.73707 2.288 8.51308 2.992 8.51308 3.984V25.92C8.51308 26.976 8.70508 27.712 9.08908 28.128C9.50508 28.544 10.2251 28.752 11.2491 28.752H13.6011C17.8891 28.752 20.6091 26.688 21.7611 22.56C21.7611 22.496 21.8411 22.464 22.0011 22.464C22.2251 22.464 22.3371 22.512 22.3371 22.608C22.0171 25.04 21.8571 27.264 21.8571 29.28C21.8571 29.536 21.8091 29.728 21.7131 29.856C21.6171 29.952 21.4251 30 21.1371 30H0.305084ZM18.4491 19.152C18.4491 16.4 16.6571 15.024 13.0731 15.024H6.35307V13.776H13.1211C16.6411 13.776 18.4011 12.592 18.4011 10.224C18.4011 10.128 18.4811 10.08 18.6411 10.08C18.8331 10.08 18.9291 10.128 18.9291 10.224L18.8811 14.4L18.9291 16.656C18.9931 17.68 19.0251 18.512 19.0251 19.152C19.0251 19.216 18.9291 19.248 18.7371 19.248C18.5451 19.248 18.4491 19.216 18.4491 19.152Z" fill="#4F4F4F"/>
</svg>
