<svg width="22" height="30" viewBox="0 0 22 30" fill="none" xmlns="http://www.w3.org/2000/svg">
<path d="M0.715057 30C0.619057 30 0.571045 29.904 0.571045 29.712C0.571045 29.52 0.619057 29.424 0.715057 29.424C1.86706 29.424 2.69906 29.344 3.21106 29.184C3.75506 29.024 4.12306 28.72 4.31506 28.272C4.50706 27.792 4.60306 27.072 4.60306 26.112V3.888C4.60306 2.928 4.50706 2.224 4.31506 1.776C4.15506 1.328 3.81907 1.024 3.30707 0.863997C2.79507 0.671998 2.01105 0.575998 0.955048 0.575998C0.859048 0.575998 0.811066 0.479999 0.811066 0.287999C0.811066 0.0959997 0.859048 0 0.955048 0H20.9231C21.2431 0 21.403 0.143999 21.403 0.431997L21.4991 6.672C21.4991 6.736 21.4031 6.784 21.2111 6.816C21.0511 6.816 20.9551 6.768 20.9231 6.672C20.1551 3.056 17.9471 1.248 14.2991 1.248H12.3311C11.1791 1.248 10.3631 1.456 9.88306 1.872C9.40306 2.288 9.16306 2.976 9.16306 3.936V25.92C9.16306 26.944 9.29106 27.696 9.54706 28.176C9.80306 28.624 10.2991 28.944 11.0351 29.136C11.8031 29.328 12.9711 29.424 14.5391 29.424C14.6031 29.424 14.6351 29.52 14.6351 29.712C14.6351 29.904 14.6031 30 14.5391 30C13.2271 30 12.2031 29.984 11.4671 29.952L6.76306 29.904L3.25906 29.952C2.65106 29.984 1.80306 30 0.715057 30ZM18.5231 19.68C18.5231 16.96 16.6831 15.6 13.0031 15.6H7.00305V14.352H13.0991C16.6831 14.352 18.4751 13.152 18.4751 10.752C18.4751 10.688 18.5711 10.656 18.7631 10.656C18.9551 10.656 19.0511 10.688 19.0511 10.752L19.0031 14.976C19.0031 15.968 19.0191 16.704 19.0511 17.184L19.0991 19.68C19.0991 19.776 19.0031 19.824 18.8111 19.824C18.6191 19.824 18.5231 19.776 18.5231 19.68Z" fill="#4F4F4F"/>
</svg>
