<svg width="35" height="31" viewBox="0 0 35 31" fill="none" xmlns="http://www.w3.org/2000/svg">
<path d="M5.63281 1.104L6.9288 1.2V24.192C6.9288 25.888 7.24882 27.184 7.88882 28.08C8.56082 28.976 9.5368 29.424 10.8168 29.424C10.9128 29.424 10.9608 29.52 10.9608 29.712C10.9608 29.904 10.9128 30 10.8168 30C9.9848 30 9.34482 29.984 8.89682 29.952L6.35281 29.904L3.52081 29.952C3.00881 29.984 2.27281 30 1.31281 30C1.21681 30 1.16882 29.904 1.16882 29.712C1.16882 29.52 1.21681 29.424 1.31281 29.424C2.68881 29.424 3.7448 28.976 4.4808 28.08C5.2488 27.184 5.63281 25.888 5.63281 24.192V1.104ZM30.0168 30.672C30.0168 30.768 29.9368 30.832 29.7768 30.864C29.6168 30.896 29.5048 30.88 29.4408 30.816L6.35281 3.936C5.26481 2.688 4.30481 1.824 3.47281 1.344C2.64081 0.831999 1.82481 0.575998 1.02481 0.575998C0.928811 0.575998 0.880798 0.479999 0.880798 0.287999C0.880798 0.0959997 0.928811 0 1.02481 0L2.94482 0.0479994C3.32882 0.079999 3.90482 0.0959988 4.67282 0.0959988L7.74481 0.0479994C8.12881 0.0159998 8.57681 0 9.08881 0C9.34481 0 9.53683 0.0639992 9.66483 0.191998C9.79283 0.319998 9.98481 0.575998 10.2408 0.959999C10.7848 1.696 11.1848 2.208 11.4408 2.496L29.6328 23.904L30.0168 30.672ZM30.0168 30.672L28.7208 29.232V5.856C28.7208 4.16 28.3848 2.864 27.7128 1.968C27.0728 1.04 26.1128 0.575998 24.8328 0.575998C24.7688 0.575998 24.7368 0.479999 24.7368 0.287999C24.7368 0.0959997 24.7688 0 24.8328 0L26.8008 0.0479994C27.8248 0.111999 28.6728 0.143998 29.3448 0.143998C29.9528 0.143998 30.8328 0.111999 31.9848 0.0479994L34.0008 0C34.0968 0 34.1448 0.0959997 34.1448 0.287999C34.1448 0.479999 34.0968 0.575998 34.0008 0.575998C32.7208 0.575998 31.7288 1.04 31.0248 1.968C30.3528 2.864 30.0168 4.16 30.0168 5.856V30.672Z" fill="#4F4F4F"/>
</svg>
