<svg width="33" height="31" viewBox="0 0 33 31" fill="none" xmlns="http://www.w3.org/2000/svg">
<path d="M24.4693 31C23.7013 31 22.2773 29.656 20.1973 26.968C18.1493 24.28 15.6534 20.536 12.7094 15.736L16.5493 14.584C19.2373 18.584 21.4773 21.72 23.2693 23.992C25.0933 26.232 26.7093 27.864 28.1173 28.888C29.5253 29.912 30.8853 30.424 32.1973 30.424C32.2613 30.424 32.2933 30.52 32.2933 30.712C32.2933 30.904 32.2613 31 32.1973 31H24.4693ZM13.5733 0.856018C16.3253 0.856018 18.4693 1.41602 20.0053 2.53602C21.5413 3.62402 22.3093 5.12802 22.3093 7.04802C22.3093 8.84002 21.7973 10.456 20.7733 11.896C19.7493 13.336 18.3893 14.472 16.6933 15.304C15.0293 16.104 13.2693 16.504 11.4133 16.504C10.7413 16.504 9.92533 16.472 8.96533 16.408V27.112C8.96533 28.104 9.04532 28.824 9.20532 29.272C9.36532 29.72 9.68534 30.024 10.1653 30.184C10.6773 30.344 11.4933 30.424 12.6133 30.424C12.6773 30.424 12.7094 30.52 12.7094 30.712C12.7094 30.904 12.6773 31 12.6133 31C11.5573 31 10.7253 30.984 10.1173 30.952L6.61334 30.904L3.15735 30.952C2.54935 30.984 1.71732 31 0.661316 31C0.565316 31 0.517334 30.904 0.517334 30.712C0.517334 30.52 0.565316 30.424 0.661316 30.424C1.74932 30.424 2.53331 30.344 3.01331 30.184C3.52531 30.024 3.87734 29.72 4.06934 29.272C4.26134 28.792 4.3573 28.072 4.3573 27.112V4.88802C4.3573 3.92802 4.26134 3.22402 4.06934 2.77602C3.90934 2.32802 3.57334 2.02402 3.06134 1.86402C2.54934 1.67202 1.76535 1.57602 0.709351 1.57602C0.645351 1.57602 0.613342 1.48002 0.613342 1.28802C0.613342 1.09602 0.645351 1.00002 0.709351 1.00002L3.20532 1.04802C4.61332 1.11202 5.74934 1.14402 6.61334 1.14402C7.66934 1.14402 8.82134 1.09602 10.0693 1.00002C10.4853 0.968018 10.9813 0.936017 11.5573 0.904017C12.1653 0.872018 12.8373 0.856018 13.5733 0.856018ZM17.5573 8.72802C17.5573 6.13602 17.1093 4.32802 16.2133 3.30402C15.3493 2.28002 14.0853 1.76802 12.4213 1.76802C11.1413 1.76802 10.2453 2.00802 9.73334 2.48802C9.22134 2.93602 8.96533 3.76802 8.96533 4.98402V15.112C9.73333 15.24 10.6613 15.304 11.7493 15.304C13.8293 15.304 15.3173 14.792 16.2133 13.768C17.1093 12.712 17.5573 11.032 17.5573 8.72802Z" fill="#4F4F4F"/>
</svg>
