<svg width="19" height="32" viewBox="0 0 19 32" fill="none" xmlns="http://www.w3.org/2000/svg">
<path d="M5.03294 6.08798C5.03294 7.27199 5.32096 8.32799 5.89696 9.25599C6.50496 10.152 7.24095 10.936 8.10495 11.608C8.96895 12.248 10.153 13.048 11.657 14.008C13.289 15.032 14.5689 15.912 15.4969 16.648C16.4569 17.384 17.2729 18.296 17.9449 19.384C18.6169 20.44 18.953 21.688 18.953 23.128C18.953 24.76 18.521 26.216 17.657 27.496C16.825 28.776 15.6249 29.784 14.0569 30.52C12.5209 31.224 10.7609 31.576 8.77695 31.576C7.43295 31.576 6.04095 31.4 4.60095 31.048C3.19295 30.696 2.12095 30.264 1.38495 29.752C1.09695 29.56 0.936953 29.256 0.904953 28.84L0.616943 21.592V21.544C0.616943 21.416 0.696949 21.352 0.856949 21.352C1.01695 21.32 1.11294 21.368 1.14494 21.496C2.20094 24.12 3.40095 26.28 4.74495 27.976C6.12095 29.672 7.84896 30.52 9.92896 30.52C11.337 30.52 12.505 30.152 13.433 29.416C14.361 28.648 14.825 27.384 14.825 25.624C14.825 24.216 14.5049 22.984 13.8649 21.928C13.2569 20.872 12.4889 19.992 11.5609 19.288C10.6649 18.584 9.43294 17.72 7.86494 16.696C6.32894 15.704 5.12895 14.872 4.26495 14.2C3.40095 13.496 2.66495 12.648 2.05695 11.656C1.44895 10.632 1.14494 9.44798 1.14494 8.10398C1.14494 6.43998 1.60896 5.03199 2.53696 3.87999C3.46496 2.72799 4.66495 1.87999 6.13695 1.33599C7.64095 0.759985 9.20896 0.471985 10.841 0.471985C11.897 0.471985 12.9689 0.583985 14.0569 0.807986C15.1449 0.999986 16.073 1.25599 16.841 1.57598C17.321 1.76798 17.5609 2.07198 17.5609 2.48798L17.657 8.96799C17.657 9.09599 17.5769 9.17599 17.4169 9.20798C17.2889 9.23999 17.193 9.20799 17.129 9.11199C16.489 7.15999 15.625 5.39998 14.537 3.83198C13.481 2.23198 11.881 1.43198 9.73695 1.43198C8.29695 1.43198 7.14494 1.86398 6.28094 2.72798C5.44894 3.55999 5.03294 4.67999 5.03294 6.08798Z" fill="#4F4F4F"/>
</svg>
