<svg width="35" height="31" viewBox="0 0 35 31" fill="none" xmlns="http://www.w3.org/2000/svg">
<path d="M9.80505 18.04H23.2451L23.5811 19.24H9.18106L9.80505 18.04ZM34.717 30.424C34.845 30.424 34.9091 30.52 34.9091 30.712C34.9091 30.904 34.845 31 34.717 31C34.109 31 33.1331 30.968 31.7891 30.904C30.4451 30.84 29.4691 30.808 28.8611 30.808C28.0611 30.808 27.1171 30.84 26.0291 30.904C24.9411 30.968 24.093 31 23.485 31C23.357 31 23.2931 30.904 23.2931 30.712C23.2931 30.52 23.357 30.424 23.485 30.424C24.445 30.424 25.133 30.328 25.549 30.136C25.965 29.912 26.1731 29.56 26.1731 29.08C26.1731 28.6 25.9011 27.784 25.3571 26.632L15.325 6.23199L17.2931 3.01599L7.78906 24.424C7.37306 25.384 7.16504 26.248 7.16504 27.016C7.16504 28.136 7.56505 28.984 8.36505 29.56C9.16505 30.136 10.285 30.424 11.725 30.424C11.885 30.424 11.9651 30.52 11.9651 30.712C11.9651 30.904 11.885 31 11.725 31C11.149 31 10.3171 30.968 9.22906 30.904C8.01306 30.84 6.95707 30.808 6.06107 30.808C5.19707 30.808 4.18905 30.84 3.03705 30.904C2.01305 30.968 1.16504 31 0.493042 31C0.333042 31 0.253052 30.904 0.253052 30.712C0.253052 30.52 0.333042 30.424 0.493042 30.424C1.38904 30.424 2.14105 30.248 2.74905 29.896C3.35705 29.544 3.94905 28.92 4.52505 28.024C5.10105 27.096 5.78905 25.736 6.58905 23.944L16.9091 0.711991C16.9731 0.615993 17.1171 0.567993 17.3411 0.567993C17.5651 0.567993 17.693 0.615993 17.725 0.711991L29.485 24.424C30.573 26.728 31.485 28.312 32.221 29.176C32.989 30.008 33.821 30.424 34.717 30.424Z" fill="#4F4F4F"/>
</svg>
