<svg width="49" height="50" viewBox="0 0 49 50" fill="none" xmlns="http://www.w3.org/2000/svg">
<path d="M23.4427 49.56C18.8027 49.56 14.6827 48.44 11.0827 46.2C7.56266 43.88 4.84265 40.8 2.92265 36.96C1.00265 33.04 0.0426636 28.8 0.0426636 24.24C0.0426636 19.04 1.28265 14.64 3.76265 11.04C6.32265 7.36 9.56265 4.63999 13.4827 2.87999C17.4827 1.03999 21.5227 0.119995 25.6027 0.119995C30.3227 0.119995 34.4426 1.27999 37.9626 3.59999C41.4826 5.91999 44.1627 9 46.0027 12.84C47.9227 16.6 48.8827 20.6 48.8827 24.84C48.8827 29.8 47.7226 34.16 45.4026 37.92C43.0826 41.6 39.9627 44.48 36.0427 46.56C32.2027 48.56 28.0027 49.56 23.4427 49.56ZM26.9227 47.28C31.3227 47.28 34.7227 45.72 37.1227 42.6C39.5227 39.48 40.7227 34.68 40.7227 28.2C40.7227 23.24 39.8827 18.8 38.2027 14.88C36.6027 10.96 34.3627 7.92 31.4827 5.75999C28.6027 3.51999 25.3227 2.39999 21.6427 2.39999C17.3227 2.39999 13.9627 3.95999 11.5627 7.07999C9.24265 10.2 8.08266 14.68 8.08266 20.52C8.08266 25.4 8.88265 29.88 10.4827 33.96C12.0827 38.04 14.3227 41.28 17.2027 43.68C20.0827 46.08 23.3227 47.28 26.9227 47.28Z" fill="#4F4F4F"/>
</svg>
