<svg width="40" height="30" viewBox="0 0 40 30" fill="none" xmlns="http://www.w3.org/2000/svg">
<path d="M5.65805 1.104L6.95404 1.2L6.42603 24.192C6.39403 25.888 6.71405 27.184 7.38605 28.08C8.09005 28.976 9.13004 29.424 10.506 29.424C10.602 29.424 10.65 29.52 10.65 29.712C10.65 29.904 10.602 30 10.506 30C9.64204 30 8.97005 29.984 8.49005 29.952L5.85004 29.904L3.01804 29.952C2.53804 29.984 1.86604 30 1.00204 30C0.906045 30 0.858032 29.904 0.858032 29.712C0.858032 29.52 0.906045 29.424 1.00204 29.424C2.31404 29.424 3.32203 28.976 4.02603 28.08C4.76203 27.184 5.14604 25.888 5.17804 24.192L5.65805 1.104ZM39.162 29.424C39.226 29.424 39.258 29.52 39.258 29.712C39.258 29.904 39.226 30 39.162 30C38.106 30 37.258 29.984 36.618 29.952L33.162 29.904L29.802 29.952C29.226 29.984 28.41 30 27.354 30C27.29 30 27.258 29.904 27.258 29.712C27.258 29.52 27.29 29.424 27.354 29.424C28.41 29.424 29.194 29.344 29.706 29.184C30.218 28.992 30.554 28.672 30.714 28.224C30.874 27.776 30.9221 27.072 30.8581 26.112L29.8501 4.176L31.9621 0.863997L19.674 29.664C19.61 29.792 19.4821 29.856 19.2901 29.856C19.1301 29.856 18.9861 29.792 18.8581 29.664L5.85004 3.984C5.27404 2.8 4.61805 1.936 3.88205 1.392C3.14605 0.847999 2.29804 0.575998 1.33804 0.575998C1.24204 0.575998 1.19403 0.479999 1.19403 0.287999C1.19403 0.0959997 1.24204 0 1.33804 0L3.40204 0.0479994C3.81804 0.079999 4.36203 0.0959988 5.03403 0.0959988L7.24203 0.0479994C7.53003 0.0159998 7.86603 0 8.25003 0C8.66603 0 9.00203 0.16 9.25803 0.48C9.51403 0.768 9.91404 1.44 10.458 2.496L21.258 23.664L19.1941 27.312L30.57 1.2C30.762 0.751999 30.9701 0.447999 31.1941 0.287999C31.4181 0.0959997 31.69 0 32.01 0C32.234 0 32.5221 0.0159998 32.8741 0.0479994C33.2261 0.079999 33.658 0.0959988 34.17 0.0959988L36.7621 0.0479994C37.1781 0.0159998 37.786 0 38.586 0C38.682 0 38.73 0.0959997 38.73 0.287999C38.73 0.479999 38.682 0.575998 38.586 0.575998C37.082 0.575998 35.978 0.863998 35.274 1.44C34.602 1.984 34.298 2.896 34.362 4.176L35.4181 26.112C35.4821 27.104 35.61 27.824 35.802 28.272C35.994 28.72 36.33 29.024 36.81 29.184C37.29 29.344 38.074 29.424 39.162 29.424Z" fill="#4F4F4F"/>
</svg>
