<svg width="84" height="75" viewBox="0 0 84 75" fill="none" xmlns="http://www.w3.org/2000/svg">
<path d="M64.9161 9.95999C64.9161 7.56 64.6361 5.8 64.0761 4.68C63.5961 3.48 62.6361 2.64 61.1961 2.15999C59.7561 1.68 57.4761 1.44 54.3561 1.44C54.1161 1.44 53.9961 1.2 53.9961 0.719997C53.9961 0.239999 54.1161 0 54.3561 0L60.1161 0.119999C63.6361 0.279997 66.5561 0.359995 68.8761 0.359995C71.0361 0.359995 73.7961 0.279997 77.1561 0.119999L83.0361 0C83.2761 0 83.3961 0.239999 83.3961 0.719997C83.3961 1.2 83.2761 1.44 83.0361 1.44C79.9961 1.44 77.7561 1.68 76.3161 2.15999C74.8761 2.55999 73.8761 3.32 73.3161 4.44C72.8361 5.56 72.5961 7.32 72.5961 9.72V65.28C72.5961 67.68 72.8361 69.48 73.3161 70.68C73.8761 71.8 74.8761 72.56 76.3161 72.96C77.7561 73.36 79.9961 73.56 83.0361 73.56C83.2761 73.56 83.3961 73.8 83.3961 74.28C83.3961 74.76 83.2761 75 83.0361 75C80.5561 75 78.5961 74.96 77.1561 74.88L68.8761 74.76L60.1161 74.88C58.6761 74.96 56.7561 75 54.3561 75C54.1161 75 53.9961 74.76 53.9961 74.28C53.9961 73.8 54.1161 73.56 54.3561 73.56C57.4761 73.56 59.7561 73.36 61.1961 72.96C62.6361 72.56 63.5961 71.8 64.0761 70.68C64.6361 69.48 64.9161 67.68 64.9161 65.28V9.95999ZM14.6361 34.68H68.2761V37.2H14.6361V34.68ZM11.1561 9.72C11.1561 7.32 10.8761 5.56 10.3161 4.44C9.83608 3.32 8.87608 2.55999 7.43608 2.15999C5.99608 1.68 3.75608 1.44 0.71608 1.44C0.55608 1.44 0.476079 1.2 0.476079 0.719997C0.476079 0.239999 0.55608 0 0.71608 0L6.83608 0.119999C10.1961 0.279997 12.8761 0.359995 14.8761 0.359995C17.1961 0.359995 20.1161 0.279997 23.6361 0.119999L29.3961 0C29.5561 0 29.6361 0.239999 29.6361 0.719997C29.6361 1.2 29.5561 1.44 29.3961 1.44C26.3561 1.44 24.0761 1.68 22.5561 2.15999C21.1161 2.64 20.1161 3.48 19.5561 4.68C19.0761 5.8 18.8361 7.56 18.8361 9.95999V65.28C18.8361 67.68 19.0761 69.48 19.5561 70.68C20.1161 71.8 21.1161 72.56 22.5561 72.96C23.9961 73.36 26.2761 73.56 29.3961 73.56C29.5561 73.56 29.6361 73.8 29.6361 74.28C29.6361 74.76 29.5561 75 29.3961 75C26.9161 75 24.9561 74.96 23.5161 74.88L14.8761 74.76L6.59608 74.88C5.15608 74.96 3.15608 75 0.596079 75C0.436079 75 0.356079 74.76 0.356079 74.28C0.356079 73.8 0.436079 73.56 0.596079 73.56C3.63608 73.56 5.87608 73.36 7.31608 72.96C8.83608 72.56 9.83608 71.8 10.3161 70.68C10.8761 69.48 11.1561 67.68 11.1561 65.28V9.72Z" fill="#4F4F4F"/>
</svg>
