<svg width="35" height="30" viewBox="0 0 35 30" fill="none" xmlns="http://www.w3.org/2000/svg">
<path d="M25.805 3.984C25.805 3.024 25.709 2.32 25.517 1.872C25.325 1.392 24.941 1.056 24.365 0.863997C23.789 0.671998 22.909 0.575998 21.725 0.575998C21.629 0.575998 21.581 0.479999 21.581 0.287999C21.581 0.0959997 21.629 0 21.725 0L24.029 0.0479994C25.565 0.111999 26.925 0.143998 28.109 0.143998C28.973 0.143998 30.141 0.111999 31.613 0.0479994L34.253 0C34.349 0 34.397 0.0959997 34.397 0.287999C34.397 0.479999 34.349 0.575998 34.253 0.575998C33.101 0.575998 32.253 0.671998 31.709 0.863997C31.165 1.024 30.797 1.328 30.605 1.776C30.413 2.224 30.317 2.928 30.317 3.888V26.112C30.317 27.072 30.413 27.792 30.605 28.272C30.797 28.72 31.165 29.024 31.709 29.184C32.253 29.344 33.101 29.424 34.253 29.424C34.349 29.424 34.397 29.52 34.397 29.712C34.397 29.904 34.349 30 34.253 30C33.165 30 32.285 29.984 31.613 29.952L28.109 29.904L24.029 29.952C23.453 29.984 22.685 30 21.725 30C21.629 30 21.581 29.904 21.581 29.712C21.581 29.52 21.629 29.424 21.725 29.424C22.941 29.424 23.821 29.344 24.365 29.184C24.941 29.024 25.325 28.72 25.517 28.272C25.709 27.792 25.805 27.072 25.805 26.112V3.984ZM6.84496 13.776H27.869V15.024H6.84496V13.776ZM4.73296 3.888C4.73296 2.928 4.63696 2.224 4.44496 1.776C4.25296 1.328 3.88496 1.024 3.34096 0.863997C2.79696 0.671998 1.96496 0.575998 0.844958 0.575998C0.780958 0.575998 0.748958 0.479999 0.748958 0.287999C0.748958 0.0959997 0.780958 0 0.844958 0L3.38896 0.0479994C4.86096 0.111999 6.01296 0.143998 6.84496 0.143998C7.96496 0.143998 9.29296 0.111999 10.829 0.0479994L13.325 0C13.389 0 13.421 0.0959997 13.421 0.287999C13.421 0.479999 13.389 0.575998 13.325 0.575998C12.173 0.575998 11.309 0.671998 10.733 0.863997C10.189 1.056 9.80496 1.392 9.58096 1.872C9.38896 2.32 9.29296 3.024 9.29296 3.984V26.112C9.29296 27.072 9.38896 27.792 9.58096 28.272C9.77296 28.72 10.141 29.024 10.685 29.184C11.261 29.344 12.141 29.424 13.325 29.424C13.389 29.424 13.421 29.52 13.421 29.712C13.421 29.904 13.389 30 13.325 30C12.237 30 11.389 29.984 10.781 29.952L6.84496 29.904L3.34096 29.952C2.73296 29.984 1.88496 30 0.796958 30C0.732958 30 0.700958 29.904 0.700958 29.712C0.700958 29.52 0.732958 29.424 0.796958 29.424C1.94896 29.424 2.79696 29.344 3.34096 29.184C3.88496 29.024 4.25296 28.72 4.44496 28.272C4.63696 27.792 4.73296 27.072 4.73296 26.112V3.888Z" fill="#4F4F4F"/>
</svg>
