<svg width="33" height="32" viewBox="0 0 33 32" fill="none" xmlns="http://www.w3.org/2000/svg">
<path d="M15.9571 31.576C12.9811 31.576 10.3251 30.888 7.98911 29.512C5.68511 28.104 3.8931 26.216 2.6131 23.848C1.3651 21.448 0.741089 18.84 0.741089 16.024C0.741089 12.728 1.57309 9.91199 3.23709 7.57598C4.90109 5.20798 7.02909 3.43198 9.62109 2.24798C12.2451 1.06398 14.9171 0.471985 17.6371 0.471985C20.6771 0.471985 23.3491 1.19199 25.6531 2.63199C27.9571 4.03998 29.7171 5.91198 30.9331 8.24798C32.1811 10.584 32.8051 13.064 32.8051 15.688C32.8051 18.6 32.0371 21.272 30.5011 23.704C28.9651 26.136 26.9011 28.056 24.3091 29.464C21.7491 30.872 18.9651 31.576 15.9571 31.576ZM17.5891 30.424C19.5091 30.424 21.2211 29.912 22.7251 28.888C24.2611 27.832 25.4611 26.296 26.3251 24.28C27.2211 22.264 27.6691 19.864 27.6691 17.08C27.6691 14.104 27.1731 11.464 26.1811 9.15999C25.2211 6.82399 23.8291 4.99999 22.0051 3.68799C20.2131 2.37599 18.1011 1.71999 15.6691 1.71999C12.5331 1.71999 10.1171 2.83998 8.42111 5.07998C6.72511 7.28798 5.87711 10.36 5.87711 14.296C5.87711 17.368 6.37311 20.136 7.36511 22.6C8.35711 25.032 9.74911 26.952 11.5411 28.36C13.3331 29.736 15.3491 30.424 17.5891 30.424Z" fill="#4F4F4F"/>
</svg>
