<svg width="33" height="32" viewBox="0 0 33 32" fill="none" xmlns="http://www.w3.org/2000/svg">
<path d="M15.6634 31.576C12.6874 31.576 10.0314 30.888 7.69537 29.512C5.39137 28.104 3.5994 26.216 2.3194 23.848C1.0714 21.448 0.447388 18.84 0.447388 16.024C0.447388 12.728 1.27942 9.91199 2.94342 7.57598C4.60742 5.20798 6.73539 3.43198 9.32739 2.24798C11.9514 1.06398 14.6234 0.471985 17.3434 0.471985C20.3834 0.471985 23.0554 1.19199 25.3594 2.63199C27.6634 4.03998 29.4234 5.91198 30.6394 8.24798C31.8874 10.584 32.5114 13.064 32.5114 15.688C32.5114 18.6 31.7434 21.272 30.2074 23.704C28.6714 26.136 26.6074 28.056 24.0154 29.464C21.4554 30.872 18.6714 31.576 15.6634 31.576ZM17.2954 30.424C19.2154 30.424 20.9274 29.912 22.4314 28.888C23.9674 27.832 25.1674 26.296 26.0314 24.28C26.9274 22.264 27.3754 19.864 27.3754 17.08C27.3754 14.104 26.8794 11.464 25.8874 9.15999C24.9274 6.82399 23.5354 4.99999 21.7114 3.68799C19.9194 2.37599 17.8074 1.71999 15.3754 1.71999C12.2394 1.71999 9.82338 2.83998 8.12738 5.07998C6.43138 7.28798 5.58337 10.36 5.58337 14.296C5.58337 17.368 6.07941 20.136 7.07141 22.6C8.06341 25.032 9.45538 26.952 11.2474 28.36C13.0394 29.736 15.0554 30.424 17.2954 30.424Z" fill="#4F4F4F"/>
</svg>
