<svg width="571" height="128" viewBox="0 0 571 128" fill="none" xmlns="http://www.w3.org/2000/svg">
<path d="M122.286 9.92199C122.286 7.742 122.032 6.14333 121.523 5.126C121.087 4.036 120.215 3.273 118.907 2.83699C117.599 2.401 115.528 2.183 112.694 2.183C112.476 2.183 112.367 1.965 112.367 1.529C112.367 1.093 112.476 0.875 112.694 0.875L117.926 0.983999C121.124 1.12933 123.776 1.202 125.883 1.202C127.845 1.202 130.352 1.12933 133.404 0.983999L138.745 0.875C138.963 0.875 139.072 1.093 139.072 1.529C139.072 1.965 138.963 2.183 138.745 2.183C135.984 2.183 133.949 2.401 132.641 2.83699C131.333 3.20033 130.425 3.89066 129.916 4.908C129.48 5.92533 129.262 7.524 129.262 9.704V60.171C129.262 62.351 129.48 63.986 129.916 65.076C130.425 66.0933 131.333 66.7837 132.641 67.147C133.949 67.5103 135.984 67.692 138.745 67.692C138.963 67.692 139.072 67.91 139.072 68.346C139.072 68.782 138.963 69 138.745 69C136.493 69 134.712 68.9637 133.404 68.891L125.883 68.782L117.926 68.891C116.618 68.9637 114.874 69 112.694 69C112.476 69 112.367 68.782 112.367 68.346C112.367 67.91 112.476 67.692 112.694 67.692C115.528 67.692 117.599 67.5103 118.907 67.147C120.215 66.7837 121.087 66.0933 121.523 65.076C122.032 63.986 122.286 62.351 122.286 60.171V9.92199ZM76.6153 32.376H125.338V34.665H76.6153V32.376ZM73.4543 9.704C73.4543 7.524 73.2 5.92533 72.6913 4.908C72.2553 3.89066 71.3833 3.20033 70.0753 2.83699C68.7673 2.401 66.7326 2.183 63.9713 2.183C63.826 2.183 63.7533 1.965 63.7533 1.529C63.7533 1.093 63.826 0.875 63.9713 0.875L69.5303 0.983999C72.5823 1.12933 75.0166 1.202 76.8333 1.202C78.9406 1.202 81.593 1.12933 84.7903 0.983999L90.0223 0.875C90.1676 0.875 90.2403 1.093 90.2403 1.529C90.2403 1.965 90.1676 2.183 90.0223 2.183C87.261 2.183 85.19 2.401 83.8093 2.83699C82.5013 3.273 81.593 4.036 81.0843 5.126C80.6483 6.14333 80.4303 7.742 80.4303 9.92199V60.171C80.4303 62.351 80.6483 63.986 81.0843 65.076C81.593 66.0933 82.5013 66.7837 83.8093 67.147C85.1173 67.5103 87.1883 67.692 90.0223 67.692C90.1676 67.692 90.2403 67.91 90.2403 68.346C90.2403 68.782 90.1676 69 90.0223 69C87.7696 69 85.9893 68.9637 84.6813 68.891L76.8333 68.782L69.3123 68.891C68.0043 68.9637 66.1876 69 63.8623 69C63.717 69 63.6443 68.782 63.6443 68.346C63.6443 67.91 63.717 67.692 63.8623 67.692C66.6236 67.692 68.6583 67.5103 69.9663 67.147C71.347 66.7837 72.2553 66.0933 72.6913 65.076C73.2 63.986 73.4543 62.351 73.4543 60.171V9.704Z" fill="#2F2E2E"/>
<path d="M201.506 70.199C200.053 70.199 198.89 69.763 198.018 68.891C197.146 68.019 196.71 66.8927 196.71 65.512C196.71 64.1313 197.146 63.0413 198.018 62.242C198.89 61.37 200.053 60.934 201.506 60.934C203.032 60.934 204.195 61.3337 204.994 62.133C205.794 62.9323 206.193 64.0587 206.193 65.512C206.193 66.9653 205.794 68.128 204.994 69C204.195 69.7993 203.032 70.199 201.506 70.199Z" fill="#2F2E2E"/>
<path d="M285.356 70.417C281.142 70.417 277.399 69.3997 274.129 67.365C270.932 65.2577 268.461 62.46 266.717 58.972C264.973 55.4113 264.101 51.56 264.101 47.418C264.101 42.6947 265.228 38.698 267.48 35.428C269.806 32.0853 272.749 29.6147 276.309 28.016C279.943 26.3447 283.612 25.509 287.318 25.509C291.606 25.509 295.348 26.5627 298.545 28.67C301.743 30.7773 304.177 33.575 305.848 37.063C307.592 40.4783 308.464 44.1117 308.464 47.963C308.464 52.4683 307.411 56.4287 305.303 59.844C303.196 63.1867 300.362 65.8027 296.801 67.692C293.313 69.5087 289.498 70.417 285.356 70.417ZM288.517 68.346C292.514 68.346 295.602 66.929 297.782 64.095C299.962 61.261 301.052 56.901 301.052 51.015C301.052 46.5097 300.289 42.4767 298.763 38.916C297.31 35.3553 295.275 32.594 292.659 30.632C290.043 28.5973 287.064 27.58 283.721 27.58C279.797 27.58 276.745 28.997 274.565 31.831C272.458 34.665 271.404 38.7343 271.404 44.039C271.404 48.4717 272.131 52.541 273.584 56.247C275.038 59.953 277.072 62.896 279.688 65.076C282.304 67.256 285.247 68.346 288.517 68.346Z" fill="#2F2E2E"/>
<path d="M371.086 70.199C369.633 70.199 368.47 69.763 367.598 68.891C366.726 68.019 366.29 66.8927 366.29 65.512C366.29 64.1313 366.726 63.0413 367.598 62.242C368.47 61.37 369.633 60.934 371.086 60.934C372.612 60.934 373.775 61.3337 374.574 62.133C375.374 62.9323 375.773 64.0587 375.773 65.512C375.773 66.9653 375.374 68.128 374.574 69C373.775 69.7993 372.612 70.199 371.086 70.199Z" fill="#2F2E2E"/>
<path d="M442.837 3.38199L445.344 3.6V57.119C445.344 60.8977 445.998 63.6227 447.306 65.294C448.687 66.8927 450.867 67.692 453.846 67.692C454.064 67.692 454.173 67.91 454.173 68.346C454.173 68.782 454.064 69 453.846 69C452.03 69 450.649 68.9637 449.704 68.891L444.254 68.782L438.695 68.891C437.678 68.9637 436.188 69 434.226 69C434.081 69 434.008 68.782 434.008 68.346C434.008 67.91 434.081 67.692 434.226 67.692C437.351 67.692 439.567 66.8927 440.875 65.294C442.183 63.6227 442.837 60.8977 442.837 57.119V3.38199ZM497.773 70.308C497.773 70.4533 497.592 70.5623 497.228 70.635C496.865 70.7077 496.611 70.6713 496.465 70.526L446.325 9.81299C444 6.979 441.856 5.017 439.894 3.927C438.005 2.76433 436.116 2.183 434.226 2.183C434.008 2.183 433.899 1.965 433.899 1.529C433.899 1.093 434.008 0.875 434.226 0.875L438.259 0.983999C439.131 1.05666 440.33 1.093 441.856 1.093C443.455 1.093 444.763 1.05666 445.78 0.983999C446.798 0.911333 447.597 0.875 448.178 0.875C448.687 0.875 449.087 1.02033 449.377 1.31099C449.741 1.529 450.14 2.03766 450.576 2.83699C451.448 4.14499 452.357 5.38033 453.301 6.543L496.901 60.062L497.773 70.308ZM497.773 70.308L495.266 66.929V12.865C495.266 9.08633 494.612 6.36133 493.304 4.69C492.069 3.01866 489.962 2.183 486.982 2.183C486.837 2.183 486.764 1.965 486.764 1.529C486.764 1.093 486.837 0.875 486.982 0.875L491.233 0.983999C493.413 1.12933 495.194 1.202 496.574 1.202C497.882 1.202 499.699 1.12933 502.024 0.983999L506.493 0.875C506.711 0.875 506.82 1.093 506.82 1.529C506.82 1.965 506.711 2.183 506.493 2.183C503.441 2.183 501.225 3.01866 499.844 4.69C498.464 6.36133 497.773 9.08633 497.773 12.865V70.308Z" fill="#2F2E2E"/>
<path d="M25.6249 100.984C25.6249 100.024 25.5289 99.32 25.3369 98.872C25.1449 98.392 24.7609 98.056 24.1849 97.864C23.6089 97.672 22.7289 97.576 21.5449 97.576C21.4489 97.576 21.4009 97.48 21.4009 97.288C21.4009 97.096 21.4489 97 21.5449 97L23.8489 97.048C25.3849 97.112 26.7449 97.144 27.9289 97.144C28.7929 97.144 29.9609 97.112 31.4329 97.048L34.0729 97C34.1689 97 34.2169 97.096 34.2169 97.288C34.2169 97.48 34.1689 97.576 34.0729 97.576C32.9209 97.576 32.0729 97.672 31.5289 97.864C30.9849 98.024 30.6169 98.328 30.4249 98.776C30.2329 99.224 30.1369 99.928 30.1369 100.888V123.112C30.1369 124.072 30.2329 124.792 30.4249 125.272C30.6169 125.72 30.9849 126.024 31.5289 126.184C32.0729 126.344 32.9209 126.424 34.0729 126.424C34.1689 126.424 34.2169 126.52 34.2169 126.712C34.2169 126.904 34.1689 127 34.0729 127C32.9849 127 32.1049 126.984 31.4329 126.952L27.9289 126.904L23.8489 126.952C23.2729 126.984 22.5049 127 21.5449 127C21.4489 127 21.4009 126.904 21.4009 126.712C21.4009 126.52 21.4489 126.424 21.5449 126.424C22.7609 126.424 23.6409 126.344 24.1849 126.184C24.7609 126.024 25.1449 125.72 25.3369 125.272C25.5289 124.792 25.6249 124.072 25.6249 123.112V100.984ZM6.66494 110.776H27.6889V112.024H6.66494V110.776ZM4.55294 100.888C4.55294 99.928 4.45694 99.224 4.26494 98.776C4.07294 98.328 3.70494 98.024 3.16093 97.864C2.61694 97.672 1.78494 97.576 0.664935 97.576C0.600935 97.576 0.568935 97.48 0.568935 97.288C0.568935 97.096 0.600935 97 0.664935 97L3.20894 97.048C4.68094 97.112 5.83293 97.144 6.66494 97.144C7.78493 97.144 9.11294 97.112 10.6489 97.048L13.1449 97C13.2089 97 13.2409 97.096 13.2409 97.288C13.2409 97.48 13.2089 97.576 13.1449 97.576C11.9929 97.576 11.1289 97.672 10.5529 97.864C10.0089 98.056 9.62494 98.392 9.40094 98.872C9.20894 99.32 9.11294 100.024 9.11294 100.984V123.112C9.11294 124.072 9.20894 124.792 9.40094 125.272C9.59294 125.72 9.96094 126.024 10.5049 126.184C11.0809 126.344 11.9609 126.424 13.1449 126.424C13.2089 126.424 13.2409 126.52 13.2409 126.712C13.2409 126.904 13.2089 127 13.1449 127C12.0569 127 11.2089 126.984 10.6009 126.952L6.66494 126.904L3.16093 126.952C2.55293 126.984 1.70494 127 0.616935 127C0.552935 127 0.520935 126.904 0.520935 126.712C0.520935 126.52 0.552935 126.424 0.616935 126.424C1.76894 126.424 2.61694 126.344 3.16093 126.184C3.70494 126.024 4.07294 125.72 4.26494 125.272C4.45694 124.792 4.55294 124.072 4.55294 123.112V100.888Z" fill="#2F2E2E"/>
<path d="M64.7314 127.576C61.7554 127.576 59.0994 126.888 56.7634 125.512C54.4594 124.104 52.6674 122.216 51.3874 119.848C50.1394 117.448 49.5154 114.84 49.5154 112.024C49.5154 108.728 50.3474 105.912 52.0114 103.576C53.6754 101.208 55.8034 99.432 58.3954 98.248C61.0194 97.064 63.6914 96.472 66.4114 96.472C69.4514 96.472 72.1234 97.192 74.4274 98.632C76.7314 100.04 78.4914 101.912 79.7074 104.248C80.9554 106.584 81.5794 109.064 81.5794 111.688C81.5794 114.6 80.8114 117.272 79.2754 119.704C77.7394 122.136 75.6754 124.056 73.0834 125.464C70.5234 126.872 67.7394 127.576 64.7314 127.576ZM66.3634 126.424C68.2834 126.424 69.9954 125.912 71.4994 124.888C73.0354 123.832 74.2354 122.296 75.0994 120.28C75.9954 118.264 76.4434 115.864 76.4434 113.08C76.4434 110.104 75.9474 107.464 74.9554 105.16C73.9954 102.824 72.6034 101 70.7794 99.688C68.9874 98.376 66.8754 97.72 64.4434 97.72C61.3074 97.72 58.8914 98.84 57.1954 101.08C55.4994 103.288 54.6514 106.36 54.6514 110.296C54.6514 113.368 55.1474 116.136 56.1394 118.6C57.1314 121.032 58.5234 122.952 60.3154 124.36C62.1074 125.736 64.1234 126.424 66.3634 126.424Z" fill="#2F2E2E"/>
<path d="M122.841 102.856C122.841 101.192 122.457 99.896 121.689 98.968C120.953 98.04 119.881 97.576 118.473 97.576C118.409 97.576 118.377 97.48 118.377 97.288C118.377 97.096 118.409 97 118.473 97L120.681 97.048C121.897 97.112 122.857 97.144 123.561 97.144C124.137 97.144 125.001 97.112 126.153 97.048L128.265 97C128.329 97 128.361 97.096 128.361 97.288C128.361 97.48 128.329 97.576 128.265 97.576C127.017 97.576 126.041 98.04 125.337 98.968C124.665 99.896 124.329 101.192 124.329 102.856V116.296C124.329 118.6 123.833 120.616 122.841 122.344C121.881 124.04 120.505 125.352 118.713 126.28C116.953 127.208 114.905 127.672 112.569 127.672C110.233 127.672 108.153 127.224 106.329 126.328C104.505 125.4 103.081 124.088 102.057 122.392C101.065 120.664 100.569 118.648 100.569 116.344V100.888C100.569 99.928 100.473 99.224 100.281 98.776C100.089 98.328 99.7374 98.024 99.2254 97.864C98.7454 97.672 97.9774 97.576 96.9214 97.576C96.8254 97.576 96.7774 97.48 96.7774 97.288C96.7774 97.096 96.8254 97 96.9214 97L99.4174 97.048C100.825 97.112 101.961 97.144 102.825 97.144C103.785 97.144 104.969 97.112 106.377 97.048L108.777 97C108.873 97 108.921 97.096 108.921 97.288C108.921 97.48 108.873 97.576 108.777 97.576C107.721 97.576 106.937 97.672 106.425 97.864C105.913 98.056 105.561 98.392 105.369 98.872C105.209 99.32 105.129 100.024 105.129 100.984V114.664C105.129 118.472 105.913 121.32 107.481 123.208C109.081 125.064 111.305 125.992 114.153 125.992C116.873 125.992 119.001 125.16 120.537 123.496C122.073 121.8 122.841 119.416 122.841 116.344V102.856Z" fill="#2F2E2E"/>
<path d="M148.013 102.088C148.013 103.272 148.301 104.328 148.877 105.256C149.485 106.152 150.221 106.936 151.085 107.608C151.949 108.248 153.133 109.048 154.637 110.008C156.269 111.032 157.549 111.912 158.477 112.648C159.437 113.384 160.253 114.296 160.925 115.384C161.597 116.44 161.933 117.688 161.933 119.128C161.933 120.76 161.501 122.216 160.637 123.496C159.805 124.776 158.605 125.784 157.037 126.52C155.501 127.224 153.741 127.576 151.757 127.576C150.413 127.576 149.021 127.4 147.581 127.048C146.173 126.696 145.101 126.264 144.365 125.752C144.077 125.56 143.917 125.256 143.885 124.84L143.597 117.592V117.544C143.597 117.416 143.677 117.352 143.837 117.352C143.997 117.32 144.093 117.368 144.125 117.496C145.181 120.12 146.381 122.28 147.725 123.976C149.101 125.672 150.829 126.52 152.909 126.52C154.317 126.52 155.485 126.152 156.413 125.416C157.341 124.648 157.805 123.384 157.805 121.624C157.805 120.216 157.485 118.984 156.845 117.928C156.237 116.872 155.469 115.992 154.541 115.288C153.645 114.584 152.413 113.72 150.845 112.696C149.309 111.704 148.109 110.872 147.245 110.2C146.381 109.496 145.645 108.648 145.037 107.656C144.429 106.632 144.125 105.448 144.125 104.104C144.125 102.44 144.589 101.032 145.517 99.88C146.445 98.728 147.645 97.88 149.117 97.336C150.621 96.76 152.189 96.472 153.821 96.472C154.877 96.472 155.949 96.584 157.037 96.808C158.125 97 159.053 97.256 159.821 97.576C160.301 97.768 160.541 98.072 160.541 98.488L160.637 104.968C160.637 105.096 160.557 105.176 160.397 105.208C160.269 105.24 160.173 105.208 160.109 105.112C159.469 103.16 158.605 101.4 157.517 99.832C156.461 98.232 154.861 97.432 152.717 97.432C151.277 97.432 150.125 97.864 149.261 98.728C148.429 99.56 148.013 100.68 148.013 102.088Z" fill="#2F2E2E"/>
<path d="M178.005 127C177.909 127 177.861 126.904 177.861 126.712C177.861 126.52 177.909 126.424 178.005 126.424C179.093 126.424 179.877 126.344 180.357 126.184C180.869 126.024 181.205 125.72 181.365 125.272C181.557 124.792 181.653 124.072 181.653 123.112V100.888C181.653 99.928 181.557 99.224 181.365 98.776C181.205 98.328 180.869 98.024 180.357 97.864C179.845 97.672 179.061 97.576 178.005 97.576C177.909 97.576 177.861 97.48 177.861 97.288C177.861 97.096 177.909 97 178.005 97H197.973C198.293 97 198.453 97.144 198.453 97.432L198.549 103.672C198.549 103.736 198.453 103.784 198.261 103.816C198.101 103.816 198.005 103.768 197.973 103.672C197.205 100.056 194.997 98.248 191.349 98.248H189.381C188.197 98.248 187.365 98.456 186.885 98.872C186.437 99.288 186.213 99.992 186.213 100.984V122.92C186.213 123.976 186.405 124.712 186.789 125.128C187.205 125.544 187.925 125.752 188.949 125.752H191.301C195.589 125.752 198.309 123.688 199.461 119.56C199.461 119.496 199.541 119.464 199.701 119.464C199.925 119.464 200.037 119.512 200.037 119.608C199.717 122.04 199.557 124.264 199.557 126.28C199.557 126.536 199.509 126.728 199.413 126.856C199.317 126.952 199.125 127 198.837 127H178.005ZM196.149 116.152C196.149 113.4 194.357 112.024 190.773 112.024H184.053V110.776H190.821C194.341 110.776 196.101 109.592 196.101 107.224C196.101 107.128 196.181 107.08 196.341 107.08C196.533 107.08 196.629 107.128 196.629 107.224L196.581 111.4L196.629 113.656C196.693 114.68 196.725 115.512 196.725 116.152C196.725 116.216 196.629 116.248 196.437 116.248C196.245 116.248 196.149 116.216 196.149 116.152Z" fill="#2F2E2E"/>
<path d="M254.097 127.576C251.121 127.576 248.465 126.888 246.129 125.512C243.825 124.104 242.033 122.216 240.753 119.848C239.505 117.448 238.881 114.84 238.881 112.024C238.881 108.728 239.713 105.912 241.377 103.576C243.041 101.208 245.169 99.432 247.761 98.248C250.385 97.064 253.057 96.472 255.777 96.472C258.817 96.472 261.489 97.192 263.793 98.632C266.097 100.04 267.857 101.912 269.073 104.248C270.321 106.584 270.945 109.064 270.945 111.688C270.945 114.6 270.177 117.272 268.641 119.704C267.105 122.136 265.041 124.056 262.449 125.464C259.889 126.872 257.105 127.576 254.097 127.576ZM255.729 126.424C257.649 126.424 259.361 125.912 260.865 124.888C262.401 123.832 263.601 122.296 264.465 120.28C265.361 118.264 265.809 115.864 265.809 113.08C265.809 110.104 265.313 107.464 264.321 105.16C263.361 102.824 261.969 101 260.145 99.688C258.353 98.376 256.241 97.72 253.809 97.72C250.673 97.72 248.257 98.84 246.561 101.08C244.865 103.288 244.017 106.36 244.017 110.296C244.017 113.368 244.513 116.136 245.505 118.6C246.497 121.032 247.889 122.952 249.681 124.36C251.473 125.736 253.489 126.424 255.729 126.424Z" fill="#2F2E2E"/>
<path d="M286.575 127C286.479 127 286.431 126.904 286.431 126.712C286.431 126.52 286.479 126.424 286.575 126.424C287.727 126.424 288.559 126.344 289.071 126.184C289.615 126.024 289.983 125.72 290.175 125.272C290.367 124.792 290.463 124.072 290.463 123.112V100.888C290.463 99.928 290.367 99.224 290.175 98.776C290.015 98.328 289.679 98.024 289.167 97.864C288.655 97.672 287.871 97.576 286.815 97.576C286.719 97.576 286.671 97.48 286.671 97.288C286.671 97.096 286.719 97 286.815 97H306.783C307.103 97 307.263 97.144 307.263 97.432L307.359 103.672C307.359 103.736 307.263 103.784 307.071 103.816C306.911 103.816 306.815 103.768 306.783 103.672C306.015 100.056 303.807 98.248 300.159 98.248H298.191C297.039 98.248 296.223 98.456 295.743 98.872C295.263 99.288 295.023 99.976 295.023 100.936V122.92C295.023 123.944 295.151 124.696 295.407 125.176C295.663 125.624 296.159 125.944 296.895 126.136C297.663 126.328 298.831 126.424 300.399 126.424C300.463 126.424 300.495 126.52 300.495 126.712C300.495 126.904 300.463 127 300.399 127C299.087 127 298.063 126.984 297.327 126.952L292.623 126.904L289.119 126.952C288.511 126.984 287.663 127 286.575 127ZM304.383 116.68C304.383 113.96 302.543 112.6 298.863 112.6H292.863V111.352H298.959C302.543 111.352 304.335 110.152 304.335 107.752C304.335 107.688 304.431 107.656 304.623 107.656C304.815 107.656 304.911 107.688 304.911 107.752L304.863 111.976C304.863 112.968 304.879 113.704 304.911 114.184L304.959 116.68C304.959 116.776 304.863 116.824 304.671 116.824C304.479 116.824 304.383 116.776 304.383 116.68Z" fill="#2F2E2E"/>
<path d="M349.933 98.104L351.229 98.2V121.192C351.229 122.888 351.549 124.184 352.189 125.08C352.861 125.976 353.837 126.424 355.117 126.424C355.213 126.424 355.261 126.52 355.261 126.712C355.261 126.904 355.213 127 355.117 127C354.285 127 353.645 126.984 353.197 126.952L350.653 126.904L347.821 126.952C347.309 126.984 346.573 127 345.613 127C345.517 127 345.469 126.904 345.469 126.712C345.469 126.52 345.517 126.424 345.613 126.424C346.989 126.424 348.045 125.976 348.781 125.08C349.549 124.184 349.933 122.888 349.933 121.192V98.104ZM374.317 127.672C374.317 127.768 374.237 127.832 374.077 127.864C373.917 127.896 373.805 127.88 373.741 127.816L350.653 100.936C349.565 99.688 348.605 98.824 347.773 98.344C346.941 97.832 346.125 97.576 345.325 97.576C345.229 97.576 345.181 97.48 345.181 97.288C345.181 97.096 345.229 97 345.325 97L347.245 97.048C347.629 97.08 348.205 97.096 348.973 97.096L352.045 97.048C352.429 97.016 352.877 97 353.389 97C353.645 97 353.837 97.064 353.965 97.192C354.093 97.32 354.285 97.576 354.541 97.96C355.085 98.696 355.485 99.208 355.741 99.496L373.933 120.904L374.317 127.672ZM374.317 127.672L373.021 126.232V102.856C373.021 101.16 372.685 99.864 372.013 98.968C371.373 98.04 370.413 97.576 369.133 97.576C369.069 97.576 369.037 97.48 369.037 97.288C369.037 97.096 369.069 97 369.133 97L371.101 97.048C372.125 97.112 372.973 97.144 373.645 97.144C374.253 97.144 375.133 97.112 376.285 97.048L378.301 97C378.397 97 378.445 97.096 378.445 97.288C378.445 97.48 378.397 97.576 378.301 97.576C377.021 97.576 376.029 98.04 375.325 98.968C374.653 99.864 374.317 101.16 374.317 102.856V127.672Z" fill="#2F2E2E"/>
<path d="M399.825 114.04H413.265L413.601 115.24H399.201L399.825 114.04ZM424.737 126.424C424.865 126.424 424.929 126.52 424.929 126.712C424.929 126.904 424.865 127 424.737 127C424.129 127 423.153 126.968 421.809 126.904C420.465 126.84 419.489 126.808 418.881 126.808C418.081 126.808 417.137 126.84 416.049 126.904C414.961 126.968 414.113 127 413.505 127C413.377 127 413.313 126.904 413.313 126.712C413.313 126.52 413.377 126.424 413.505 126.424C414.465 126.424 415.153 126.328 415.569 126.136C415.985 125.912 416.193 125.56 416.193 125.08C416.193 124.6 415.921 123.784 415.377 122.632L405.345 102.232L407.313 99.016L397.809 120.424C397.393 121.384 397.185 122.248 397.185 123.016C397.185 124.136 397.585 124.984 398.385 125.56C399.185 126.136 400.305 126.424 401.745 126.424C401.905 126.424 401.985 126.52 401.985 126.712C401.985 126.904 401.905 127 401.745 127C401.169 127 400.337 126.968 399.249 126.904C398.033 126.84 396.977 126.808 396.081 126.808C395.217 126.808 394.209 126.84 393.057 126.904C392.033 126.968 391.185 127 390.513 127C390.353 127 390.273 126.904 390.273 126.712C390.273 126.52 390.353 126.424 390.513 126.424C391.409 126.424 392.161 126.248 392.769 125.896C393.377 125.544 393.969 124.92 394.545 124.024C395.121 123.096 395.809 121.736 396.609 119.944L406.929 96.712C406.993 96.616 407.137 96.568 407.361 96.568C407.585 96.568 407.713 96.616 407.745 96.712L419.505 120.424C420.593 122.728 421.505 124.312 422.241 125.176C423.009 126.008 423.841 126.424 424.737 126.424Z" fill="#2F2E2E"/>
<path d="M442.398 98.104L443.694 98.2L443.166 121.192C443.134 122.888 443.454 124.184 444.126 125.08C444.83 125.976 445.87 126.424 447.246 126.424C447.342 126.424 447.39 126.52 447.39 126.712C447.39 126.904 447.342 127 447.246 127C446.382 127 445.71 126.984 445.23 126.952L442.59 126.904L439.758 126.952C439.278 126.984 438.606 127 437.742 127C437.646 127 437.598 126.904 437.598 126.712C437.598 126.52 437.646 126.424 437.742 126.424C439.054 126.424 440.062 125.976 440.766 125.08C441.502 124.184 441.886 122.888 441.918 121.192L442.398 98.104ZM475.902 126.424C475.966 126.424 475.998 126.52 475.998 126.712C475.998 126.904 475.966 127 475.902 127C474.846 127 473.998 126.984 473.358 126.952L469.902 126.904L466.542 126.952C465.966 126.984 465.15 127 464.094 127C464.03 127 463.998 126.904 463.998 126.712C463.998 126.52 464.03 126.424 464.094 126.424C465.15 126.424 465.934 126.344 466.446 126.184C466.958 125.992 467.294 125.672 467.454 125.224C467.614 124.776 467.662 124.072 467.598 123.112L466.59 101.176L468.702 97.864L456.414 126.664C456.35 126.792 456.222 126.856 456.03 126.856C455.87 126.856 455.726 126.792 455.598 126.664L442.59 100.984C442.014 99.8 441.358 98.936 440.622 98.392C439.886 97.848 439.038 97.576 438.078 97.576C437.982 97.576 437.934 97.48 437.934 97.288C437.934 97.096 437.982 97 438.078 97L440.142 97.048C440.558 97.08 441.102 97.096 441.774 97.096L443.982 97.048C444.27 97.016 444.606 97 444.99 97C445.406 97 445.742 97.16 445.998 97.48C446.254 97.768 446.654 98.44 447.198 99.496L457.998 120.664L455.934 124.312L467.31 98.2C467.502 97.752 467.71 97.448 467.934 97.288C468.158 97.096 468.43 97 468.75 97C468.974 97 469.262 97.016 469.614 97.048C469.966 97.08 470.398 97.096 470.91 97.096L473.502 97.048C473.918 97.016 474.526 97 475.326 97C475.422 97 475.47 97.096 475.47 97.288C475.47 97.48 475.422 97.576 475.326 97.576C473.822 97.576 472.718 97.864 472.014 98.44C471.342 98.984 471.038 99.896 471.102 101.176L472.158 123.112C472.222 124.104 472.35 124.824 472.542 125.272C472.734 125.72 473.07 126.024 473.55 126.184C474.03 126.344 474.814 126.424 475.902 126.424Z" fill="#2F2E2E"/>
<path d="M506.123 127.576C503.147 127.576 500.491 126.888 498.155 125.512C495.851 124.104 494.059 122.216 492.779 119.848C491.531 117.448 490.907 114.84 490.907 112.024C490.907 108.728 491.739 105.912 493.403 103.576C495.067 101.208 497.195 99.432 499.787 98.248C502.411 97.064 505.083 96.472 507.803 96.472C510.843 96.472 513.515 97.192 515.819 98.632C518.123 100.04 519.883 101.912 521.099 104.248C522.347 106.584 522.971 109.064 522.971 111.688C522.971 114.6 522.203 117.272 520.667 119.704C519.131 122.136 517.067 124.056 514.475 125.464C511.915 126.872 509.131 127.576 506.123 127.576ZM507.755 126.424C509.675 126.424 511.387 125.912 512.891 124.888C514.427 123.832 515.627 122.296 516.491 120.28C517.387 118.264 517.835 115.864 517.835 113.08C517.835 110.104 517.339 107.464 516.347 105.16C515.387 102.824 513.995 101 512.171 99.688C510.379 98.376 508.267 97.72 505.835 97.72C502.699 97.72 500.283 98.84 498.587 101.08C496.891 103.288 496.043 106.36 496.043 110.296C496.043 113.368 496.539 116.136 497.531 118.6C498.523 121.032 499.915 122.952 501.707 124.36C503.499 125.736 505.515 126.424 507.755 126.424Z" fill="#2F2E2E"/>
<path d="M562.649 127C561.881 127 560.457 125.656 558.377 122.968C556.329 120.28 553.833 116.536 550.889 111.736L554.729 110.584C557.417 114.584 559.657 117.72 561.449 119.992C563.273 122.232 564.889 123.864 566.297 124.888C567.705 125.912 569.065 126.424 570.377 126.424C570.441 126.424 570.473 126.52 570.473 126.712C570.473 126.904 570.441 127 570.377 127H562.649ZM551.753 96.856C554.505 96.856 556.649 97.416 558.185 98.536C559.721 99.624 560.489 101.128 560.489 103.048C560.489 104.84 559.977 106.456 558.953 107.896C557.929 109.336 556.569 110.472 554.873 111.304C553.209 112.104 551.449 112.504 549.593 112.504C548.921 112.504 548.105 112.472 547.145 112.408V123.112C547.145 124.104 547.225 124.824 547.385 125.272C547.545 125.72 547.865 126.024 548.345 126.184C548.857 126.344 549.673 126.424 550.793 126.424C550.857 126.424 550.889 126.52 550.889 126.712C550.889 126.904 550.857 127 550.793 127C549.737 127 548.905 126.984 548.297 126.952L544.793 126.904L541.337 126.952C540.729 126.984 539.897 127 538.841 127C538.745 127 538.697 126.904 538.697 126.712C538.697 126.52 538.745 126.424 538.841 126.424C539.929 126.424 540.713 126.344 541.193 126.184C541.705 126.024 542.057 125.72 542.249 125.272C542.441 124.792 542.537 124.072 542.537 123.112V100.888C542.537 99.928 542.441 99.224 542.249 98.776C542.089 98.328 541.753 98.024 541.241 97.864C540.729 97.672 539.945 97.576 538.889 97.576C538.825 97.576 538.793 97.48 538.793 97.288C538.793 97.096 538.825 97 538.889 97L541.385 97.048C542.793 97.112 543.929 97.144 544.793 97.144C545.849 97.144 547.001 97.096 548.249 97C548.665 96.968 549.161 96.936 549.737 96.904C550.345 96.872 551.017 96.856 551.753 96.856ZM555.737 104.728C555.737 102.136 555.289 100.328 554.393 99.304C553.529 98.28 552.265 97.768 550.601 97.768C549.321 97.768 548.425 98.008 547.913 98.488C547.401 98.936 547.145 99.768 547.145 100.984V111.112C547.913 111.24 548.841 111.304 549.929 111.304C552.009 111.304 553.497 110.792 554.393 109.768C555.289 108.712 555.737 107.032 555.737 104.728Z" fill="#2F2E2E"/>
</svg>
