<svg width="1440" height="1024" viewBox="0 0 1440 1024" fill="none" xmlns="http://www.w3.org/2000/svg">
<g id="honLogo">
<path id="Vector" class="acro" d="M903.398 482.819L949.036 538.84V543.128L899.589 483.254C899.588 483.253 899.588 483.252 899.587 483.251C899.416 483.044 899.246 482.839 899.076 482.639V478V477.511C899.24 477.506 899.389 477.503 899.526 477.501L899.631 477.564C899.644 477.579 899.661 477.599 899.681 477.625C899.788 477.761 899.944 477.994 900.142 478.357L900.195 478.454L900.256 478.547C901.258 480.049 902.304 481.473 903.396 482.816L903.398 482.819ZM886.476 475.72C886.476 475.718 886.476 475.716 886.476 475.715C886.477 475.716 886.477 475.718 886.477 475.72C886.477 475.722 886.477 475.724 886.476 475.725C886.476 475.724 886.476 475.722 886.476 475.72ZM954.465 477.838C953.835 478.653 953.333 479.585 952.942 480.617C952.568 479.585 952.087 478.653 951.482 477.839C952.016 477.853 952.514 477.86 952.976 477.86C953.425 477.86 953.922 477.853 954.465 477.838ZM961.756 475.72C961.756 475.722 961.756 475.724 961.756 475.725C961.756 475.724 961.756 475.722 961.756 475.72C961.756 475.718 961.756 475.716 961.756 475.715C961.756 475.716 961.756 475.718 961.756 475.72ZM893.755 547.291C894.349 546.494 894.824 545.582 895.196 544.574C895.568 545.579 896.041 546.489 896.633 547.285L895.426 547.261L895.377 547.26L895.327 547.26L893.755 547.291ZM903.796 549.28C903.796 549.278 903.796 549.277 903.796 549.275C903.796 549.276 903.796 549.278 903.796 549.28C903.796 549.282 903.796 549.284 903.796 549.285C903.796 549.284 903.796 549.282 903.796 549.28ZM899.6 477.53C899.6 477.53 899.6 477.53 899.6 477.53C899.6 477.53 899.6 477.53 899.6 477.53L899.6 477.53L899.6 477.53Z" stroke="#4F4F4F" stroke-width="5" fill="none"/>
<path id="Vector_2" class="st1" d="M812.674 544.403L812.714 544.366L812.752 544.328C813.16 543.92 813.76 543.62 814.825 543.62C816.08 543.62 816.631 543.942 816.897 544.208C817.184 544.495 817.485 545.025 817.485 546.16C817.485 547.244 817.208 547.866 816.86 548.267C816.582 548.525 816.026 548.82 814.825 548.82C813.76 548.82 813.16 548.52 812.752 548.112C812.319 547.679 812.045 547.104 812.045 546.16C812.045 545.213 812.318 544.729 812.674 544.403Z" stroke="#4F4F4F" stroke-width="5"/>
<path id="Vector_3" class="acro" d="M712.602 547.601C712.658 547.647 712.715 547.694 712.771 547.74C711.602 547.3 710.489 546.75 709.431 546.095C706.301 544.025 703.885 541.291 702.163 537.851C700.422 534.291 699.543 530.433 699.543 526.24C699.543 521.451 700.679 517.571 702.818 514.463C703.143 513.997 703.478 513.549 703.826 513.118C702.975 515.875 702.583 519.03 702.583 522.52C702.583 527.677 703.429 532.471 705.155 536.873C706.883 541.278 709.348 544.889 712.602 547.601ZM740.281 538.597C739.847 539.286 739.381 539.943 738.885 540.569C739.806 537.596 740.223 534.11 740.223 530.2C740.223 524.964 739.337 520.188 737.509 515.915C735.816 511.775 733.412 508.417 730.247 505.962C731.429 506.422 732.541 506.998 733.587 507.687C736.724 509.755 739.102 512.485 740.748 515.92L740.762 515.949L740.776 515.977C742.516 519.383 743.383 522.993 743.383 526.84C743.383 531.39 742.325 535.281 740.281 538.597Z" stroke="#4F4F4F" stroke-width="5"/>
<path id="Vector_4" d="M625.98 544.403L626.02 544.366L626.059 544.328C626.467 543.92 627.066 543.62 628.131 543.62C629.386 543.62 629.937 543.942 630.203 544.208C630.49 544.495 630.791 545.025 630.791 546.16C630.791 547.244 630.515 547.866 630.167 548.267C629.888 548.525 629.332 548.82 628.131 548.82C627.066 548.82 626.467 548.52 626.059 548.112C625.625 547.679 625.351 547.104 625.351 546.16C625.351 545.212 625.624 544.729 625.98 544.403Z" stroke="#4F4F4F" stroke-width="5"/>
<path id="Vector_5" class="acro" d="M532.496 475.72C532.496 475.722 532.496 475.724 532.496 475.725C532.496 475.724 532.496 475.722 532.496 475.72C532.496 475.718 532.496 475.716 532.496 475.715C532.496 475.716 532.496 475.718 532.496 475.72ZM541.941 477.825C543.003 477.848 543.981 477.86 544.876 477.86C545.633 477.86 546.458 477.85 547.351 477.831C547.255 477.989 547.165 478.153 547.08 478.322L547.047 478.388L547.018 478.455C546.33 480.061 546.096 482.246 546.096 484.72V507.18H544.276H543.416V484.96C543.416 482.512 543.151 480.304 542.358 478.655C542.236 478.363 542.097 478.087 541.941 477.825ZM547.08 546.798C547.166 546.97 547.258 547.136 547.356 547.296L544.912 547.26L544.877 547.26L544.842 547.26L542.059 547.298C542.168 547.108 542.267 546.91 542.358 546.702C543.139 545.006 543.416 542.778 543.416 540.28V514.7H544.276H546.096V540.28C546.096 542.773 546.335 544.959 546.995 546.608L547.034 546.705L547.08 546.798ZM532.496 549.28C532.496 549.282 532.496 549.283 532.496 549.285C532.496 549.284 532.496 549.282 532.496 549.28C532.496 549.278 532.496 549.276 532.496 549.275C532.496 549.276 532.496 549.278 532.496 549.28ZM492.336 484.96V507.18H490.636H489.656V484.72C489.656 482.258 489.388 480.039 488.584 478.387C488.498 478.192 488.404 478.005 488.302 477.826C489.252 477.849 490.11 477.86 490.876 477.86C491.747 477.86 492.696 477.849 493.725 477.827C493.566 478.078 493.421 478.344 493.291 478.623L493.274 478.659L493.258 478.695C492.57 480.301 492.336 482.486 492.336 484.96ZM490.636 514.7H492.336V540.28C492.336 542.773 492.575 544.959 493.235 546.608L493.274 546.705L493.32 546.798C493.406 546.971 493.499 547.137 493.597 547.298L490.911 547.26L490.875 547.26L490.84 547.26L488.299 547.297C488.407 547.108 488.507 546.91 488.598 546.702C489.379 545.006 489.656 542.778 489.656 540.28V514.7H490.636ZM556.896 549.28C556.896 549.278 556.896 549.277 556.896 549.275C556.896 549.276 556.896 549.278 556.896 549.28C556.896 549.282 556.896 549.284 556.896 549.285C556.896 549.284 556.896 549.282 556.896 549.28ZM556.896 475.72C556.896 475.718 556.896 475.716 556.896 475.715C556.896 475.716 556.896 475.718 556.896 475.72C556.896 475.722 556.896 475.724 556.896 475.725C556.896 475.724 556.896 475.722 556.896 475.72Z" stroke="#4F4F4F" stroke-width="5"/>
<g id="Vector_6">
<mask id="path-6-inside-1_1_2" fill="white">
<path d="M1046.47 616C1045.7 616 1044.28 614.656 1042.2 611.968C1040.15 609.28 1037.65 605.536 1034.71 600.736L1038.55 599.584C1041.24 603.584 1043.48 606.72 1045.27 608.992C1047.09 611.232 1048.71 612.864 1050.12 613.888C1051.53 614.912 1052.89 615.424 1054.2 615.424C1054.26 615.424 1054.29 615.52 1054.29 615.712C1054.29 615.904 1054.26 616 1054.2 616H1046.47ZM1035.57 585.856C1038.33 585.856 1040.47 586.416 1042.01 587.536C1043.54 588.624 1044.31 590.128 1044.31 592.048C1044.31 593.84 1043.8 595.456 1042.77 596.896C1041.75 598.336 1040.39 599.472 1038.69 600.304C1037.03 601.104 1035.27 601.504 1033.41 601.504C1032.74 601.504 1031.93 601.472 1030.97 601.408V612.112C1030.97 613.104 1031.05 613.824 1031.21 614.272C1031.37 614.72 1031.69 615.024 1032.17 615.184C1032.68 615.344 1033.49 615.424 1034.61 615.424C1034.68 615.424 1034.71 615.52 1034.71 615.712C1034.71 615.904 1034.68 616 1034.61 616C1033.56 616 1032.73 615.984 1032.12 615.952L1028.61 615.904L1025.16 615.952C1024.55 615.984 1023.72 616 1022.66 616C1022.57 616 1022.52 615.904 1022.52 615.712C1022.52 615.52 1022.57 615.424 1022.66 615.424C1023.75 615.424 1024.53 615.344 1025.01 615.184C1025.53 615.024 1025.88 614.72 1026.07 614.272C1026.26 613.792 1026.36 613.072 1026.36 612.112V589.888C1026.36 588.928 1026.26 588.224 1026.07 587.776C1025.91 587.328 1025.57 587.024 1025.06 586.864C1024.55 586.672 1023.77 586.576 1022.71 586.576C1022.65 586.576 1022.61 586.48 1022.61 586.288C1022.61 586.096 1022.65 586 1022.71 586L1025.21 586.048C1026.61 586.112 1027.75 586.144 1028.61 586.144C1029.67 586.144 1030.82 586.096 1032.07 586C1032.49 585.968 1032.98 585.936 1033.56 585.904C1034.17 585.872 1034.84 585.856 1035.57 585.856ZM1039.56 593.728C1039.56 591.136 1039.11 589.328 1038.21 588.304C1037.35 587.28 1036.09 586.768 1034.42 586.768C1033.14 586.768 1032.25 587.008 1031.73 587.488C1031.22 587.936 1030.97 588.768 1030.97 589.984V600.112C1031.73 600.24 1032.66 600.304 1033.75 600.304C1035.83 600.304 1037.32 599.792 1038.21 598.768C1039.11 597.712 1039.56 596.032 1039.56 593.728Z"/>
</mask>
<path d="M1042.2 611.968L1038.22 614.998L1038.23 615.013L1038.24 615.028L1042.2 611.968ZM1034.71 600.736L1033.27 595.947L1027.05 597.813L1030.45 603.35L1034.71 600.736ZM1038.55 599.584L1042.7 596.795L1040.64 593.736L1037.11 594.795L1038.55 599.584ZM1045.27 608.992L1041.34 612.088L1041.37 612.119L1041.39 612.149L1045.27 608.992ZM1050.12 613.888L1047.18 617.932L1047.18 617.932L1050.12 613.888ZM1042.01 587.536L1039.06 591.576L1039.09 591.596L1039.12 591.616L1042.01 587.536ZM1042.77 596.896L1038.7 593.998L1038.7 593.998L1042.77 596.896ZM1038.69 600.304L1040.86 604.81L1040.88 604.802L1040.9 604.793L1038.69 600.304ZM1030.97 601.408L1031.3 596.419L1025.97 596.064V601.408H1030.97ZM1031.21 614.272L1035.91 612.59L1035.91 612.59L1031.21 614.272ZM1032.17 615.184L1030.58 619.927L1030.63 619.942L1030.67 619.956L1032.17 615.184ZM1032.12 615.952L1032.38 610.959L1032.28 610.954L1032.19 610.952L1032.12 615.952ZM1028.61 615.904L1028.68 610.904L1028.61 610.904L1028.54 610.905L1028.61 615.904ZM1025.16 615.952L1025.09 610.953L1024.99 610.954L1024.89 610.959L1025.16 615.952ZM1025.01 615.184L1023.52 610.412L1023.48 610.426L1023.43 610.441L1025.01 615.184ZM1026.07 614.272L1030.67 616.242L1030.69 616.186L1030.71 616.129L1026.07 614.272ZM1026.07 587.776L1021.36 589.458L1021.41 589.603L1021.47 589.746L1026.07 587.776ZM1025.06 586.864L1023.31 591.546L1023.44 591.595L1023.57 591.636L1025.06 586.864ZM1022.71 586L1022.81 581.001L1022.76 581H1022.71V586ZM1025.21 586.048L1025.43 581.053L1025.37 581.05L1025.3 581.049L1025.21 586.048ZM1032.07 586L1032.45 590.985L1032.45 590.985L1032.07 586ZM1033.56 585.904L1033.29 580.911L1033.29 580.911L1033.28 580.912L1033.56 585.904ZM1038.21 588.304L1034.39 591.528L1034.42 591.563L1034.45 591.597L1038.21 588.304ZM1031.73 587.488L1035.03 591.251L1035.09 591.194L1035.15 591.136L1031.73 587.488ZM1030.97 600.112H1025.97V604.348L1030.14 605.044L1030.97 600.112ZM1038.21 598.768L1041.98 602.061L1042 602.032L1042.03 602.003L1038.21 598.768ZM1046.47 611C1047.09 611 1047.57 611.133 1047.85 611.233C1048.13 611.335 1048.31 611.441 1048.38 611.485C1048.51 611.565 1048.48 611.564 1048.26 611.356C1047.82 610.945 1047.13 610.173 1046.15 608.908L1038.24 615.028C1039.34 616.451 1040.4 617.695 1041.39 618.628C1041.88 619.092 1042.48 619.595 1043.16 620.011C1043.75 620.372 1044.93 621 1046.47 621V611ZM1046.17 608.938C1044.27 606.442 1041.88 602.859 1038.97 598.122L1030.45 603.35C1033.43 608.213 1036.03 612.118 1038.22 614.998L1046.17 608.938ZM1036.15 605.525L1039.99 604.373L1037.11 594.795L1033.27 595.947L1036.15 605.525ZM1034.4 602.373C1037.12 606.419 1039.44 609.673 1041.34 612.088L1049.2 605.896C1047.52 603.767 1045.36 600.749 1042.7 596.795L1034.4 602.373ZM1041.39 612.149C1043.33 614.535 1045.27 616.542 1047.18 617.932L1053.06 609.844C1052.15 609.186 1050.85 607.929 1049.15 605.835L1041.39 612.149ZM1047.18 617.932C1049.16 619.376 1051.53 620.424 1054.2 620.424V610.424C1054.2 610.424 1054.18 610.424 1054.15 610.417C1054.11 610.41 1054.05 610.395 1053.95 610.361C1053.77 610.29 1053.47 610.143 1053.06 609.844L1047.18 617.932ZM1054.2 620.424C1052.8 620.424 1051.57 619.84 1050.7 618.978C1049.96 618.238 1049.65 617.458 1049.53 617.077C1049.28 616.344 1049.29 615.762 1049.29 615.712H1059.29C1059.29 615.47 1059.29 614.744 1059.01 613.915C1058.78 613.213 1057.55 610.424 1054.2 610.424V620.424ZM1049.29 615.712C1049.29 615.662 1049.28 615.08 1049.53 614.347C1049.65 613.966 1049.96 613.186 1050.7 612.446C1051.57 611.584 1052.8 611 1054.2 611V621C1057.55 621 1058.78 618.211 1059.01 617.509C1059.29 616.68 1059.29 615.954 1059.29 615.712H1049.29ZM1054.2 611H1046.47V621H1054.2V611ZM1035.57 590.856C1037.72 590.856 1038.69 591.303 1039.06 591.576L1044.95 583.496C1042.25 581.529 1038.93 580.856 1035.57 580.856V590.856ZM1039.12 591.616C1039.22 591.687 1039.26 591.735 1039.28 591.752C1039.29 591.767 1039.29 591.766 1039.28 591.754C1039.27 591.742 1039.28 591.746 1039.29 591.78C1039.29 591.817 1039.31 591.902 1039.31 592.048H1049.31C1049.31 588.545 1047.79 585.503 1044.9 583.456L1039.12 591.616ZM1039.31 592.048C1039.31 592.817 1039.11 593.417 1038.7 593.998L1046.85 599.794C1048.48 597.495 1049.31 594.863 1049.31 592.048H1039.31ZM1038.7 593.998C1038.19 594.714 1037.49 595.323 1036.49 595.815L1040.9 604.793C1043.29 603.621 1045.31 601.958 1046.85 599.794L1038.7 593.998ZM1036.53 595.798C1035.54 596.271 1034.52 596.504 1033.41 596.504V606.504C1036.02 606.504 1038.52 605.937 1040.86 604.81L1036.53 595.798ZM1033.41 596.504C1032.89 596.504 1032.19 596.479 1031.3 596.419L1030.63 606.397C1031.66 606.465 1032.59 606.504 1033.41 606.504V596.504ZM1025.97 601.408V612.112H1035.97V601.408H1025.97ZM1025.97 612.112C1025.97 613.193 1026.03 614.647 1026.5 615.954L1035.91 612.59C1035.97 612.746 1035.99 612.85 1036 612.879C1036 612.911 1036 612.903 1035.99 612.844C1035.98 612.72 1035.97 612.486 1035.97 612.112H1025.97ZM1026.5 615.954C1027.21 617.952 1028.75 619.317 1030.58 619.927L1033.75 610.441C1034.1 610.558 1034.57 610.789 1035.01 611.211C1035.46 611.64 1035.75 612.135 1035.91 612.59L1026.5 615.954ZM1030.67 619.956C1031.95 620.356 1033.41 620.424 1034.61 620.424V610.424C1034.16 610.424 1033.85 610.407 1033.65 610.388C1033.55 610.378 1033.5 610.37 1033.5 610.369C1033.48 610.367 1033.54 610.377 1033.66 610.412L1030.67 619.956ZM1034.61 620.424C1033.22 620.424 1031.98 619.84 1031.12 618.978C1030.38 618.238 1030.07 617.458 1029.94 617.077C1029.7 616.344 1029.71 615.762 1029.71 615.712H1039.71C1039.71 615.47 1039.71 614.744 1039.43 613.915C1039.19 613.213 1037.97 610.424 1034.61 610.424V620.424ZM1029.71 615.712C1029.71 615.662 1029.7 615.08 1029.94 614.347C1030.07 613.966 1030.38 613.186 1031.12 612.446C1031.98 611.584 1033.22 611 1034.61 611V621C1037.97 621 1039.19 618.211 1039.43 617.509C1039.71 616.68 1039.71 615.954 1039.71 615.712H1029.71ZM1034.61 611C1033.59 611 1032.86 610.984 1032.38 610.959L1031.85 620.945C1032.59 620.984 1033.52 621 1034.61 621V611ZM1032.19 610.952L1028.68 610.904L1028.54 620.904L1032.05 620.952L1032.19 610.952ZM1028.54 610.905L1025.09 610.953L1025.23 620.952L1028.68 620.904L1028.54 610.905ZM1024.89 610.959C1024.41 610.984 1023.68 611 1022.66 611V621C1023.75 621 1024.68 620.984 1025.42 620.945L1024.89 610.959ZM1022.66 611C1023.51 611 1024.48 611.227 1025.37 611.822C1026.23 612.396 1026.74 613.123 1027.03 613.692C1027.52 614.689 1027.52 615.553 1027.52 615.712H1017.52C1017.52 616.063 1017.53 617.071 1018.08 618.164C1018.39 618.781 1018.93 619.544 1019.82 620.142C1020.75 620.761 1021.76 621 1022.66 621V611ZM1027.52 615.712C1027.52 615.871 1027.52 616.735 1027.03 617.732C1026.74 618.301 1026.23 619.028 1025.37 619.602C1024.48 620.197 1023.51 620.424 1022.66 620.424V610.424C1021.76 610.424 1020.75 610.663 1019.82 611.282C1018.93 611.88 1018.39 612.643 1018.08 613.26C1017.53 614.353 1017.52 615.361 1017.52 615.712H1027.52ZM1022.66 620.424C1023.81 620.424 1025.29 620.361 1026.59 619.927L1023.43 610.441C1023.57 610.394 1023.66 610.378 1023.66 610.377C1023.67 610.375 1023.64 610.381 1023.56 610.39C1023.38 610.408 1023.09 610.424 1022.66 610.424V620.424ZM1026.5 619.956C1028.25 619.41 1029.84 618.178 1030.67 616.242L1021.47 612.302C1021.66 611.863 1021.97 611.42 1022.39 611.052C1022.81 610.693 1023.22 610.505 1023.52 610.412L1026.5 619.956ZM1030.71 616.129C1031.26 614.749 1031.36 613.258 1031.36 612.112H1021.36C1021.36 612.437 1021.34 612.627 1021.33 612.711C1021.32 612.75 1021.32 612.743 1021.33 612.7C1021.34 612.659 1021.37 612.558 1021.43 612.415L1030.71 616.129ZM1031.36 612.112V589.888H1021.36V612.112H1031.36ZM1031.36 589.888C1031.36 588.78 1031.27 587.227 1030.67 585.806L1021.47 589.746C1021.4 589.566 1021.36 589.434 1021.34 589.373C1021.33 589.309 1021.33 589.286 1021.33 589.315C1021.33 589.343 1021.34 589.404 1021.35 589.504C1021.35 589.603 1021.36 589.73 1021.36 589.888H1031.36ZM1030.78 586.094C1030.02 583.965 1028.34 582.651 1026.55 582.092L1023.57 591.636C1023.26 591.54 1022.8 591.334 1022.34 590.92C1021.87 590.491 1021.54 589.97 1021.36 589.458L1030.78 586.094ZM1026.82 582.182C1025.44 581.665 1023.91 581.576 1022.71 581.576V591.576C1023.1 591.576 1023.35 591.594 1023.48 591.611C1023.55 591.619 1023.56 591.624 1023.54 591.619C1023.52 591.615 1023.44 591.595 1023.31 591.546L1026.82 582.182ZM1022.71 581.576C1024.11 581.576 1025.34 582.16 1026.2 583.022C1026.94 583.762 1027.25 584.542 1027.38 584.923C1027.63 585.656 1027.61 586.238 1027.61 586.288H1017.61C1017.61 586.53 1017.62 587.256 1017.89 588.085C1018.13 588.787 1019.36 591.576 1022.71 591.576V581.576ZM1027.61 586.288C1027.61 586.338 1027.63 586.92 1027.38 587.653C1027.25 588.034 1026.94 588.814 1026.2 589.554C1025.34 590.416 1024.11 591 1022.71 591V581C1019.36 581 1018.13 583.789 1017.89 584.491C1017.62 585.32 1017.61 586.046 1017.61 586.288H1027.61ZM1022.61 590.999L1025.11 591.047L1025.3 581.049L1022.81 581.001L1022.61 590.999ZM1024.98 591.043C1026.42 591.108 1027.64 591.144 1028.61 591.144V581.144C1027.86 581.144 1026.81 581.116 1025.43 581.053L1024.98 591.043ZM1028.61 591.144C1029.82 591.144 1031.1 591.089 1032.45 590.985L1031.69 581.015C1030.54 581.103 1029.52 581.144 1028.61 581.144V591.144ZM1032.45 590.985C1032.82 590.957 1033.28 590.927 1033.83 590.896L1033.28 580.912C1032.68 580.945 1032.15 580.979 1031.69 581.015L1032.45 590.985ZM1033.82 590.897C1034.32 590.871 1034.91 590.856 1035.57 590.856V580.856C1034.77 580.856 1034.01 580.873 1033.29 580.911L1033.82 590.897ZM1044.56 593.728C1044.56 590.881 1044.13 587.473 1041.98 585.011L1034.45 591.597C1034.22 591.329 1034.27 591.229 1034.37 591.631C1034.46 592.022 1034.56 592.692 1034.56 593.728H1044.56ZM1042.03 585.08C1040 582.663 1037.17 581.768 1034.42 581.768V591.768C1034.75 591.768 1034.82 591.819 1034.74 591.786C1034.7 591.77 1034.64 591.738 1034.56 591.686C1034.49 591.634 1034.43 591.578 1034.39 591.528L1042.03 585.08ZM1034.42 581.768C1032.81 581.768 1030.26 582.011 1028.31 583.84L1035.15 591.136C1034.65 591.611 1034.18 591.751 1034.08 591.778C1033.98 591.804 1034.07 591.768 1034.42 591.768V581.768ZM1028.44 583.725C1026.24 585.649 1025.97 588.388 1025.97 589.984H1035.97C1035.97 589.693 1036 589.711 1035.94 589.918C1035.87 590.145 1035.64 590.714 1035.03 591.251L1028.44 583.725ZM1025.97 589.984V600.112H1035.97V589.984H1025.97ZM1030.14 605.044C1031.27 605.231 1032.49 605.304 1033.75 605.304V595.304C1032.84 595.304 1032.2 595.249 1031.79 595.18L1030.14 605.044ZM1033.75 605.304C1036.51 605.304 1039.72 604.636 1041.98 602.061L1034.45 595.475C1034.55 595.366 1034.64 595.287 1034.72 595.237C1034.8 595.189 1034.83 595.181 1034.8 595.192C1034.72 595.221 1034.4 595.304 1033.75 595.304V605.304ZM1042.03 602.003C1044.05 599.611 1044.56 596.49 1044.56 593.728H1034.56C1034.56 594.577 1034.47 595.119 1034.39 595.428C1034.31 595.729 1034.26 595.696 1034.4 595.533L1042.03 602.003Z" fill="#4F4F4F" mask="url(#path-6-inside-1_1_2)"/>
</g>
<path id="Vector_7" d="M972.083 599.296C972.083 602.047 972.449 604.628 973.208 607.018C972.371 605.176 971.947 603.188 971.947 601.024C971.947 600.294 971.994 599.6 972.086 598.942C972.084 599.06 972.083 599.178 972.083 599.296ZM999.011 600.688C999.011 601.353 998.964 602 998.87 602.631C998.874 602.448 998.875 602.265 998.875 602.08C998.875 599.912 998.634 597.862 998.133 595.946C998.721 597.462 999.011 599.038 999.011 600.688Z" stroke="#4F4F4F" stroke-width="5"/>
<g id="Vector_8">
<mask id="path-9-inside-2_1_2" fill="white">
<path d="M915.658 587.104L916.954 587.2L916.426 610.192C916.394 611.888 916.714 613.184 917.386 614.08C918.09 614.976 919.13 615.424 920.506 615.424C920.602 615.424 920.65 615.52 920.65 615.712C920.65 615.904 920.602 616 920.506 616C919.642 616 918.97 615.984 918.49 615.952L915.85 615.904L913.018 615.952C912.538 615.984 911.866 616 911.002 616C910.906 616 910.858 615.904 910.858 615.712C910.858 615.52 910.906 615.424 911.002 615.424C912.314 615.424 913.322 614.976 914.026 614.08C914.762 613.184 915.146 611.888 915.178 610.192L915.658 587.104ZM949.162 615.424C949.226 615.424 949.258 615.52 949.258 615.712C949.258 615.904 949.226 616 949.162 616C948.106 616 947.258 615.984 946.618 615.952L943.162 615.904L939.802 615.952C939.226 615.984 938.41 616 937.354 616C937.29 616 937.258 615.904 937.258 615.712C937.258 615.52 937.29 615.424 937.354 615.424C938.41 615.424 939.194 615.344 939.706 615.184C940.218 614.992 940.554 614.672 940.714 614.224C940.874 613.776 940.922 613.072 940.858 612.112L939.85 590.176L941.962 586.864L929.674 615.664C929.61 615.792 929.482 615.856 929.29 615.856C929.13 615.856 928.986 615.792 928.858 615.664L915.85 589.984C915.274 588.8 914.618 587.936 913.882 587.392C913.146 586.848 912.298 586.576 911.338 586.576C911.242 586.576 911.194 586.48 911.194 586.288C911.194 586.096 911.242 586 911.338 586L913.402 586.048C913.818 586.08 914.362 586.096 915.034 586.096L917.242 586.048C917.53 586.016 917.866 586 918.25 586C918.666 586 919.002 586.16 919.258 586.48C919.514 586.768 919.914 587.44 920.458 588.496L931.258 609.664L929.194 613.312L940.57 587.2C940.762 586.752 940.97 586.448 941.194 586.288C941.418 586.096 941.69 586 942.01 586C942.234 586 942.522 586.016 942.874 586.048C943.226 586.08 943.658 586.096 944.17 586.096L946.762 586.048C947.178 586.016 947.786 586 948.586 586C948.682 586 948.73 586.096 948.73 586.288C948.73 586.48 948.682 586.576 948.586 586.576C947.082 586.576 945.978 586.864 945.274 587.44C944.602 587.984 944.298 588.896 944.362 590.176L945.418 612.112C945.482 613.104 945.61 613.824 945.802 614.272C945.994 614.72 946.33 615.024 946.81 615.184C947.29 615.344 948.074 615.424 949.162 615.424Z"/>
</mask>
<path d="M915.658 587.104L916.027 582.118L910.769 581.728L910.659 587L915.658 587.104ZM916.954 587.2L921.953 587.315L922.062 582.565L917.323 582.214L916.954 587.2ZM916.426 610.192L911.427 610.077L911.427 610.087L911.427 610.098L916.426 610.192ZM917.386 614.08L913.386 617.08L913.42 617.125L913.454 617.169L917.386 614.08ZM918.49 615.952L918.823 610.963L918.702 610.955L918.581 610.953L918.49 615.952ZM915.85 615.904L915.941 610.905L915.853 610.903L915.765 610.905L915.85 615.904ZM913.018 615.952L912.933 610.953L912.809 610.955L912.685 610.963L913.018 615.952ZM914.026 614.08L910.162 610.906L910.128 610.948L910.094 610.991L914.026 614.08ZM915.178 610.192L910.179 610.088L910.179 610.098L915.178 610.192ZM946.618 615.952L946.868 610.958L946.778 610.954L946.687 610.952L946.618 615.952ZM943.162 615.904L943.231 610.904L943.161 610.904L943.091 610.905L943.162 615.904ZM939.802 615.952L939.731 610.953L939.628 610.954L939.525 610.96L939.802 615.952ZM939.706 615.184L941.197 619.956L941.331 619.915L941.462 619.866L939.706 615.184ZM940.714 614.224L945.423 615.906L945.423 615.906L940.714 614.224ZM940.858 612.112L935.863 612.342L935.866 612.393L935.869 612.445L940.858 612.112ZM939.85 590.176L935.634 587.488L934.783 588.823L934.855 590.406L939.85 590.176ZM941.962 586.864L946.561 588.826L937.746 584.176L941.962 586.864ZM929.674 615.664L934.146 617.9L934.214 617.765L934.273 617.626L929.674 615.664ZM928.858 615.664L924.398 617.923L924.758 618.635L925.323 619.2L928.858 615.664ZM915.85 589.984L911.354 592.171L911.371 592.207L911.39 592.243L915.85 589.984ZM913.882 587.392L910.91 591.413L910.91 591.413L913.882 587.392ZM911.338 586L911.454 581.001L911.396 581H911.338V586ZM913.402 586.048L913.786 581.063L913.652 581.052L913.518 581.049L913.402 586.048ZM915.034 586.096V591.096H915.088L915.143 591.095L915.034 586.096ZM917.242 586.048L917.351 591.047L917.573 591.042L917.794 591.017L917.242 586.048ZM919.258 586.48L915.354 589.603L915.435 589.705L915.521 589.802L919.258 586.48ZM920.458 588.496L924.912 586.224L924.907 586.215L924.903 586.206L920.458 588.496ZM931.258 609.664L935.61 612.126L936.934 609.786L935.712 607.392L931.258 609.664ZM929.194 613.312L924.61 611.315L933.546 615.774L929.194 613.312ZM940.57 587.2L945.154 589.197L945.16 589.183L945.166 589.17L940.57 587.2ZM941.194 586.288L944.1 590.357L944.28 590.228L944.448 590.084L941.194 586.288ZM942.874 586.048L943.327 581.069L943.327 581.069L942.874 586.048ZM944.17 586.096V591.096H944.216L944.263 591.095L944.17 586.096ZM946.762 586.048L946.855 591.047L947 591.044L947.146 591.033L946.762 586.048ZM945.274 587.44L948.42 591.326L948.43 591.318L948.44 591.31L945.274 587.44ZM944.362 590.176L949.356 589.936L949.356 589.926L944.362 590.176ZM945.418 612.112L940.424 612.352L940.426 612.393L940.428 612.434L945.418 612.112ZM945.802 614.272L950.398 612.302L950.398 612.302L945.802 614.272ZM946.81 615.184L945.229 619.927L945.229 619.927L946.81 615.184ZM915.289 592.09L916.585 592.186L917.323 582.214L916.027 582.118L915.289 592.09ZM911.955 587.085L911.427 610.077L921.425 610.307L921.953 587.315L911.955 587.085ZM911.427 610.098C911.384 612.362 911.779 614.937 913.386 617.08L921.386 611.08C921.522 611.262 921.526 611.356 921.496 611.237C921.464 611.108 921.415 610.81 921.425 610.286L911.427 610.098ZM913.454 617.169C915.306 619.525 917.95 620.424 920.506 620.424V610.424C920.355 610.424 920.448 610.4 920.672 610.496C920.784 610.544 920.908 610.614 921.029 610.708C921.151 610.801 921.247 610.901 921.318 610.991L913.454 617.169ZM920.506 620.424C919.655 620.424 918.687 620.197 917.795 619.602C916.935 619.028 916.426 618.301 916.142 617.732C915.643 616.735 915.65 615.871 915.65 615.712H925.65C925.65 615.361 925.633 614.353 925.086 613.26C924.778 612.643 924.239 611.88 923.343 611.282C922.415 610.663 921.405 610.424 920.506 610.424V620.424ZM915.65 615.712C915.65 615.553 915.643 614.689 916.142 613.692C916.426 613.123 916.935 612.396 917.795 611.822C918.687 611.227 919.655 611 920.506 611V621C921.405 621 922.415 620.761 923.343 620.142C924.239 619.544 924.778 618.781 925.086 618.164C925.633 617.071 925.65 616.063 925.65 615.712H915.65ZM920.506 611C919.681 611 919.138 610.984 918.823 610.963L918.157 620.941C918.802 620.984 919.603 621 920.506 621V611ZM918.581 610.953L915.941 610.905L915.759 620.903L918.399 620.951L918.581 610.953ZM915.765 610.905L912.933 610.953L913.103 620.951L915.935 620.903L915.765 610.905ZM912.685 610.963C912.37 610.984 911.827 611 911.002 611V621C911.905 621 912.706 620.984 913.351 620.941L912.685 610.963ZM911.002 611C911.853 611 912.82 611.227 913.712 611.822C914.573 612.395 915.081 613.123 915.366 613.692C915.865 614.689 915.858 615.552 915.858 615.712H905.858C905.858 616.064 905.876 617.071 906.422 618.164C906.731 618.781 907.269 619.545 908.166 620.142C909.094 620.761 910.103 621 911.002 621V611ZM915.858 615.712C915.858 615.872 915.865 616.735 915.366 617.732C915.081 618.301 914.573 619.029 913.712 619.602C912.821 620.197 911.853 620.424 911.002 620.424V610.424C910.103 610.424 909.094 610.663 908.166 611.282C907.269 611.879 906.731 612.643 906.422 613.26C905.876 614.353 905.858 615.36 905.858 615.712H915.858ZM911.002 620.424C913.586 620.424 916.155 619.464 917.958 617.169L910.094 610.991C910.229 610.82 910.445 610.637 910.711 610.519C910.956 610.41 911.089 610.424 911.002 610.424V620.424ZM917.89 617.254C919.604 615.166 920.133 612.604 920.177 610.286L910.179 610.098C910.169 610.605 910.109 610.892 910.072 611.016C910.039 611.128 910.042 611.053 910.162 610.906L917.89 617.254ZM920.177 610.296L920.657 587.208L910.659 587L910.179 610.088L920.177 610.296ZM949.162 620.424C947.765 620.424 946.531 619.84 945.669 618.978C944.929 618.238 944.618 617.458 944.491 617.077C944.246 616.344 944.258 615.762 944.258 615.712H954.258C954.258 615.47 954.254 614.744 953.977 613.915C953.744 613.213 952.515 610.424 949.162 610.424V620.424ZM944.258 615.712C944.258 615.662 944.246 615.08 944.491 614.347C944.618 613.966 944.929 613.186 945.669 612.446C946.531 611.584 947.765 611 949.162 611V621C952.515 621 953.744 618.211 953.977 617.509C954.254 616.68 954.258 615.954 954.258 615.712H944.258ZM949.162 611C948.144 611 947.389 610.984 946.868 610.958L946.368 620.946C947.127 620.984 948.069 621 949.162 621V611ZM946.687 610.952L943.231 610.904L943.093 620.904L946.549 620.952L946.687 610.952ZM943.091 610.905L939.731 610.953L939.873 620.951L943.233 620.903L943.091 610.905ZM939.525 610.96C939.087 610.984 938.38 611 937.354 611V621C938.44 621 939.365 620.984 940.079 620.944L939.525 610.96ZM937.354 611C938.751 611 939.985 611.584 940.847 612.446C941.587 613.186 941.898 613.966 942.025 614.347C942.27 615.08 942.258 615.662 942.258 615.712H932.258C932.258 615.954 932.262 616.68 932.539 617.509C932.772 618.211 934.001 621 937.354 621V611ZM942.258 615.712C942.258 615.762 942.27 616.344 942.025 617.077C941.898 617.458 941.587 618.238 940.847 618.978C939.985 619.84 938.751 620.424 937.354 620.424V610.424C934.001 610.424 932.772 613.213 932.539 613.915C932.262 614.744 932.258 615.47 932.258 615.712H942.258ZM937.354 620.424C938.526 620.424 939.935 620.351 941.197 619.956L938.215 610.412C938.314 610.38 938.369 610.371 938.361 610.373C938.355 610.374 938.313 610.381 938.226 610.39C938.049 610.408 937.765 610.424 937.354 610.424V620.424ZM941.462 619.866C943.122 619.243 944.691 617.955 945.423 615.906L936.005 612.542C936.181 612.05 936.481 611.572 936.894 611.179C937.292 610.8 937.687 610.601 937.95 610.502L941.462 619.866ZM945.423 615.906C945.946 614.439 945.919 612.867 945.847 611.779L935.869 612.445C935.88 612.604 935.884 612.732 935.885 612.832C935.886 612.933 935.883 612.993 935.882 613.02C935.88 613.048 935.88 613.021 935.893 612.951C935.899 612.915 935.91 612.862 935.927 612.796C935.944 612.729 935.969 612.643 936.005 612.542L945.423 615.906ZM945.853 611.882L944.845 589.946L934.855 590.406L935.863 612.342L945.853 611.882ZM944.066 592.864L946.178 589.552L937.746 584.176L935.634 587.488L944.066 592.864ZM937.363 584.902L925.075 613.702L934.273 617.626L946.561 588.826L937.363 584.902ZM925.202 613.428C925.654 612.525 926.39 611.788 927.294 611.336C928.12 610.923 928.863 610.856 929.29 610.856V620.856C930.621 620.856 932.943 620.305 934.146 617.9L925.202 613.428ZM929.29 610.856C929.899 610.856 930.515 610.982 931.093 611.239C931.658 611.49 932.087 611.822 932.394 612.128L925.323 619.2C926.254 620.131 927.626 620.856 929.29 620.856V610.856ZM933.318 613.405L920.31 587.725L911.39 592.243L924.398 617.923L933.318 613.405ZM920.346 587.797C919.562 586.184 918.46 584.558 916.854 583.371L910.91 591.413C910.833 591.356 910.852 591.35 910.944 591.472C911.037 591.594 911.18 591.814 911.354 592.171L920.346 587.797ZM916.854 583.371C915.214 582.159 913.312 581.576 911.338 581.576V591.576C911.34 591.576 911.274 591.575 911.167 591.541C911.058 591.506 910.968 591.456 910.91 591.413L916.854 583.371ZM911.338 581.576C912.189 581.576 913.156 581.803 914.048 582.398C914.909 582.971 915.417 583.699 915.702 584.268C916.201 585.265 916.194 586.128 916.194 586.288H906.194C906.194 586.64 906.212 587.647 906.758 588.74C907.067 589.357 907.605 590.121 908.502 590.718C909.43 591.337 910.439 591.576 911.338 591.576V581.576ZM916.194 586.288C916.194 586.448 916.201 587.311 915.702 588.308C915.417 588.877 914.909 589.605 914.048 590.178C913.156 590.773 912.189 591 911.338 591V581C910.439 581 909.43 581.239 908.502 581.858C907.605 582.455 907.067 583.219 906.758 583.836C906.212 584.929 906.194 585.936 906.194 586.288H916.194ZM911.222 590.999L913.286 591.047L913.518 581.049L911.454 581.001L911.222 590.999ZM913.019 591.033C913.615 591.079 914.301 591.096 915.034 591.096V581.096C914.423 581.096 914.021 581.081 913.786 581.063L913.019 591.033ZM915.143 591.095L917.351 591.047L917.133 581.049L914.925 581.097L915.143 591.095ZM917.794 591.017C917.851 591.011 917.995 591 918.25 591V581C917.737 581 917.209 581.021 916.69 581.079L917.794 591.017ZM918.25 591C917.803 591 917.243 590.91 916.664 590.634C916.083 590.358 915.65 589.973 915.354 589.603L923.162 583.357C921.941 581.83 920.158 581 918.25 581V591ZM915.521 589.802C915.393 589.657 915.333 589.566 915.349 589.589C915.356 589.599 915.39 589.651 915.454 589.757C915.582 589.973 915.767 590.307 916.013 590.786L924.903 586.206C924.415 585.259 923.743 583.999 922.995 583.158L915.521 589.802ZM916.004 590.768L926.804 611.936L935.712 607.392L924.912 586.224L916.004 590.768ZM926.906 607.202L924.842 610.85L933.546 615.774L935.61 612.126L926.906 607.202ZM933.778 615.309L945.154 589.197L935.986 585.203L924.61 611.315L933.778 615.309ZM945.166 589.17C945.166 589.17 945.165 589.171 945.164 589.174C945.163 589.177 945.161 589.181 945.158 589.187C945.153 589.198 945.144 589.216 945.131 589.239C945.107 589.284 945.064 589.361 944.997 589.46C944.875 589.638 944.596 590.003 944.1 590.357L938.288 582.219C936.943 583.18 936.286 584.503 935.974 585.23L945.166 589.17ZM944.448 590.084C944.102 590.381 943.69 590.625 943.23 590.787C942.776 590.947 942.355 591 942.01 591V581C940.605 581 939.15 581.455 937.94 582.492L944.448 590.084ZM942.01 591C942.008 591 942.04 591 942.117 591.004C942.191 591.008 942.291 591.016 942.421 591.027L943.327 581.069C942.899 581.03 942.445 581 942.01 581V591ZM942.421 591.027C942.974 591.078 943.567 591.096 944.17 591.096V581.096C943.749 581.096 943.478 581.082 943.327 581.069L942.421 591.027ZM944.263 591.095L946.855 591.047L946.669 581.049L944.077 581.097L944.263 591.095ZM947.146 591.033C947.366 591.016 947.821 591 948.586 591V581C947.751 581 946.99 581.016 946.379 581.063L947.146 591.033ZM948.586 591C947.735 591 946.767 590.773 945.875 590.178C945.015 589.604 944.506 588.877 944.222 588.308C943.723 587.311 943.73 586.447 943.73 586.288H953.73C953.73 585.937 953.713 584.929 953.166 583.836C952.858 583.219 952.319 582.456 951.423 581.858C950.495 581.239 949.485 581 948.586 581V591ZM943.73 586.288C943.73 586.129 943.723 585.265 944.222 584.268C944.506 583.699 945.015 582.972 945.875 582.398C946.767 581.803 947.735 581.576 948.586 581.576V591.576C949.485 591.576 950.495 591.337 951.423 590.718C952.319 590.12 952.858 589.357 953.166 588.74C953.713 587.647 953.73 586.639 953.73 586.288H943.73ZM948.586 581.576C946.624 581.576 944.126 581.919 942.108 583.57L948.44 591.31C948.112 591.579 947.865 591.637 947.892 591.63C947.902 591.627 947.962 591.613 948.082 591.6C948.202 591.587 948.367 591.576 948.586 591.576V581.576ZM942.128 583.554C939.699 585.52 939.265 588.356 939.368 590.426L949.356 589.926C949.345 589.712 949.383 589.819 949.285 590.113C949.171 590.457 948.907 590.932 948.42 591.326L942.128 583.554ZM939.368 590.416L940.424 612.352L950.412 611.872L949.356 589.936L939.368 590.416ZM940.428 612.434C940.499 613.53 940.661 614.968 941.206 616.242L950.398 612.302C950.459 612.444 950.486 612.539 950.492 612.564C950.5 612.591 950.495 612.58 950.485 612.521C950.463 612.396 950.432 612.162 950.408 611.79L940.428 612.434ZM941.206 616.242C941.985 618.058 943.453 619.335 945.229 619.927L948.391 610.441C948.731 610.554 949.151 610.765 949.553 611.128C949.958 611.495 950.232 611.915 950.398 612.302L941.206 616.242ZM945.229 619.927C946.529 620.361 948.009 620.424 949.162 620.424V610.424C948.729 610.424 948.439 610.408 948.266 610.39C948.182 610.381 948.15 610.375 948.16 610.377C948.166 610.378 948.251 610.394 948.391 610.441L945.229 619.927Z" fill="#4F4F4F" mask="url(#path-9-inside-2_1_2)"/>
</g>
<path id="Vector_9" d="M886.569 613.146C886.6 613.2 886.63 613.255 886.66 613.309C886.64 613.309 886.621 613.309 886.601 613.309C886.591 613.254 886.58 613.2 886.569 613.146Z" stroke="#4F4F4F" stroke-width="5"/>
<g id="Vector_10">
<mask id="path-12-inside-3_1_2" fill="white">
<path d="M812.633 587.104L813.929 587.2V610.192C813.929 611.888 814.249 613.184 814.889 614.08C815.561 614.976 816.537 615.424 817.817 615.424C817.913 615.424 817.961 615.52 817.961 615.712C817.961 615.904 817.913 616 817.817 616C816.985 616 816.345 615.984 815.897 615.952L813.353 615.904L810.521 615.952C810.009 615.984 809.273 616 808.313 616C808.217 616 808.169 615.904 808.169 615.712C808.169 615.52 808.217 615.424 808.313 615.424C809.689 615.424 810.745 614.976 811.481 614.08C812.249 613.184 812.633 611.888 812.633 610.192V587.104ZM837.017 616.672C837.017 616.768 836.937 616.832 836.777 616.864C836.617 616.896 836.505 616.88 836.441 616.816L813.353 589.936C812.265 588.688 811.305 587.824 810.473 587.344C809.641 586.832 808.825 586.576 808.025 586.576C807.929 586.576 807.881 586.48 807.881 586.288C807.881 586.096 807.929 586 808.025 586L809.945 586.048C810.329 586.08 810.905 586.096 811.673 586.096L814.745 586.048C815.129 586.016 815.577 586 816.089 586C816.345 586 816.537 586.064 816.665 586.192C816.793 586.32 816.985 586.576 817.241 586.96C817.785 587.696 818.185 588.208 818.441 588.496L836.633 609.904L837.017 616.672ZM837.017 616.672L835.721 615.232V591.856C835.721 590.16 835.385 588.864 834.713 587.968C834.073 587.04 833.113 586.576 831.833 586.576C831.769 586.576 831.737 586.48 831.737 586.288C831.737 586.096 831.769 586 831.833 586L833.801 586.048C834.825 586.112 835.673 586.144 836.345 586.144C836.953 586.144 837.833 586.112 838.985 586.048L841.001 586C841.097 586 841.145 586.096 841.145 586.288C841.145 586.48 841.097 586.576 841.001 586.576C839.721 586.576 838.729 587.04 838.025 587.968C837.353 588.864 837.017 590.16 837.017 591.856V616.672Z"/>
</mask>
<path d="M812.633 587.104L813.002 582.118L807.633 581.72V587.104H812.633ZM813.929 587.2H818.929V582.557L814.298 582.214L813.929 587.2ZM814.889 614.08L810.82 616.986L810.854 617.033L810.889 617.08L814.889 614.08ZM815.897 615.952L816.253 610.965L816.122 610.955L815.991 610.953L815.897 615.952ZM813.353 615.904L813.447 610.905L813.358 610.903L813.268 610.905L813.353 615.904ZM810.521 615.952L810.436 610.953L810.322 610.955L810.209 610.962L810.521 615.952ZM811.481 614.08L807.685 610.826L807.65 610.866L807.617 610.906L811.481 614.08ZM837.017 616.672H842.017V616.53L842.009 616.389L837.017 616.672ZM836.441 616.816L832.648 620.074L832.771 620.218L832.905 620.352L836.441 616.816ZM813.353 589.936L817.146 586.678L817.134 586.664L817.122 586.65L813.353 589.936ZM810.473 587.344L807.852 591.602L807.913 591.639L807.974 591.675L810.473 587.344ZM808.025 586L808.15 581.002L808.087 581H808.025V586ZM809.945 586.048L810.36 581.065L810.215 581.053L810.07 581.05L809.945 586.048ZM811.673 586.096V591.096H811.712L811.751 591.095L811.673 586.096ZM814.745 586.048L814.823 591.047L814.992 591.045L815.16 591.031L814.745 586.048ZM816.665 586.192L820.2 582.656L820.2 582.656L816.665 586.192ZM817.241 586.96L813.081 589.733L813.148 589.834L813.22 589.932L817.241 586.96ZM818.441 588.496L822.251 585.258L822.215 585.216L822.178 585.174L818.441 588.496ZM836.633 609.904L841.625 609.621L841.53 607.945L840.443 606.666L836.633 609.904ZM837.017 616.672L833.3 620.017L842.017 629.702V616.672H837.017ZM835.721 615.232H830.721V617.151L832.004 618.577L835.721 615.232ZM834.713 587.968L830.597 590.807L830.653 590.888L830.713 590.968L834.713 587.968ZM831.833 586L831.955 581.001L831.894 581H831.833V586ZM833.801 586.048L834.113 581.058L834.018 581.052L833.923 581.049L833.801 586.048ZM838.985 586.048L838.866 581.049L838.787 581.051L838.707 581.056L838.985 586.048ZM841.001 586V581H840.941L840.882 581.001L841.001 586ZM838.025 587.968L834.041 584.946L834.033 584.957L834.025 584.968L838.025 587.968ZM812.263 592.09L813.559 592.186L814.298 582.214L813.002 582.118L812.263 592.09ZM808.929 587.2V610.192H818.929V587.2H808.929ZM808.929 610.192C808.929 612.404 809.327 614.896 810.82 616.986L818.957 611.174C819.074 611.337 819.063 611.398 819.023 611.237C818.982 611.07 818.929 610.739 818.929 610.192H808.929ZM810.889 617.08C812.649 619.427 815.22 620.424 817.817 620.424V610.424C817.761 610.424 817.931 610.415 818.211 610.544C818.512 610.682 818.748 610.892 818.889 611.08L810.889 617.08ZM817.817 620.424C816.966 620.424 815.998 620.197 815.106 619.602C814.246 619.029 813.737 618.301 813.453 617.732C812.954 616.735 812.961 615.872 812.961 615.712H822.961C822.961 615.36 822.943 614.353 822.397 613.26C822.088 612.643 821.55 611.879 820.653 611.282C819.725 610.663 818.716 610.424 817.817 610.424V620.424ZM812.961 615.712C812.961 615.552 812.954 614.689 813.453 613.692C813.737 613.123 814.246 612.395 815.106 611.822C815.998 611.227 816.966 611 817.817 611V621C818.716 621 819.725 620.761 820.653 620.142C821.55 619.545 822.088 618.781 822.397 618.164C822.943 617.071 822.961 616.064 822.961 615.712H812.961ZM817.817 611C817.022 611 816.522 610.984 816.253 610.965L815.541 620.939C816.167 620.984 816.948 621 817.817 621V611ZM815.991 610.953L813.447 610.905L813.258 620.903L815.802 620.951L815.991 610.953ZM813.268 610.905L810.436 610.953L810.606 620.951L813.438 620.903L813.268 610.905ZM810.209 610.962C809.854 610.984 809.242 611 808.313 611V621C809.304 621 810.163 620.984 810.833 620.942L810.209 610.962ZM808.313 611C809.164 611 810.131 611.227 811.023 611.822C811.884 612.396 812.393 613.123 812.677 613.692C813.175 614.689 813.169 615.553 813.169 615.712H803.169C803.169 616.063 803.186 617.071 803.733 618.164C804.041 618.781 804.579 619.544 805.476 620.142C806.404 620.761 807.414 621 808.313 621V611ZM813.169 615.712C813.169 615.871 813.175 616.735 812.677 617.732C812.393 618.301 811.884 619.028 811.024 619.602C810.131 620.197 809.164 620.424 808.313 620.424V610.424C807.414 610.424 806.404 610.663 805.476 611.282C804.579 611.88 804.041 612.643 803.733 613.26C803.186 614.353 803.169 615.361 803.169 615.712H813.169ZM808.313 620.424C810.875 620.424 813.478 619.526 815.344 617.254L807.617 610.906C807.678 610.832 807.762 610.748 807.869 610.668C807.976 610.588 808.085 610.527 808.184 610.485C808.384 610.4 808.461 610.424 808.313 610.424V620.424ZM815.277 617.334C817.101 615.206 817.633 612.569 817.633 610.192H807.633C807.633 610.676 807.577 610.928 807.551 611.016C807.53 611.087 807.549 610.985 807.685 610.826L815.277 617.334ZM817.633 610.192V587.104H807.633V610.192H817.633ZM832.017 616.672C832.017 615.088 832.779 613.731 833.833 612.888C834.681 612.209 835.509 612.019 835.796 611.961L837.757 621.767C838.205 621.677 839.153 621.439 840.08 620.696C841.215 619.789 842.017 618.352 842.017 616.672H832.017ZM835.796 611.961C836.048 611.911 836.586 611.827 837.28 611.926C838.023 612.032 839.07 612.374 839.976 613.28L832.905 620.352C834.846 622.292 837.242 621.87 837.757 621.767L835.796 611.961ZM840.234 613.558L817.146 586.678L809.56 593.194L832.648 620.074L840.234 613.558ZM817.122 586.65C815.894 585.242 814.506 583.899 812.971 583.013L807.974 591.675C808.103 591.749 808.636 592.134 809.584 593.222L817.122 586.65ZM813.093 583.086C811.648 582.196 809.936 581.576 808.025 581.576V591.576C807.957 591.576 807.896 591.57 807.845 591.562C807.795 591.554 807.759 591.545 807.74 591.539C807.703 591.527 807.739 591.533 807.852 591.602L813.093 583.086ZM808.025 581.576C808.876 581.576 809.843 581.803 810.735 582.398C811.596 582.971 812.104 583.699 812.389 584.268C812.887 585.265 812.881 586.128 812.881 586.288H802.881C802.881 586.64 802.898 587.647 803.445 588.74C803.753 589.357 804.292 590.121 805.188 590.718C806.116 591.337 807.126 591.576 808.025 591.576V581.576ZM812.881 586.288C812.881 586.448 812.887 587.311 812.389 588.308C812.104 588.877 811.596 589.605 810.735 590.178C809.843 590.773 808.876 591 808.025 591V581C807.126 581 806.116 581.239 805.188 581.858C804.292 582.455 803.753 583.219 803.445 583.836C802.898 584.929 802.881 585.936 802.881 586.288H812.881ZM807.9 590.998L809.82 591.046L810.07 581.05L808.15 581.002L807.9 590.998ZM809.53 591.031C810.128 591.081 810.874 591.096 811.673 591.096V581.096C810.936 581.096 810.529 581.079 810.36 581.065L809.53 591.031ZM811.751 591.095L814.823 591.047L814.667 581.049L811.595 581.097L811.751 591.095ZM815.16 591.031C815.37 591.013 815.673 591 816.089 591V581C815.48 581 814.888 581.019 814.33 581.065L815.16 591.031ZM816.089 591C815.574 591 814.27 590.868 813.129 589.728L820.2 582.656C818.804 581.26 817.115 581 816.089 581V591ZM813.129 589.728C813.073 589.671 813.029 589.624 812.999 589.591C812.969 589.557 812.946 589.53 812.932 589.513C812.917 589.495 812.908 589.484 812.904 589.479C812.9 589.474 812.901 589.474 812.905 589.48C812.914 589.492 812.933 589.519 812.965 589.563C812.995 589.607 813.034 589.664 813.081 589.733L821.401 584.187C821.158 583.822 820.721 583.177 820.2 582.656L813.129 589.728ZM813.22 589.932C813.766 590.67 814.283 591.345 814.704 591.818L822.178 585.174C822.087 585.071 821.804 584.722 821.262 583.988L813.22 589.932ZM814.631 591.734L832.823 613.142L840.443 606.666L822.251 585.258L814.631 591.734ZM831.641 610.187L832.025 616.955L842.009 616.389L841.625 609.621L831.641 610.187ZM840.733 613.327L839.437 611.887L832.004 618.577L833.3 620.017L840.733 613.327ZM840.721 615.232V591.856H830.721V615.232H840.721ZM840.721 591.856C840.721 589.605 840.291 587.073 838.713 584.968L830.713 590.968C830.589 590.803 830.593 590.729 830.629 590.867C830.667 591.013 830.721 591.325 830.721 591.856H840.721ZM838.829 585.129C837.118 582.648 834.498 581.576 831.833 581.576V591.576C831.868 591.576 831.658 591.581 831.337 591.426C830.992 591.259 830.739 591.013 830.597 590.807L838.829 585.129ZM831.833 581.576C833.23 581.576 834.464 582.16 835.326 583.022C836.066 583.762 836.377 584.542 836.504 584.923C836.749 585.656 836.737 586.238 836.737 586.288H826.737C826.737 586.53 826.741 587.256 827.017 588.085C827.251 588.787 828.48 591.576 831.833 591.576V581.576ZM836.737 586.288C836.737 586.338 836.749 586.92 836.504 587.653C836.377 588.034 836.066 588.814 835.326 589.554C834.464 590.416 833.23 591 831.833 591V581C828.48 581 827.251 583.789 827.017 584.491C826.741 585.32 826.737 586.046 826.737 586.288H836.737ZM831.711 590.999L833.679 591.047L833.923 581.049L831.955 581.001L831.711 590.999ZM833.489 591.038C834.569 591.106 835.53 591.144 836.345 591.144V581.144C835.816 581.144 835.081 581.118 834.113 581.058L833.489 591.038ZM836.345 591.144C837.094 591.144 838.084 591.106 839.262 591.04L838.707 581.056C837.582 581.118 836.812 581.144 836.345 581.144V591.144ZM839.104 591.047L841.12 590.999L840.882 581.001L838.866 581.049L839.104 591.047ZM841.001 591C840.15 591 839.182 590.773 838.29 590.178C837.429 589.604 836.921 588.877 836.637 588.308C836.138 587.311 836.145 586.447 836.145 586.288H846.145C846.145 585.937 846.127 584.929 845.581 583.836C845.273 583.219 844.734 582.456 843.837 581.858C842.909 581.239 841.9 581 841.001 581V591ZM836.145 586.288C836.145 586.129 836.138 585.265 836.637 584.268C836.921 583.699 837.429 582.972 838.29 582.398C839.182 581.803 840.15 581.576 841.001 581.576V591.576C841.9 591.576 842.909 591.337 843.837 590.718C844.734 590.12 845.273 589.357 845.581 588.74C846.127 587.647 846.145 586.639 846.145 586.288H836.145ZM841.001 581.576C838.335 581.576 835.793 582.636 834.041 584.946L842.008 590.99C841.902 591.13 841.701 591.32 841.415 591.453C841.145 591.579 840.97 591.576 841.001 591.576V581.576ZM834.025 584.968C832.446 587.073 832.017 589.605 832.017 591.856H842.017C842.017 591.325 842.071 591.013 842.109 590.867C842.145 590.729 842.148 590.803 842.025 590.968L834.025 584.968ZM832.017 591.856V616.672H842.017V591.856H832.017Z" fill="#4F4F4F" mask="url(#path-12-inside-3_1_2)"/>
</g>
<g id="Vector_11">
<mask id="path-14-inside-4_1_2" fill="white">
<path d="M738.715 616C738.619 616 738.571 615.904 738.571 615.712C738.571 615.52 738.619 615.424 738.715 615.424C739.867 615.424 740.699 615.344 741.211 615.184C741.755 615.024 742.123 614.72 742.315 614.272C742.507 613.792 742.603 613.072 742.603 612.112V589.888C742.603 588.928 742.507 588.224 742.315 587.776C742.155 587.328 741.819 587.024 741.307 586.864C740.795 586.672 740.011 586.576 738.955 586.576C738.859 586.576 738.811 586.48 738.811 586.288C738.811 586.096 738.859 586 738.955 586H758.923C759.243 586 759.403 586.144 759.403 586.432L759.499 592.672C759.499 592.736 759.403 592.784 759.211 592.816C759.051 592.816 758.955 592.768 758.923 592.672C758.155 589.056 755.947 587.248 752.299 587.248H750.331C749.179 587.248 748.363 587.456 747.883 587.872C747.403 588.288 747.163 588.976 747.163 589.936V611.92C747.163 612.944 747.291 613.696 747.547 614.176C747.803 614.624 748.299 614.944 749.035 615.136C749.803 615.328 750.971 615.424 752.539 615.424C752.603 615.424 752.635 615.52 752.635 615.712C752.635 615.904 752.603 616 752.539 616C751.227 616 750.203 615.984 749.467 615.952L744.763 615.904L741.259 615.952C740.651 615.984 739.803 616 738.715 616ZM756.523 605.68C756.523 602.96 754.683 601.6 751.003 601.6H745.003V600.352H751.099C754.683 600.352 756.475 599.152 756.475 596.752C756.475 596.688 756.571 596.656 756.763 596.656C756.955 596.656 757.051 596.688 757.051 596.752L757.003 600.976C757.003 601.968 757.019 602.704 757.051 603.184L757.099 605.68C757.099 605.776 757.003 605.824 756.811 605.824C756.619 605.824 756.523 605.776 756.523 605.68Z"/>
</mask>
<path d="M741.211 615.184L739.8 610.387L739.76 610.399L739.72 610.412L741.211 615.184ZM742.315 614.272L746.911 616.242L746.935 616.186L746.957 616.129L742.315 614.272ZM742.315 587.776L737.606 589.458L737.658 589.603L737.719 589.746L742.315 587.776ZM741.307 586.864L739.551 591.546L739.682 591.595L739.816 591.636L741.307 586.864ZM759.403 586.432H754.403V586.47L754.404 586.509L759.403 586.432ZM759.499 592.672H764.499V592.634L764.498 592.595L759.499 592.672ZM759.211 592.816V597.816H759.625L760.033 597.748L759.211 592.816ZM758.923 592.672L754.032 593.711L754.091 593.986L754.18 594.253L758.923 592.672ZM747.547 614.176L743.135 616.529L743.17 616.593L743.206 616.657L747.547 614.176ZM749.035 615.136L747.773 619.974L747.798 619.981L747.822 619.987L749.035 615.136ZM749.467 615.952L749.684 610.957L749.601 610.953L749.518 610.952L749.467 615.952ZM744.763 615.904L744.814 610.904L744.754 610.904L744.695 610.904L744.763 615.904ZM741.259 615.952L741.191 610.952L741.093 610.954L740.996 610.959L741.259 615.952ZM745.003 601.6H740.003V606.6H745.003V601.6ZM745.003 600.352V595.352H740.003V600.352H745.003ZM757.051 596.752L762.051 596.809L762.051 596.78V596.752H757.051ZM757.003 600.976L752.003 600.919L752.003 600.948V600.976H757.003ZM757.051 603.184L762.05 603.088L762.048 602.97L762.04 602.851L757.051 603.184ZM757.099 605.68H762.099V605.632L762.098 605.584L757.099 605.68ZM738.715 611C739.566 611 740.533 611.227 741.425 611.822C742.286 612.395 742.794 613.123 743.079 613.692C743.578 614.689 743.571 615.552 743.571 615.712H733.571C733.571 616.064 733.589 617.071 734.135 618.164C734.444 618.781 734.982 619.545 735.879 620.142C736.807 620.761 737.816 621 738.715 621V611ZM743.571 615.712C743.571 615.872 743.578 616.735 743.079 617.732C742.794 618.301 742.286 619.029 741.425 619.602C740.534 620.197 739.566 620.424 738.715 620.424V610.424C737.816 610.424 736.807 610.663 735.879 611.282C734.982 611.879 734.444 612.643 734.135 613.26C733.589 614.353 733.571 615.36 733.571 615.712H743.571ZM738.715 620.424C739.93 620.424 741.415 620.359 742.702 619.956L739.72 610.412C739.838 610.375 739.902 610.364 739.888 610.367C739.878 610.369 739.827 610.377 739.724 610.387C739.514 610.407 739.186 610.424 738.715 610.424V620.424ZM742.622 619.981C744.335 619.477 746.032 618.291 746.911 616.242L737.719 612.302C737.93 611.811 738.268 611.347 738.711 610.981C739.136 610.629 739.543 610.463 739.8 610.387L742.622 619.981ZM746.957 616.129C747.509 614.749 747.603 613.258 747.603 612.112H737.603C737.603 612.437 737.586 612.627 737.575 612.711C737.57 612.75 737.569 612.743 737.579 612.7C737.589 612.659 737.616 612.557 737.673 612.415L746.957 616.129ZM747.603 612.112V589.888H737.603V612.112H747.603ZM747.603 589.888C747.603 588.78 747.52 587.227 746.911 585.806L737.719 589.746C737.643 589.566 737.606 589.434 737.59 589.373C737.575 589.309 737.573 589.286 737.577 589.316C737.581 589.343 737.588 589.404 737.593 589.504C737.599 589.603 737.603 589.73 737.603 589.888H747.603ZM747.024 586.094C746.263 583.965 744.59 582.651 742.798 582.092L739.816 591.636C739.506 591.54 739.047 591.334 738.588 590.92C738.114 590.49 737.789 589.97 737.606 589.458L747.024 586.094ZM743.063 582.182C741.682 581.665 740.159 581.576 738.955 581.576V591.576C739.343 591.576 739.591 591.594 739.727 591.611C739.792 591.619 739.809 591.624 739.787 591.619C739.768 591.615 739.683 591.595 739.551 591.546L743.063 582.182ZM738.955 581.576C739.806 581.576 740.774 581.803 741.666 582.398C742.526 582.972 743.035 583.699 743.319 584.268C743.818 585.265 743.811 586.129 743.811 586.288H733.811C733.811 586.639 733.828 587.647 734.375 588.74C734.683 589.357 735.222 590.12 736.118 590.718C737.046 591.337 738.056 591.576 738.955 591.576V581.576ZM743.811 586.288C743.811 586.447 743.818 587.311 743.319 588.308C743.035 588.877 742.526 589.604 741.666 590.178C740.774 590.773 739.806 591 738.955 591V581C738.056 581 737.046 581.239 736.118 581.858C735.222 582.456 734.683 583.219 734.375 583.836C733.828 584.929 733.811 585.937 733.811 586.288H743.811ZM738.955 591H758.923V581H738.955V591ZM758.923 591C758.435 591 757.135 590.902 755.938 589.824C754.641 588.657 754.403 587.203 754.403 586.432H764.403C764.403 585.373 764.085 583.703 762.628 582.392C761.271 581.17 759.731 581 758.923 581V591ZM754.404 586.509L754.5 592.749L764.498 592.595L764.402 586.355L754.404 586.509ZM754.499 592.672C754.499 589.752 756.763 588.498 757.191 588.284C757.813 587.973 758.324 587.895 758.389 587.884L760.033 597.748C760.29 597.705 760.945 597.587 761.663 597.228C762.187 596.966 764.499 595.656 764.499 592.672H754.499ZM759.211 587.816C759.558 587.816 760.352 587.856 761.255 588.308C762.313 588.837 763.236 589.799 763.666 591.091L754.18 594.253C755.262 597.5 758.362 597.816 759.211 597.816V587.816ZM763.814 591.633C763.264 589.046 762.073 586.549 759.859 584.735C757.637 582.916 754.951 582.248 752.299 582.248V592.248C752.803 592.248 753.117 592.311 753.29 592.364C753.45 592.414 753.507 592.46 753.523 592.473C753.54 592.486 753.603 592.54 753.694 592.704C753.79 592.88 753.923 593.194 754.032 593.711L763.814 591.633ZM752.299 582.248H750.331V592.248H752.299V582.248ZM750.331 582.248C748.849 582.248 746.491 582.462 744.608 584.094L751.158 591.65C750.651 592.09 750.2 592.221 750.09 592.249C749.977 592.278 750.03 592.248 750.331 592.248V582.248ZM744.608 584.094C742.572 585.858 742.163 588.273 742.163 589.936H752.163C752.163 589.679 752.234 590.718 751.158 591.65L744.608 584.094ZM742.163 589.936V611.92H752.163V589.936H742.163ZM742.163 611.92C742.163 613.16 742.284 614.933 743.135 616.529L751.959 611.823C752.066 612.025 752.124 612.186 752.153 612.277C752.181 612.37 752.189 612.42 752.188 612.413C752.187 612.407 752.18 612.365 752.174 612.278C752.168 612.191 752.163 612.073 752.163 611.92H742.163ZM743.206 616.657C744.39 618.729 746.351 619.603 747.773 619.974L750.297 610.298C750.302 610.299 750.516 610.353 750.822 610.551C751.15 610.762 751.565 611.129 751.888 611.695L743.206 616.657ZM747.822 619.987C749.207 620.333 750.879 620.424 752.539 620.424V610.424C751.849 610.424 751.308 610.403 750.897 610.369C750.693 610.352 750.537 610.334 750.422 610.316C750.365 610.308 750.322 610.3 750.292 610.295C750.261 610.289 750.247 610.285 750.248 610.285L747.822 619.987ZM752.539 620.424C751.142 620.424 749.908 619.84 749.046 618.978C748.306 618.238 747.995 617.458 747.868 617.077C747.623 616.344 747.635 615.762 747.635 615.712H757.635C757.635 615.47 757.631 614.744 757.354 613.915C757.121 613.213 755.892 610.424 752.539 610.424V620.424ZM747.635 615.712C747.635 615.662 747.623 615.08 747.868 614.347C747.995 613.966 748.306 613.186 749.046 612.446C749.908 611.584 751.142 611 752.539 611V621C755.892 621 757.121 618.211 757.354 617.509C757.631 616.68 757.635 615.954 757.635 615.712H747.635ZM752.539 611C751.253 611 750.313 610.984 749.684 610.957L749.25 620.947C750.093 620.984 751.201 621 752.539 621V611ZM749.518 610.952L744.814 610.904L744.712 620.904L749.416 620.952L749.518 610.952ZM744.695 610.904L741.191 610.952L741.328 620.952L744.832 620.904L744.695 610.904ZM740.996 610.959C740.518 610.984 739.772 611 738.715 611V621C739.834 621 740.784 620.984 741.522 620.945L740.996 610.959ZM761.523 605.68C761.523 603.072 760.56 600.406 758.115 598.599C755.953 597.001 753.313 596.6 751.003 596.6V606.6C751.631 606.6 752.018 606.66 752.222 606.71C752.421 606.759 752.354 606.776 752.171 606.641C752.078 606.572 751.97 606.474 751.865 606.345C751.76 606.216 751.678 606.08 751.62 605.951C751.503 605.691 751.523 605.559 751.523 605.68H761.523ZM751.003 596.6H745.003V606.6H751.003V596.6ZM750.003 601.6V600.352H740.003V601.6H750.003ZM745.003 605.352H751.099V595.352H745.003V605.352ZM751.099 605.352C753.292 605.352 755.812 605.014 757.913 603.607C760.369 601.962 761.475 599.399 761.475 596.752H751.475C751.475 596.727 751.482 596.463 751.663 596.099C751.855 595.714 752.129 595.445 752.349 595.297C752.536 595.172 752.59 595.196 752.362 595.247C752.136 595.298 751.732 595.352 751.099 595.352V605.352ZM761.475 596.752C761.475 598.149 760.891 599.383 760.029 600.245C759.289 600.985 758.509 601.296 758.128 601.423C757.395 601.668 756.813 601.656 756.763 601.656V591.656C756.521 591.656 755.796 591.66 754.966 591.937C754.264 592.17 751.475 593.399 751.475 596.752H761.475ZM756.763 601.656C756.713 601.656 756.132 601.668 755.398 601.423C755.017 601.296 754.237 600.985 753.497 600.245C752.635 599.383 752.051 598.149 752.051 596.752H762.051C762.051 593.399 759.262 592.17 758.56 591.937C757.731 591.66 757.005 591.656 756.763 591.656V601.656ZM752.051 596.695L752.003 600.919L762.003 601.033L762.051 596.809L752.051 596.695ZM752.003 600.976C752.003 601.989 752.019 602.862 752.062 603.517L762.04 602.851C762.02 602.546 762.003 601.947 762.003 600.976H752.003ZM752.052 603.28L752.1 605.776L762.098 605.584L762.05 603.088L752.052 603.28ZM752.099 605.68C752.099 604.829 752.326 603.862 752.921 602.97C753.495 602.109 754.222 601.6 754.791 601.316C755.788 600.817 756.652 600.824 756.811 600.824V610.824C757.162 610.824 758.17 610.807 759.263 610.26C759.88 609.952 760.644 609.413 761.241 608.516C761.86 607.588 762.099 606.579 762.099 605.68H752.099ZM756.811 600.824C756.97 600.824 757.834 600.817 758.831 601.316C759.4 601.6 760.128 602.109 760.701 602.97C761.296 603.862 761.523 604.829 761.523 605.68H751.523C751.523 606.579 751.762 607.588 752.381 608.516C752.979 609.413 753.742 609.952 754.359 610.26C755.452 610.807 756.46 610.824 756.811 610.824V600.824Z" fill="#4F4F4F" mask="url(#path-14-inside-4_1_2)"/>
</g>
<path id="Vector_12" d="M688.377 599.296C688.377 602.047 688.743 604.628 689.502 607.018C688.665 605.176 688.241 603.188 688.241 601.024C688.241 600.294 688.288 599.6 688.379 598.942C688.378 599.059 688.377 599.177 688.377 599.296ZM715.305 600.688C715.305 601.353 715.258 602 715.164 602.631C715.167 602.448 715.169 602.265 715.169 602.08C715.169 599.912 714.928 597.862 714.427 595.946C715.014 597.462 715.305 599.038 715.305 600.688Z" stroke="#4F4F4F" stroke-width="5"/>
<g id="Vector_13">
<mask id="path-17-inside-5_1_2" fill="white">
<path d="M614.305 616C614.209 616 614.161 615.904 614.161 615.712C614.161 615.52 614.209 615.424 614.305 615.424C615.393 615.424 616.177 615.344 616.657 615.184C617.169 615.024 617.505 614.72 617.665 614.272C617.857 613.792 617.953 613.072 617.953 612.112V589.888C617.953 588.928 617.857 588.224 617.665 587.776C617.505 587.328 617.169 587.024 616.657 586.864C616.145 586.672 615.361 586.576 614.305 586.576C614.209 586.576 614.161 586.48 614.161 586.288C614.161 586.096 614.209 586 614.305 586H634.273C634.593 586 634.753 586.144 634.753 586.432L634.849 592.672C634.849 592.736 634.753 592.784 634.561 592.816C634.401 592.816 634.305 592.768 634.273 592.672C633.505 589.056 631.297 587.248 627.649 587.248H625.681C624.497 587.248 623.665 587.456 623.185 587.872C622.737 588.288 622.513 588.992 622.513 589.984V611.92C622.513 612.976 622.705 613.712 623.089 614.128C623.505 614.544 624.225 614.752 625.249 614.752H627.601C631.889 614.752 634.609 612.688 635.761 608.56C635.761 608.496 635.841 608.464 636.001 608.464C636.225 608.464 636.337 608.512 636.337 608.608C636.017 611.04 635.857 613.264 635.857 615.28C635.857 615.536 635.809 615.728 635.713 615.856C635.617 615.952 635.425 616 635.137 616H614.305ZM632.449 605.152C632.449 602.4 630.657 601.024 627.073 601.024H620.353V599.776H627.121C630.641 599.776 632.401 598.592 632.401 596.224C632.401 596.128 632.481 596.08 632.641 596.08C632.833 596.08 632.929 596.128 632.929 596.224L632.881 600.4L632.929 602.656C632.993 603.68 633.025 604.512 633.025 605.152C633.025 605.216 632.929 605.248 632.737 605.248C632.545 605.248 632.449 605.216 632.449 605.152Z"/>
</mask>
<path d="M616.657 615.184L615.166 610.412L615.121 610.426L615.076 610.441L616.657 615.184ZM617.665 614.272L613.023 612.415L612.988 612.502L612.956 612.59L617.665 614.272ZM617.665 587.776L612.956 589.458L613.008 589.603L613.069 589.746L617.665 587.776ZM616.657 586.864L614.901 591.546L615.032 591.595L615.166 591.636L616.657 586.864ZM634.753 586.432H629.753V586.47L629.754 586.509L634.753 586.432ZM634.849 592.672H639.849V592.634L639.848 592.595L634.849 592.672ZM634.561 592.816V597.816H634.975L635.383 597.748L634.561 592.816ZM634.273 592.672L629.382 593.711L629.441 593.986L629.53 594.253L634.273 592.672ZM623.185 587.872L619.91 584.094L619.846 584.15L619.783 584.208L623.185 587.872ZM623.089 614.128L619.415 617.519L619.483 617.593L619.554 617.664L623.089 614.128ZM635.761 608.56L640.577 609.904L640.761 609.245V608.56H635.761ZM636.337 608.608L641.294 609.26L641.337 608.936V608.608H636.337ZM635.713 615.856L639.249 619.392L639.5 619.14L639.713 618.856L635.713 615.856ZM620.353 601.024H615.353V606.024H620.353V601.024ZM620.353 599.776V594.776H615.353V599.776H620.353ZM632.929 596.224L637.929 596.281L637.929 596.253V596.224H632.929ZM632.881 600.4L627.881 600.343L627.88 600.424L627.882 600.506L632.881 600.4ZM632.929 602.656L627.93 602.762L627.932 602.865L627.939 602.968L632.929 602.656ZM614.305 611C615.156 611 616.124 611.227 617.015 611.822C617.876 612.395 618.384 613.123 618.669 613.692C619.168 614.689 619.161 615.552 619.161 615.712H609.161C609.161 616.064 609.179 617.071 609.725 618.164C610.034 618.781 610.572 619.545 611.469 620.142C612.397 620.761 613.406 621 614.305 621V611ZM619.161 615.712C619.161 615.872 619.168 616.735 618.669 617.732C618.385 618.301 617.876 619.029 617.015 619.602C616.124 620.197 615.156 620.424 614.305 620.424V610.424C613.406 610.424 612.397 610.663 611.469 611.282C610.572 611.879 610.034 612.643 609.725 613.26C609.179 614.353 609.161 615.36 609.161 615.712H619.161ZM614.305 620.424C615.458 620.424 616.939 620.361 618.238 619.927L615.076 610.441C615.216 610.394 615.302 610.378 615.307 610.377C615.317 610.375 615.285 610.381 615.202 610.39C615.028 610.408 614.738 610.424 614.305 610.424V620.424ZM618.148 619.956C619.94 619.397 621.613 618.083 622.374 615.954L612.956 612.59C613.139 612.078 613.464 611.557 613.939 611.128C614.397 610.714 614.856 610.508 615.166 610.412L618.148 619.956ZM622.307 616.129C622.859 614.749 622.953 613.258 622.953 612.112H612.953C612.953 612.437 612.936 612.627 612.925 612.711C612.92 612.75 612.919 612.743 612.929 612.7C612.939 612.659 612.966 612.557 613.023 612.415L622.307 616.129ZM622.953 612.112V589.888H612.953V612.112H622.953ZM622.953 589.888C622.953 588.78 622.87 587.227 622.261 585.806L613.069 589.746C612.993 589.566 612.956 589.434 612.94 589.373C612.925 589.309 612.923 589.286 612.927 589.316C612.931 589.343 612.938 589.404 612.943 589.504C612.949 589.603 612.953 589.73 612.953 589.888H622.953ZM622.374 586.094C621.613 583.965 619.94 582.651 618.148 582.092L615.166 591.636C614.856 591.54 614.397 591.334 613.939 590.92C613.464 590.491 613.139 589.97 612.956 589.458L622.374 586.094ZM618.413 582.182C617.032 581.665 615.509 581.576 614.305 581.576V591.576C614.693 591.576 614.941 591.594 615.077 591.611C615.142 591.619 615.159 591.624 615.137 591.619C615.118 591.615 615.033 591.595 614.901 591.546L618.413 582.182ZM614.305 581.576C615.156 581.576 616.124 581.803 617.015 582.398C617.876 582.971 618.384 583.699 618.669 584.268C619.168 585.265 619.161 586.128 619.161 586.288H609.161C609.161 586.64 609.179 587.647 609.725 588.74C610.034 589.357 610.572 590.121 611.469 590.718C612.397 591.337 613.406 591.576 614.305 591.576V581.576ZM619.161 586.288C619.161 586.448 619.168 587.311 618.669 588.308C618.384 588.877 617.876 589.605 617.015 590.178C616.124 590.773 615.156 591 614.305 591V581C613.406 581 612.397 581.239 611.469 581.858C610.572 582.455 610.034 583.219 609.725 583.836C609.179 584.929 609.161 585.936 609.161 586.288H619.161ZM614.305 591H634.273V581H614.305V591ZM634.273 591C633.785 591 632.485 590.902 631.288 589.824C629.991 588.657 629.753 587.203 629.753 586.432H639.753C639.753 585.373 639.435 583.703 637.978 582.392C636.621 581.17 635.081 581 634.273 581V591ZM629.754 586.509L629.85 592.749L639.848 592.595L639.752 586.355L629.754 586.509ZM629.849 592.672C629.849 589.752 632.113 588.498 632.541 588.284C633.163 587.973 633.674 587.895 633.739 587.884L635.383 597.748C635.64 597.705 636.295 597.587 637.013 597.228C637.537 596.966 639.849 595.656 639.849 592.672H629.849ZM634.561 587.816C634.908 587.816 635.702 587.856 636.605 588.308C637.663 588.837 638.586 589.799 639.017 591.091L629.53 594.253C630.612 597.5 633.712 597.816 634.561 597.816V587.816ZM639.164 591.633C638.614 589.046 637.423 586.549 635.209 584.735C632.987 582.916 630.301 582.248 627.649 582.248V592.248C628.153 592.248 628.467 592.311 628.64 592.364C628.8 592.414 628.857 592.46 628.873 592.473C628.89 592.486 628.953 592.54 629.044 592.704C629.14 592.88 629.273 593.194 629.382 593.711L639.164 591.633ZM627.649 582.248H625.681V592.248H627.649V582.248ZM625.681 582.248C624.21 582.248 621.81 582.447 619.91 584.094L626.46 591.65C625.936 592.105 625.474 592.232 625.382 592.255C625.283 592.279 625.355 592.248 625.681 592.248V582.248ZM619.783 584.208C617.832 586.019 617.513 588.439 617.513 589.984H627.513C627.513 589.838 627.533 589.954 627.446 590.228C627.351 590.527 627.114 591.046 626.587 591.536L619.783 584.208ZM617.513 589.984V611.92H627.513V589.984H617.513ZM617.513 611.92C617.513 613.267 617.695 615.656 619.415 617.519L626.763 610.737C627.286 611.303 627.452 611.837 627.495 612.002C627.539 612.171 627.513 612.174 627.513 611.92H617.513ZM619.554 617.664C621.398 619.508 623.81 619.752 625.249 619.752V609.752C625.048 609.752 625.107 609.728 625.329 609.792C625.563 609.86 626.093 610.061 626.625 610.592L619.554 617.664ZM625.249 619.752H627.601V609.752H625.249V619.752ZM627.601 619.752C630.553 619.752 633.448 619.032 635.88 617.187C638.311 615.342 639.784 612.747 640.577 609.904L630.945 607.216C630.587 608.501 630.123 609.002 629.835 609.221C629.546 609.44 628.937 609.752 627.601 609.752V619.752ZM640.761 608.56C640.761 609.683 640.376 610.809 639.617 611.719C638.932 612.541 638.151 612.941 637.678 613.13C636.818 613.474 636.107 613.464 636.001 613.464V603.464C635.735 603.464 634.904 603.47 633.964 603.846C633.451 604.051 632.64 604.471 631.935 605.317C631.157 606.251 630.761 607.405 630.761 608.56H640.761ZM636.001 613.464C635.909 613.464 635.173 613.477 634.284 613.096C633.785 612.882 633.02 612.451 632.369 611.615C631.663 610.707 631.337 609.633 631.337 608.608H641.337C641.337 607.535 640.997 606.419 640.263 605.475C639.584 604.603 638.777 604.142 638.223 603.904C637.222 603.475 636.318 603.464 636.001 603.464V613.464ZM631.38 607.956C631.037 610.559 630.857 613.005 630.857 615.28H640.857C640.857 613.523 640.997 611.521 641.294 609.26L631.38 607.956ZM630.857 615.28C630.857 615.112 630.871 614.8 630.97 614.403C631.071 614.001 631.279 613.435 631.713 612.856L639.713 618.856C640.744 617.481 640.857 616.017 640.857 615.28H630.857ZM632.178 612.32C632.999 611.499 633.879 611.215 634.284 611.113C634.72 611.004 635.04 611 635.137 611V621C635.522 621 636.082 620.972 636.71 620.815C637.307 620.665 638.331 620.309 639.249 619.392L632.178 612.32ZM635.137 611H614.305V621H635.137V611ZM637.449 605.152C637.449 602.6 636.55 599.933 634.15 598.09C632.001 596.44 629.365 596.024 627.073 596.024V606.024C627.665 606.024 628.016 606.083 628.185 606.126C628.348 606.167 628.256 606.172 628.06 606.022C627.961 605.946 627.854 605.844 627.753 605.715C627.653 605.586 627.578 605.455 627.527 605.337C627.424 605.101 627.449 605 627.449 605.152H637.449ZM627.073 596.024H620.353V606.024H627.073V596.024ZM625.353 601.024V599.776H615.353V601.024H625.353ZM620.353 604.776H627.121V594.776H620.353V604.776ZM627.121 604.776C629.285 604.776 631.785 604.441 633.872 603.037C636.311 601.396 637.401 598.845 637.401 596.224H627.401C627.401 596.194 627.409 595.926 627.591 595.558C627.784 595.169 628.061 594.893 628.29 594.739C628.486 594.608 628.551 594.627 628.337 594.675C628.125 594.723 627.737 594.776 627.121 594.776V604.776ZM637.401 596.224C637.401 596.908 637.253 597.75 636.787 598.589C636.317 599.435 635.664 600.025 635.034 600.403C633.922 601.071 632.898 601.08 632.641 601.08V591.08C632.224 591.08 631.08 591.113 629.889 591.829C628.29 592.788 627.401 594.482 627.401 596.224H637.401ZM632.641 601.08C632.482 601.08 631.618 601.087 630.621 600.588C630.052 600.304 629.325 599.795 628.751 598.934C628.156 598.042 627.929 597.075 627.929 596.224H637.929C637.929 595.325 637.69 594.316 637.071 593.388C636.474 592.491 635.71 591.952 635.093 591.644C634 591.097 632.992 591.08 632.641 591.08V601.08ZM627.929 596.167L627.881 600.343L637.881 600.457L637.929 596.281L627.929 596.167ZM627.882 600.506L627.93 602.762L637.928 602.55L637.88 600.294L627.882 600.506ZM627.939 602.968C628 603.942 628.025 604.659 628.025 605.152H638.025C638.025 604.365 637.986 603.418 637.919 602.344L627.939 602.968ZM628.025 605.152C628.025 603.755 628.609 602.521 629.472 601.658C630.211 600.919 630.991 600.607 631.372 600.481C632.106 600.236 632.687 600.248 632.737 600.248V610.248C632.979 610.248 633.705 610.244 634.534 609.967C635.235 609.734 638.025 608.506 638.025 605.152H628.025ZM632.737 600.248C632.787 600.248 633.369 600.236 634.102 600.481C634.483 600.608 635.263 600.919 636.003 601.659C636.865 602.521 637.449 603.755 637.449 605.152H627.449C627.449 608.505 630.238 609.734 630.94 609.967C631.77 610.244 632.495 610.248 632.737 610.248V600.248Z" fill="#4F4F4F" mask="url(#path-17-inside-5_1_2)"/>
</g>
<g id="Vector_14">
<mask id="path-19-inside-6_1_2" fill="white">
<path d="M579.033 591.088C579.033 592.272 579.321 593.328 579.897 594.256C580.505 595.152 581.241 595.936 582.105 596.608C582.969 597.248 584.153 598.048 585.657 599.008C587.289 600.032 588.569 600.912 589.497 601.648C590.457 602.384 591.273 603.296 591.945 604.384C592.617 605.44 592.953 606.688 592.953 608.128C592.953 609.76 592.521 611.216 591.657 612.496C590.825 613.776 589.625 614.784 588.057 615.52C586.521 616.224 584.761 616.576 582.777 616.576C581.433 616.576 580.041 616.4 578.601 616.048C577.193 615.696 576.121 615.264 575.385 614.752C575.097 614.56 574.937 614.256 574.905 613.84L574.617 606.592V606.544C574.617 606.416 574.697 606.352 574.857 606.352C575.017 606.32 575.113 606.368 575.145 606.496C576.201 609.12 577.401 611.28 578.745 612.976C580.121 614.672 581.849 615.52 583.929 615.52C585.337 615.52 586.505 615.152 587.433 614.416C588.361 613.648 588.825 612.384 588.825 610.624C588.825 609.216 588.505 607.984 587.865 606.928C587.257 605.872 586.489 604.992 585.561 604.288C584.665 603.584 583.433 602.72 581.865 601.696C580.329 600.704 579.129 599.872 578.265 599.2C577.401 598.496 576.665 597.648 576.057 596.656C575.449 595.632 575.145 594.448 575.145 593.104C575.145 591.44 575.609 590.032 576.537 588.88C577.465 587.728 578.665 586.88 580.137 586.336C581.641 585.76 583.209 585.472 584.841 585.472C585.897 585.472 586.969 585.584 588.057 585.808C589.145 586 590.073 586.256 590.841 586.576C591.321 586.768 591.561 587.072 591.561 587.488L591.657 593.968C591.657 594.096 591.577 594.176 591.417 594.208C591.289 594.24 591.193 594.208 591.129 594.112C590.489 592.16 589.625 590.4 588.537 588.832C587.481 587.232 585.881 586.432 583.737 586.432C582.297 586.432 581.145 586.864 580.281 587.728C579.449 588.56 579.033 589.68 579.033 591.088Z"/>
</mask>
<path d="M579.897 594.256L575.649 596.893L575.702 596.979L575.76 597.063L579.897 594.256ZM582.105 596.608L579.035 600.555L579.082 600.591L579.129 600.626L582.105 596.608ZM585.657 599.008L582.967 603.223L582.983 603.233L582.999 603.243L585.657 599.008ZM589.497 601.648L586.39 605.565L586.422 605.591L586.455 605.616L589.497 601.648ZM591.945 604.384L587.691 607.011L587.709 607.04L587.727 607.068L591.945 604.384ZM591.657 612.496L587.513 609.699L587.488 609.735L587.465 609.771L591.657 612.496ZM588.057 615.52L590.14 620.065L590.161 620.056L590.181 620.046L588.057 615.52ZM578.601 616.048L577.388 620.899L577.401 620.902L577.414 620.905L578.601 616.048ZM575.385 614.752L578.24 610.647L578.2 610.619L578.158 610.592L575.385 614.752ZM574.905 613.84L569.909 614.039L569.913 614.131L569.92 614.223L574.905 613.84ZM574.617 606.592H569.617V606.691L569.621 606.791L574.617 606.592ZM574.857 606.352V611.352H575.352L575.838 611.255L574.857 606.352ZM575.145 606.496L570.294 607.709L570.378 608.043L570.506 608.363L575.145 606.496ZM578.745 612.976L574.826 616.081L574.844 616.104L574.862 616.126L578.745 612.976ZM587.433 614.416L590.54 618.333L590.581 618.301L590.621 618.268L587.433 614.416ZM587.865 606.928L583.532 609.423L583.56 609.471L583.589 609.519L587.865 606.928ZM585.561 604.288L582.472 608.22L582.505 608.246L582.539 608.271L585.561 604.288ZM581.865 601.696L584.599 597.51L584.588 597.503L584.578 597.496L581.865 601.696ZM578.265 599.2L575.107 603.076L575.151 603.112L575.195 603.147L578.265 599.2ZM576.057 596.656L571.758 599.209L571.776 599.239L571.794 599.269L576.057 596.656ZM576.537 588.88L580.431 592.017L580.431 592.017L576.537 588.88ZM580.137 586.336L581.87 591.026L581.898 591.016L581.925 591.005L580.137 586.336ZM588.057 585.808L587.049 590.705L587.118 590.72L587.188 590.732L588.057 585.808ZM590.841 586.576L588.918 591.191L588.951 591.205L588.984 591.218L590.841 586.576ZM591.561 587.488H586.561V587.525L586.561 587.562L591.561 587.488ZM591.657 593.968H596.657V593.931L596.656 593.894L591.657 593.968ZM591.417 594.208L590.436 589.305L590.32 589.328L590.204 589.357L591.417 594.208ZM591.129 594.112L586.378 595.67L586.59 596.318L586.969 596.885L591.129 594.112ZM588.537 588.832L584.364 591.586L584.396 591.635L584.429 591.682L588.537 588.832ZM580.281 587.728L576.745 584.192L580.281 587.728ZM574.033 591.088C574.033 593.123 574.54 595.107 575.649 596.893L584.145 591.619C584.102 591.549 584.033 591.421 584.033 591.088H574.033ZM575.76 597.063C576.665 598.398 577.762 599.565 579.035 600.555L585.175 592.661C584.719 592.307 584.345 591.906 584.034 591.448L575.76 597.063ZM579.129 600.626C580.126 601.365 581.42 602.235 582.967 603.223L588.347 594.793C586.886 593.861 585.812 593.131 585.081 592.59L579.129 600.626ZM582.999 603.243C584.559 604.222 585.666 604.992 586.39 605.565L592.604 597.73C591.471 596.832 590.019 595.842 588.314 594.773L582.999 603.243ZM586.455 605.616C586.906 605.962 587.32 606.41 587.691 607.011L596.199 601.757C595.226 600.182 594.008 598.806 592.539 597.68L586.455 605.616ZM587.727 607.068C587.815 607.207 587.953 607.493 587.953 608.128H597.953C597.953 605.883 597.419 603.673 596.163 601.7L587.727 607.068ZM587.953 608.128C587.953 608.823 587.786 609.293 587.513 609.699L595.801 615.293C597.255 613.139 597.953 610.697 597.953 608.128H587.953ZM587.465 609.771C587.206 610.168 586.773 610.599 585.932 610.994L590.181 620.046C592.477 618.969 594.443 617.384 595.849 615.221L587.465 609.771ZM585.974 610.975C585.195 611.331 584.166 611.576 582.777 611.576V621.576C585.356 621.576 587.846 621.117 590.14 620.065L585.974 610.975ZM582.777 611.576C581.872 611.576 580.879 611.458 579.788 611.191L577.414 620.905C579.203 621.342 580.994 621.576 582.777 621.576V611.576ZM579.814 611.197C579.279 611.064 578.886 610.934 578.61 610.822C578.327 610.709 578.227 610.638 578.24 610.647L572.53 618.857C573.976 619.863 575.71 620.479 577.388 620.899L579.814 611.197ZM578.158 610.592C578.704 610.955 579.162 611.459 579.474 612.051C579.772 612.617 579.865 613.127 579.89 613.457L569.92 614.223C570.043 615.821 570.779 617.69 572.611 618.912L578.158 610.592ZM579.901 613.641L579.613 606.393L569.621 606.791L569.909 614.039L579.901 613.641ZM579.617 606.592V606.544H569.617V606.592H579.617ZM579.617 606.544C579.617 607.584 579.237 609.155 577.8 610.304C576.577 611.283 575.311 611.352 574.857 611.352V601.352C574.243 601.352 572.857 601.453 571.554 602.496C570.037 603.709 569.617 605.376 569.617 606.544H579.617ZM575.838 611.255C575.366 611.349 574.159 611.509 572.813 610.836C571.261 610.06 570.544 608.707 570.294 607.709L579.996 605.283C579.714 604.157 578.933 602.716 577.285 601.892C575.843 601.171 574.508 601.323 573.876 601.449L575.838 611.255ZM570.506 608.363C571.69 611.304 573.109 613.914 574.826 616.081L582.664 609.871C581.693 608.646 580.712 606.936 579.783 604.629L570.506 608.363ZM574.862 616.126C577.133 618.925 580.257 620.52 583.929 620.52V610.52C583.441 610.52 583.109 610.419 582.628 609.826L574.862 616.126ZM583.929 620.52C586.244 620.52 588.569 619.897 590.54 618.333L584.326 610.498C584.357 610.474 584.38 610.468 584.358 610.475C584.327 610.485 584.198 610.52 583.929 610.52V620.52ZM590.621 618.268C593.148 616.176 593.825 613.166 593.825 610.624H583.825C583.825 610.847 583.81 611 583.796 611.093C583.782 611.185 583.77 611.204 583.783 611.169C583.797 611.131 583.836 611.04 583.917 610.921C584 610.8 584.11 610.675 584.245 610.564L590.621 618.268ZM593.825 610.624C593.825 608.433 593.318 606.279 592.141 604.336L583.589 609.519C583.692 609.689 583.825 609.999 583.825 610.624H593.825ZM592.198 604.433C591.272 602.826 590.067 601.431 588.583 600.305L582.539 608.271C582.91 608.553 583.241 608.918 583.532 609.423L592.198 604.433ZM588.65 600.356C587.59 599.524 586.222 598.57 584.599 597.51L579.131 605.882C580.644 606.87 581.74 607.644 582.472 608.22L588.65 600.356ZM584.578 597.496C583.095 596.538 582.033 595.796 581.335 595.253L575.195 603.147C576.225 603.948 577.563 604.87 579.152 605.896L584.578 597.496ZM581.423 595.324C581.015 594.991 580.647 594.576 580.32 594.043L571.794 599.269C572.683 600.72 573.787 602.001 575.107 603.076L581.423 595.324ZM580.356 594.103C580.264 593.947 580.145 593.668 580.145 593.104H570.145C570.145 595.228 570.634 597.317 571.758 599.209L580.356 594.103ZM580.145 593.104C580.145 592.43 580.308 592.169 580.431 592.017L572.643 585.743C570.91 587.895 570.145 590.45 570.145 593.104H580.145ZM580.431 592.017C580.757 591.611 581.192 591.277 581.87 591.026L578.404 581.646C576.138 582.483 574.173 583.845 572.643 585.743L580.431 592.017ZM581.925 591.005C582.851 590.651 583.812 590.472 584.841 590.472V580.472C582.606 580.472 580.431 580.869 578.349 581.667L581.925 591.005ZM584.841 590.472C585.541 590.472 586.275 590.546 587.049 590.705L589.065 580.911C587.663 580.622 586.253 580.472 584.841 580.472V590.472ZM587.188 590.732C588.024 590.88 588.578 591.05 588.918 591.191L592.764 581.961C591.567 581.462 590.265 581.12 588.926 580.884L587.188 590.732ZM588.984 591.218C588.674 591.095 588.031 590.773 587.456 590.046C586.827 589.248 586.561 588.315 586.561 587.488H596.561C596.561 586.245 596.175 584.952 595.305 583.85C594.491 582.819 593.488 582.249 592.698 581.934L588.984 591.218ZM586.561 587.562L586.658 594.042L596.656 593.894L596.56 587.414L586.561 587.562ZM586.657 593.968C586.657 592.896 587.038 591.612 588.061 590.588C588.965 589.685 589.956 589.401 590.436 589.305L592.398 599.111C593.038 598.983 594.149 598.643 595.132 597.66C596.236 596.556 596.657 595.168 596.657 593.968H586.657ZM590.204 589.357C590.787 589.212 591.74 589.101 592.83 589.465C593.982 589.849 594.795 590.597 595.289 591.338L586.969 596.885C587.527 597.722 588.42 598.535 589.668 598.951C590.854 599.347 591.919 599.236 592.63 599.059L590.204 589.357ZM595.88 592.554C595.101 590.177 594.029 587.976 592.645 585.982L584.429 591.682C585.221 592.824 585.877 594.142 586.378 595.67L595.88 592.554ZM592.71 586.078C590.607 582.891 587.327 581.432 583.737 581.432V591.432C583.963 591.432 584.112 591.453 584.198 591.472C584.241 591.481 584.27 591.49 584.286 591.495C584.294 591.498 584.3 591.5 584.304 591.502C584.307 591.503 584.309 591.504 584.309 591.504C584.309 591.504 584.308 591.504 584.306 591.502C584.304 591.501 584.302 591.5 584.299 591.498C584.297 591.497 584.295 591.495 584.293 591.494C584.291 591.492 584.291 591.492 584.291 591.492C584.291 591.492 584.297 591.497 584.308 591.511C584.32 591.525 584.339 591.549 584.364 591.586L592.71 586.078ZM583.737 581.432C581.226 581.432 578.713 582.225 576.745 584.192L583.816 591.264C583.785 591.295 583.741 591.332 583.687 591.367C583.633 591.402 583.584 591.424 583.549 591.438C583.476 591.465 583.516 591.432 583.737 591.432V581.432ZM576.745 584.192C574.795 586.143 574.033 588.633 574.033 591.088H584.033C584.033 590.874 584.064 590.846 584.032 590.933C584.016 590.976 583.989 591.034 583.948 591.099C583.906 591.164 583.86 591.22 583.816 591.264L576.745 584.192Z" fill="#4F4F4F" mask="url(#path-19-inside-6_1_2)"/>
</g>
<path id="Vector_15" d="M532.153 586.831L532.163 586.858L532.153 586.831ZM532.153 586.831L532.155 586.868L532.132 586.775L532.117 586.048L532.153 586.831Z" stroke="#4F4F4F" stroke-width="5"/>
<path id="Vector_16" d="M472.611 599.296C472.611 602.047 472.977 604.628 473.736 607.018C472.899 605.176 472.475 603.188 472.475 601.024C472.475 600.294 472.522 599.6 472.614 598.942C472.612 599.059 472.611 599.177 472.611 599.296ZM499.539 600.688C499.539 601.353 499.492 602 499.398 602.631C499.402 602.448 499.403 602.265 499.403 602.08C499.403 599.912 499.162 597.862 498.662 595.946C499.249 597.462 499.539 599.038 499.539 600.688Z" stroke="#4F4F4F" stroke-width="5"/>
<g id="Vector_17">
<mask id="path-23-inside-7_1_2" fill="white">
<path d="M439.805 592.984C439.805 592.024 439.709 591.32 439.517 590.872C439.325 590.392 438.941 590.056 438.365 589.864C437.789 589.672 436.909 589.576 435.725 589.576C435.629 589.576 435.581 589.48 435.581 589.288C435.581 589.096 435.629 589 435.725 589L438.029 589.048C439.565 589.112 440.925 589.144 442.109 589.144C442.973 589.144 444.141 589.112 445.613 589.048L448.253 589C448.349 589 448.397 589.096 448.397 589.288C448.397 589.48 448.349 589.576 448.253 589.576C447.101 589.576 446.253 589.672 445.709 589.864C445.165 590.024 444.797 590.328 444.605 590.776C444.413 591.224 444.317 591.928 444.317 592.888V615.112C444.317 616.072 444.413 616.792 444.605 617.272C444.797 617.72 445.165 618.024 445.709 618.184C446.253 618.344 447.101 618.424 448.253 618.424C448.349 618.424 448.397 618.52 448.397 618.712C448.397 618.904 448.349 619 448.253 619C447.165 619 446.285 618.984 445.613 618.952L442.109 618.904L438.029 618.952C437.453 618.984 436.685 619 435.725 619C435.629 619 435.581 618.904 435.581 618.712C435.581 618.52 435.629 618.424 435.725 618.424C436.941 618.424 437.821 618.344 438.365 618.184C438.941 618.024 439.325 617.72 439.517 617.272C439.709 616.792 439.805 616.072 439.805 615.112V592.984ZM420.845 602.776H441.869V604.024H420.845V602.776ZM418.733 592.888C418.733 591.928 418.637 591.224 418.445 590.776C418.253 590.328 417.885 590.024 417.341 589.864C416.797 589.672 415.965 589.576 414.845 589.576C414.781 589.576 414.749 589.48 414.749 589.288C414.749 589.096 414.781 589 414.845 589L417.389 589.048C418.861 589.112 420.013 589.144 420.845 589.144C421.965 589.144 423.293 589.112 424.829 589.048L427.325 589C427.389 589 427.421 589.096 427.421 589.288C427.421 589.48 427.389 589.576 427.325 589.576C426.173 589.576 425.309 589.672 424.733 589.864C424.189 590.056 423.805 590.392 423.581 590.872C423.389 591.32 423.293 592.024 423.293 592.984V615.112C423.293 616.072 423.389 616.792 423.581 617.272C423.773 617.72 424.141 618.024 424.685 618.184C425.261 618.344 426.141 618.424 427.325 618.424C427.389 618.424 427.421 618.52 427.421 618.712C427.421 618.904 427.389 619 427.325 619C426.237 619 425.389 618.984 424.781 618.952L420.845 618.904L417.341 618.952C416.733 618.984 415.885 619 414.797 619C414.733 619 414.701 618.904 414.701 618.712C414.701 618.52 414.733 618.424 414.797 618.424C415.949 618.424 416.797 618.344 417.341 618.184C417.885 618.024 418.253 617.72 418.445 617.272C418.637 616.792 418.733 616.072 418.733 615.112V592.888Z"/>
</mask>
<path d="M439.517 590.872L434.875 592.729L434.897 592.786L434.921 592.842L439.517 590.872ZM438.365 589.864L439.946 585.121L439.946 585.121L438.365 589.864ZM435.725 589L435.829 584.001L435.777 584H435.725V589ZM438.029 589.048L438.237 584.052L438.185 584.05L438.133 584.049L438.029 589.048ZM445.613 589.048L445.522 584.049L445.459 584.05L445.396 584.053L445.613 589.048ZM448.253 589V584H448.208L448.162 584.001L448.253 589ZM445.709 589.864L447.12 594.661L447.248 594.623L447.373 594.579L445.709 589.864ZM444.605 590.776L449.201 592.746L449.201 592.746L444.605 590.776ZM444.605 617.272L439.963 619.129L439.985 619.186L440.009 619.242L444.605 617.272ZM445.709 618.184L447.12 613.387L447.12 613.387L445.709 618.184ZM445.613 618.952L445.851 613.958L445.766 613.954L445.681 613.952L445.613 618.952ZM442.109 618.904L442.177 613.904L442.114 613.904L442.05 613.904L442.109 618.904ZM438.029 618.952L437.97 613.952L437.861 613.954L437.752 613.96L438.029 618.952ZM438.365 618.184L437.027 613.366L436.99 613.377L436.954 613.387L438.365 618.184ZM439.517 617.272L444.113 619.242L444.137 619.186L444.159 619.129L439.517 617.272ZM420.845 602.776V597.776H415.845V602.776H420.845ZM441.869 602.776H446.869V597.776H441.869V602.776ZM441.869 604.024V609.024H446.869V604.024H441.869ZM420.845 604.024H415.845V609.024H420.845V604.024ZM418.445 590.776L413.849 592.746L413.849 592.746L418.445 590.776ZM417.341 589.864L415.677 594.579L415.802 594.623L415.93 594.661L417.341 589.864ZM414.845 589L414.939 584.001L414.892 584H414.845V589ZM417.389 589.048L417.606 584.053L417.545 584.05L417.483 584.049L417.389 589.048ZM424.829 589.048L424.733 584.049L424.677 584.05L424.621 584.052L424.829 589.048ZM427.325 589V584H427.277L427.229 584.001L427.325 589ZM424.733 589.864L423.152 585.121L423.11 585.134L423.069 585.149L424.733 589.864ZM423.581 590.872L419.05 588.758L419.016 588.829L418.985 588.902L423.581 590.872ZM423.581 617.272L418.939 619.129L418.961 619.186L418.985 619.242L423.581 617.272ZM424.685 618.184L423.274 622.981L423.31 622.991L423.347 623.002L424.685 618.184ZM424.781 618.952L425.044 613.959L424.943 613.954L424.842 613.952L424.781 618.952ZM420.845 618.904L420.906 613.904L420.841 613.904L420.776 613.904L420.845 618.904ZM417.341 618.952L417.272 613.952L417.175 613.954L417.078 613.959L417.341 618.952ZM417.341 618.184L415.93 613.387L415.93 613.387L417.341 618.184ZM418.445 617.272L423.041 619.242L423.065 619.186L423.087 619.129L418.445 617.272ZM444.805 592.984C444.805 591.876 444.721 590.323 444.113 588.902L434.921 592.842C434.844 592.662 434.808 592.53 434.792 592.469C434.776 592.405 434.775 592.382 434.779 592.412C434.783 592.439 434.79 592.5 434.795 592.6C434.801 592.699 434.805 592.826 434.805 592.984H444.805ZM444.159 589.015C443.324 586.926 441.648 585.688 439.946 585.121L436.784 594.607C436.559 594.533 436.186 594.367 435.792 594.023C435.382 593.664 435.068 593.212 434.875 592.729L444.159 589.015ZM439.946 585.121C438.58 584.665 437.037 584.576 435.725 584.576V594.576C436.192 594.576 436.519 594.595 436.731 594.619C436.962 594.644 436.948 594.662 436.784 594.607L439.946 585.121ZM435.725 584.576C436.576 584.576 437.543 584.803 438.435 585.398C439.296 585.972 439.805 586.699 440.089 587.268C440.588 588.265 440.581 589.129 440.581 589.288H430.581C430.581 589.639 430.598 590.647 431.145 591.74C431.453 592.357 431.992 593.12 432.888 593.718C433.816 594.337 434.826 594.576 435.725 594.576V584.576ZM440.581 589.288C440.581 589.447 440.588 590.311 440.089 591.308C439.805 591.877 439.296 592.604 438.435 593.178C437.543 593.773 436.576 594 435.725 594V584C434.826 584 433.816 584.239 432.888 584.858C431.992 585.456 431.453 586.219 431.145 586.836C430.598 587.929 430.581 588.937 430.581 589.288H440.581ZM435.621 593.999L437.925 594.047L438.133 584.049L435.829 584.001L435.621 593.999ZM437.821 594.044C439.407 594.11 440.839 594.144 442.109 594.144V584.144C441.011 584.144 439.723 584.114 438.237 584.052L437.821 594.044ZM442.109 594.144C443.078 594.144 444.328 594.109 445.83 594.043L445.396 584.053C443.953 584.115 442.868 584.144 442.109 584.144V594.144ZM445.704 594.047L448.344 593.999L448.162 584.001L445.522 584.049L445.704 594.047ZM448.253 594C447.402 594 446.434 593.773 445.542 593.178C444.682 592.604 444.173 591.877 443.889 591.308C443.39 590.311 443.397 589.447 443.397 589.288H453.397C453.397 588.937 453.38 587.929 452.833 586.836C452.525 586.219 451.986 585.456 451.089 584.858C450.161 584.239 449.152 584 448.253 584V594ZM443.397 589.288C443.397 589.129 443.39 588.265 443.889 587.268C444.173 586.699 444.682 585.972 445.542 585.398C446.434 584.803 447.402 584.576 448.253 584.576V594.576C449.152 594.576 450.161 594.337 451.089 593.718C451.986 593.12 452.525 592.357 452.833 591.74C453.38 590.647 453.397 589.639 453.397 589.288H443.397ZM448.253 584.576C446.983 584.576 445.426 584.662 444.045 585.149L447.373 594.579C447.311 594.601 447.264 594.615 447.235 594.622C447.205 594.63 447.189 594.634 447.187 594.634C447.186 594.635 447.226 594.626 447.315 594.616C447.501 594.595 447.805 594.576 448.253 594.576V584.576ZM444.298 585.067C442.585 585.571 440.888 586.757 440.009 588.806L449.201 592.746C448.99 593.237 448.653 593.701 448.209 594.067C447.784 594.419 447.377 594.585 447.12 594.661L444.298 585.067ZM440.009 588.806C439.4 590.227 439.317 591.78 439.317 592.888H449.317C449.317 592.73 449.321 592.603 449.327 592.504C449.332 592.404 449.339 592.343 449.343 592.316C449.347 592.286 449.346 592.309 449.33 592.373C449.314 592.434 449.277 592.566 449.201 592.746L440.009 588.806ZM439.317 592.888V615.112H449.317V592.888H439.317ZM439.317 615.112C439.317 616.258 439.411 617.749 439.963 619.129L449.247 615.415C449.304 615.557 449.331 615.659 449.341 615.7C449.351 615.743 449.35 615.75 449.345 615.711C449.334 615.627 449.317 615.437 449.317 615.112H439.317ZM440.009 619.242C440.888 621.291 442.585 622.477 444.298 622.981L447.12 613.387C447.377 613.463 447.784 613.629 448.209 613.981C448.653 614.347 448.99 614.811 449.201 615.302L440.009 619.242ZM444.298 622.981C445.563 623.353 447.009 623.424 448.253 623.424V613.424C447.783 613.424 447.447 613.407 447.223 613.386C446.976 613.363 446.973 613.344 447.12 613.387L444.298 622.981ZM448.253 623.424C447.402 623.424 446.434 623.197 445.542 622.602C444.682 622.028 444.173 621.301 443.889 620.732C443.39 619.735 443.397 618.871 443.397 618.712H453.397C453.397 618.361 453.379 617.353 452.833 616.26C452.525 615.643 451.986 614.88 451.089 614.282C450.162 613.663 449.152 613.424 448.253 613.424V623.424ZM443.397 618.712C443.397 618.553 443.39 617.689 443.889 616.692C444.173 616.123 444.682 615.395 445.543 614.822C446.434 614.227 447.402 614 448.253 614V624C449.152 624 450.161 623.761 451.089 623.142C451.986 622.545 452.524 621.781 452.833 621.164C453.38 620.071 453.397 619.063 453.397 618.712H443.397ZM448.253 614C447.202 614 446.411 613.984 445.851 613.958L445.375 623.946C446.159 623.984 447.127 624 448.253 624V614ZM445.681 613.952L442.177 613.904L442.04 623.904L445.544 623.952L445.681 613.952ZM442.05 613.904L437.97 613.952L438.088 623.952L442.168 623.904L442.05 613.904ZM437.752 613.96C437.308 613.984 436.644 614 435.725 614V624C436.726 624 437.598 623.984 438.306 623.944L437.752 613.96ZM435.725 614C436.576 614 437.543 614.227 438.435 614.822C439.296 615.396 439.805 616.123 440.089 616.692C440.588 617.689 440.581 618.553 440.581 618.712H430.581C430.581 619.063 430.598 620.071 431.145 621.164C431.453 621.781 431.992 622.544 432.888 623.142C433.816 623.761 434.826 624 435.725 624V614ZM440.581 618.712C440.581 618.871 440.587 619.735 440.089 620.732C439.805 621.301 439.296 622.028 438.436 622.602C437.544 623.197 436.576 623.424 435.725 623.424V613.424C434.826 613.424 433.816 613.663 432.888 614.282C431.992 614.88 431.453 615.643 431.145 616.26C430.598 617.353 430.581 618.361 430.581 618.712H440.581ZM435.725 623.424C437.002 623.424 438.497 623.357 439.776 622.981L436.954 613.387C437.117 613.339 437.118 613.36 436.844 613.385C436.599 613.407 436.234 613.424 435.725 613.424V623.424ZM439.703 623.002C441.376 622.537 443.188 621.399 444.113 619.242L434.921 615.302C435.154 614.758 435.525 614.277 435.981 613.916C436.414 613.573 436.81 613.427 437.027 613.366L439.703 623.002ZM444.159 619.129C444.711 617.749 444.805 616.258 444.805 615.112H434.805C434.805 615.437 434.788 615.627 434.777 615.711C434.772 615.75 434.771 615.743 434.781 615.7C434.791 615.659 434.818 615.557 434.875 615.415L444.159 619.129ZM444.805 615.112V592.984H434.805V615.112H444.805ZM420.845 607.776H441.869V597.776H420.845V607.776ZM436.869 602.776V604.024H446.869V602.776H436.869ZM441.869 599.024H420.845V609.024H441.869V599.024ZM425.845 604.024V602.776H415.845V604.024H425.845ZM423.733 592.888C423.733 591.78 423.649 590.227 423.041 588.806L413.849 592.746C413.772 592.566 413.736 592.434 413.72 592.373C413.704 592.309 413.703 592.286 413.707 592.316C413.711 592.343 413.717 592.404 413.723 592.504C413.729 592.603 413.733 592.73 413.733 592.888H423.733ZM423.041 588.806C422.162 586.757 420.465 585.571 418.752 585.067L415.93 594.661C415.673 594.585 415.266 594.419 414.841 594.067C414.397 593.701 414.06 593.237 413.849 592.746L423.041 588.806ZM419.005 585.149C417.633 584.665 416.102 584.576 414.845 584.576V594.576C415.273 594.576 415.561 594.595 415.736 594.615C415.82 594.625 415.857 594.632 415.855 594.632C415.855 594.632 415.789 594.619 415.677 594.579L419.005 585.149ZM414.845 584.576C416.242 584.576 417.476 585.16 418.338 586.022C419.078 586.762 419.389 587.542 419.516 587.923C419.761 588.657 419.749 589.238 419.749 589.288H409.749C409.749 589.53 409.753 590.255 410.03 591.085C410.263 591.786 411.492 594.576 414.845 594.576V584.576ZM419.749 589.288C419.749 589.338 419.761 589.919 419.516 590.653C419.389 591.034 419.078 591.814 418.338 592.554C417.476 593.416 416.242 594 414.845 594V584C411.492 584 410.263 586.79 410.03 587.491C409.753 588.321 409.749 589.046 409.749 589.288H419.749ZM414.751 593.999L417.295 594.047L417.483 584.049L414.939 584.001L414.751 593.999ZM417.172 594.043C418.67 594.108 419.906 594.144 420.845 594.144V584.144C420.12 584.144 419.052 584.116 417.606 584.053L417.172 594.043ZM420.845 594.144C422.054 594.144 423.455 594.11 425.037 594.044L424.621 584.052C423.131 584.114 421.875 584.144 420.845 584.144V594.144ZM424.925 594.047L427.421 593.999L427.229 584.001L424.733 584.049L424.925 594.047ZM427.325 594C425.928 594 424.694 593.416 423.831 592.554C423.092 591.814 422.78 591.034 422.654 590.653C422.409 589.919 422.421 589.338 422.421 589.288H432.421C432.421 589.046 432.417 588.321 432.14 587.491C431.907 586.79 430.678 584 427.325 584V594ZM422.421 589.288C422.421 589.238 422.409 588.657 422.654 587.923C422.78 587.542 423.092 586.762 423.831 586.022C424.694 585.16 425.928 584.576 427.325 584.576V594.576C430.678 594.576 431.907 591.786 432.14 591.085C432.417 590.255 432.421 589.53 432.421 589.288H422.421ZM427.325 584.576C426.027 584.576 424.51 584.668 423.152 585.121L426.314 594.607C426.159 594.659 426.147 594.642 426.365 594.617C426.566 594.595 426.878 594.576 427.325 594.576V584.576ZM423.069 585.149C421.384 585.744 419.895 586.946 419.05 588.758L428.112 592.986C427.942 593.351 427.68 593.716 427.329 594.023C426.986 594.324 426.646 594.491 426.397 594.579L423.069 585.149ZM418.985 588.902C418.376 590.323 418.293 591.876 418.293 592.984H428.293C428.293 592.826 428.297 592.699 428.303 592.6C428.308 592.5 428.315 592.439 428.319 592.412C428.323 592.382 428.322 592.405 428.306 592.469C428.29 592.53 428.253 592.662 428.177 592.842L418.985 588.902ZM418.293 592.984V615.112H428.293V592.984H418.293ZM418.293 615.112C418.293 616.258 418.387 617.749 418.939 619.129L428.223 615.415C428.28 615.557 428.307 615.659 428.317 615.7C428.327 615.743 428.326 615.75 428.321 615.711C428.31 615.627 428.293 615.437 428.293 615.112H418.293ZM418.985 619.242C419.864 621.291 421.561 622.477 423.274 622.981L426.096 613.387C426.353 613.463 426.76 613.629 427.185 613.981C427.629 614.347 427.966 614.811 428.177 615.302L418.985 619.242ZM423.347 623.002C424.601 623.35 426.04 623.424 427.325 623.424V613.424C426.837 613.424 426.479 613.407 426.23 613.385C425.962 613.36 425.92 613.338 426.023 613.366L423.347 623.002ZM427.325 623.424C425.928 623.424 424.694 622.84 423.831 621.978C423.092 621.238 422.78 620.458 422.654 620.077C422.409 619.343 422.421 618.762 422.421 618.712H432.421C432.421 618.47 432.417 617.745 432.14 616.915C431.907 616.214 430.678 613.424 427.325 613.424V623.424ZM422.421 618.712C422.421 618.662 422.409 618.081 422.654 617.347C422.78 616.966 423.092 616.186 423.831 615.446C424.694 614.584 425.928 614 427.325 614V624C430.678 624 431.907 621.21 432.14 620.509C432.417 619.679 432.421 618.954 432.421 618.712H422.421ZM427.325 614C426.268 614 425.522 613.984 425.044 613.959L424.518 623.945C425.256 623.984 426.206 624 427.325 624V614ZM424.842 613.952L420.906 613.904L420.784 623.904L424.72 623.952L424.842 613.952ZM420.776 613.904L417.272 613.952L417.409 623.952L420.913 623.904L420.776 613.904ZM417.078 613.959C416.6 613.984 415.854 614 414.797 614V624C415.916 624 416.866 623.984 417.604 623.945L417.078 613.959ZM414.797 614C416.194 614 417.428 614.584 418.29 615.446C419.03 616.186 419.341 616.966 419.468 617.347C419.713 618.081 419.701 618.662 419.701 618.712H409.701C409.701 618.954 409.705 619.679 409.982 620.509C410.215 621.21 411.444 624 414.797 624V614ZM419.701 618.712C419.701 618.762 419.713 619.343 419.468 620.077C419.341 620.458 419.03 621.238 418.291 621.978C417.428 622.84 416.194 623.424 414.797 623.424V613.424C411.444 613.424 410.215 616.214 409.982 616.915C409.705 617.745 409.701 618.47 409.701 618.712H419.701ZM414.797 623.424C416.041 623.424 417.487 623.353 418.752 622.981L415.93 613.387C416.077 613.344 416.074 613.363 415.827 613.386C415.603 613.407 415.267 613.424 414.797 613.424V623.424ZM418.752 622.981C420.465 622.477 422.162 621.291 423.041 619.242L413.849 615.302C414.06 614.811 414.397 614.347 414.841 613.981C415.266 613.629 415.673 613.463 415.93 613.387L418.752 622.981ZM423.087 619.129C423.639 617.749 423.733 616.258 423.733 615.112H413.733C413.733 615.437 413.716 615.627 413.705 615.711C413.7 615.75 413.699 615.743 413.709 615.7C413.719 615.659 413.746 615.557 413.803 615.415L423.087 619.129ZM423.733 615.112V592.888H413.733V615.112H423.733Z" fill="#4F4F4F" mask="url(#path-23-inside-7_1_2)"/>
</g>
</g>
</svg>
