<svg width="1440" height="1024" viewBox="0 0 1440 1024" fill="none" xmlns="http://www.w3.org/2000/svg">
<g id="honLogo">
<path id="Vector" class= "st1" d="M893.816 477.76L896.576 478V536.92C896.576 541.08 897.296 544.08 898.736 545.92C900.256 547.68 902.656 548.56 905.936 548.56C906.176 548.56 906.296 548.8 906.296 549.28C906.296 549.76 906.176 550 905.936 550C903.936 550 902.416 549.96 901.376 549.88L895.376 549.76L889.256 549.88C888.136 549.96 886.496 550 884.336 550C884.176 550 884.096 549.76 884.096 549.28C884.096 548.8 884.176 548.56 884.336 548.56C887.776 548.56 890.216 547.68 891.656 545.92C893.096 544.08 893.816 541.08 893.816 536.92V477.76ZM954.296 551.44C954.296 551.6 954.096 551.72 953.696 551.8C953.296 551.88 953.016 551.84 952.856 551.68L897.656 484.84C895.096 481.72 892.736 479.56 890.576 478.36C888.496 477.08 886.416 476.44 884.336 476.44C884.096 476.44 883.976 476.2 883.976 475.72C883.976 475.24 884.096 475 884.336 475L888.776 475.12C889.736 475.2 891.056 475.24 892.736 475.24C894.496 475.24 895.936 475.2 897.056 475.12C898.176 475.04 899.056 475 899.696 475C900.256 475 900.696 475.16 901.016 475.48C901.416 475.72 901.856 476.28 902.336 477.16C903.296 478.6 904.296 479.96 905.336 481.24L953.336 540.16L954.296 551.44ZM954.296 551.44L951.536 547.72V488.2C951.536 484.04 950.816 481.04 949.376 479.2C948.016 477.36 945.696 476.44 942.416 476.44C942.256 476.44 942.176 476.2 942.176 475.72C942.176 475.24 942.256 475 942.416 475L947.096 475.12C949.496 475.28 951.456 475.36 952.976 475.36C954.416 475.36 956.416 475.28 958.976 475.12L963.896 475C964.136 475 964.256 475.24 964.256 475.72C964.256 476.2 964.136 476.44 963.896 476.44C960.536 476.44 958.096 477.36 956.576 479.2C955.056 481.04 954.296 484.04 954.296 488.2V551.44Z" fill="#4F4F4F"/>
<path id="Vector_2" class= "st1" d="M814.825 551.32C813.225 551.32 811.945 550.84 810.985 549.88C810.025 548.92 809.545 547.68 809.545 546.16C809.545 544.64 810.025 543.44 810.985 542.56C811.945 541.6 813.225 541.12 814.825 541.12C816.505 541.12 817.785 541.56 818.665 542.44C819.545 543.32 819.985 544.56 819.985 546.16C819.985 547.76 819.545 549.04 818.665 550C817.785 550.88 816.505 551.32 814.825 551.32Z" fill="#4F4F4F"/>
<path id="Vector_3" class= "st1" d="M720.443 551.56C715.803 551.56 711.683 550.44 708.083 548.2C704.563 545.88 701.843 542.8 699.923 538.96C698.003 535.04 697.043 530.8 697.043 526.24C697.043 521.04 698.283 516.64 700.763 513.04C703.323 509.36 706.563 506.64 710.483 504.88C714.483 503.04 718.523 502.12 722.603 502.12C727.323 502.12 731.443 503.28 734.963 505.6C738.483 507.92 741.163 511 743.003 514.84C744.923 518.6 745.883 522.6 745.883 526.84C745.883 531.8 744.723 536.16 742.403 539.92C740.083 543.6 736.963 546.48 733.043 548.56C729.203 550.56 725.003 551.56 720.443 551.56ZM723.923 549.28C728.323 549.28 731.723 547.72 734.123 544.6C736.523 541.48 737.723 536.68 737.723 530.2C737.723 525.24 736.883 520.8 735.203 516.88C733.603 512.96 731.363 509.92 728.483 507.76C725.603 505.52 722.323 504.4 718.643 504.4C714.323 504.4 710.963 505.96 708.563 509.08C706.243 512.2 705.083 516.68 705.083 522.52C705.083 527.4 705.883 531.88 707.483 535.96C709.083 540.04 711.323 543.28 714.203 545.68C717.083 548.08 720.323 549.28 723.923 549.28Z" fill="#4F4F4F"/>
<path id="Vector_4" class= "st1" d="M628.131 551.32C626.531 551.32 625.251 550.84 624.291 549.88C623.331 548.92 622.851 547.68 622.851 546.16C622.851 544.64 623.331 543.44 624.291 542.56C625.251 541.6 626.531 541.12 628.131 541.12C629.811 541.12 631.091 541.56 631.971 542.44C632.851 543.32 633.291 544.56 633.291 546.16C633.291 547.76 632.851 549.04 631.971 550C631.091 550.88 629.811 551.32 628.131 551.32Z" fill="#4F4F4F"/>
<path id="Vector_5" class= "st1" d="M540.916 484.96C540.916 482.56 540.636 480.8 540.076 479.68C539.596 478.48 538.636 477.64 537.196 477.16C535.756 476.68 533.476 476.44 530.356 476.44C530.116 476.44 529.996 476.2 529.996 475.72C529.996 475.24 530.116 475 530.356 475L536.116 475.12C539.636 475.28 542.556 475.36 544.876 475.36C547.036 475.36 549.796 475.28 553.156 475.12L559.036 475C559.276 475 559.396 475.24 559.396 475.72C559.396 476.2 559.276 476.44 559.036 476.44C555.996 476.44 553.756 476.68 552.316 477.16C550.876 477.56 549.876 478.32 549.316 479.44C548.836 480.56 548.596 482.32 548.596 484.72V540.28C548.596 542.68 548.836 544.48 549.316 545.68C549.876 546.8 550.876 547.56 552.316 547.96C553.756 548.36 555.996 548.56 559.036 548.56C559.276 548.56 559.396 548.8 559.396 549.28C559.396 549.76 559.276 550 559.036 550C556.556 550 554.596 549.96 553.156 549.88L544.876 549.76L536.116 549.88C534.676 549.96 532.756 550 530.356 550C530.116 550 529.996 549.76 529.996 549.28C529.996 548.8 530.116 548.56 530.356 548.56C533.476 548.56 535.756 548.36 537.196 547.96C538.636 547.56 539.596 546.8 540.076 545.68C540.636 544.48 540.916 542.68 540.916 540.28V484.96ZM490.636 509.68H544.276V512.2H490.636V509.68ZM487.156 484.72C487.156 482.32 486.876 480.56 486.316 479.44C485.836 478.32 484.876 477.56 483.436 477.16C481.996 476.68 479.756 476.44 476.716 476.44C476.556 476.44 476.476 476.2 476.476 475.72C476.476 475.24 476.556 475 476.716 475L482.836 475.12C486.196 475.28 488.876 475.36 490.876 475.36C493.196 475.36 496.116 475.28 499.636 475.12L505.396 475C505.556 475 505.636 475.24 505.636 475.72C505.636 476.2 505.556 476.44 505.396 476.44C502.356 476.44 500.076 476.68 498.556 477.16C497.116 477.64 496.116 478.48 495.556 479.68C495.076 480.8 494.836 482.56 494.836 484.96V540.28C494.836 542.68 495.076 544.48 495.556 545.68C496.116 546.8 497.116 547.56 498.556 547.96C499.996 548.36 502.276 548.56 505.396 548.56C505.556 548.56 505.636 548.8 505.636 549.28C505.636 549.76 505.556 550 505.396 550C502.916 550 500.956 549.96 499.516 549.88L490.876 549.76L482.596 549.88C481.156 549.96 479.156 550 476.596 550C476.436 550 476.356 549.76 476.356 549.28C476.356 548.8 476.436 548.56 476.596 548.56C479.636 548.56 481.876 548.36 483.316 547.96C484.836 547.56 485.836 546.8 486.316 545.68C486.876 544.48 487.156 542.68 487.156 540.28V484.72Z" fill="#4F4F4F"/>
<path id="Vector_6" class= "st1" d="M1046.47 616C1045.7 616 1044.28 614.656 1042.2 611.968C1040.15 609.28 1037.65 605.536 1034.71 600.736L1038.55 599.584C1041.24 603.584 1043.48 606.72 1045.27 608.992C1047.09 611.232 1048.71 612.864 1050.12 613.888C1051.53 614.912 1052.89 615.424 1054.2 615.424C1054.26 615.424 1054.29 615.52 1054.29 615.712C1054.29 615.904 1054.26 616 1054.2 616H1046.47ZM1035.57 585.856C1038.33 585.856 1040.47 586.416 1042.01 587.536C1043.54 588.624 1044.31 590.128 1044.31 592.048C1044.31 593.84 1043.8 595.456 1042.77 596.896C1041.75 598.336 1040.39 599.472 1038.69 600.304C1037.03 601.104 1035.27 601.504 1033.41 601.504C1032.74 601.504 1031.93 601.472 1030.97 601.408V612.112C1030.97 613.104 1031.05 613.824 1031.21 614.272C1031.37 614.72 1031.69 615.024 1032.17 615.184C1032.68 615.344 1033.49 615.424 1034.61 615.424C1034.68 615.424 1034.71 615.52 1034.71 615.712C1034.71 615.904 1034.68 616 1034.61 616C1033.56 616 1032.73 615.984 1032.12 615.952L1028.61 615.904L1025.16 615.952C1024.55 615.984 1023.72 616 1022.66 616C1022.57 616 1022.52 615.904 1022.52 615.712C1022.52 615.52 1022.57 615.424 1022.66 615.424C1023.75 615.424 1024.53 615.344 1025.01 615.184C1025.53 615.024 1025.88 614.72 1026.07 614.272C1026.26 613.792 1026.36 613.072 1026.36 612.112V589.888C1026.36 588.928 1026.26 588.224 1026.07 587.776C1025.91 587.328 1025.57 587.024 1025.06 586.864C1024.55 586.672 1023.77 586.576 1022.71 586.576C1022.65 586.576 1022.61 586.48 1022.61 586.288C1022.61 586.096 1022.65 586 1022.71 586L1025.21 586.048C1026.61 586.112 1027.75 586.144 1028.61 586.144C1029.67 586.144 1030.82 586.096 1032.07 586C1032.49 585.968 1032.98 585.936 1033.56 585.904C1034.17 585.872 1034.84 585.856 1035.57 585.856ZM1039.56 593.728C1039.56 591.136 1039.11 589.328 1038.21 588.304C1037.35 587.28 1036.09 586.768 1034.42 586.768C1033.14 586.768 1032.25 587.008 1031.73 587.488C1031.22 587.936 1030.97 588.768 1030.97 589.984V600.112C1031.73 600.24 1032.66 600.304 1033.75 600.304C1035.83 600.304 1037.32 599.792 1038.21 598.768C1039.11 597.712 1039.56 596.032 1039.56 593.728Z" fill="#4F4F4F"/>
<path id="Vector_7" class= "st1" d="M984.663 616.576C981.687 616.576 979.031 615.888 976.695 614.512C974.391 613.104 972.599 611.216 971.319 608.848C970.071 606.448 969.447 603.84 969.447 601.024C969.447 597.728 970.279 594.912 971.943 592.576C973.607 590.208 975.735 588.432 978.327 587.248C980.951 586.064 983.623 585.472 986.343 585.472C989.383 585.472 992.055 586.192 994.359 587.632C996.663 589.04 998.423 590.912 999.639 593.248C1000.89 595.584 1001.51 598.064 1001.51 600.688C1001.51 603.6 1000.74 606.272 999.207 608.704C997.671 611.136 995.607 613.056 993.015 614.464C990.455 615.872 987.671 616.576 984.663 616.576ZM986.295 615.424C988.215 615.424 989.927 614.912 991.431 613.888C992.967 612.832 994.167 611.296 995.031 609.28C995.927 607.264 996.375 604.864 996.375 602.08C996.375 599.104 995.879 596.464 994.887 594.16C993.927 591.824 992.535 590 990.711 588.688C988.919 587.376 986.807 586.72 984.375 586.72C981.239 586.72 978.823 587.84 977.127 590.08C975.431 592.288 974.583 595.36 974.583 599.296C974.583 602.368 975.079 605.136 976.071 607.6C977.063 610.032 978.455 611.952 980.247 613.36C982.039 614.736 984.055 615.424 986.295 615.424Z" fill="#4F4F4F"/>
<path id="Vector_8" class= "st1" d="M915.658 587.104L916.954 587.2L916.426 610.192C916.394 611.888 916.714 613.184 917.386 614.08C918.09 614.976 919.13 615.424 920.506 615.424C920.602 615.424 920.65 615.52 920.65 615.712C920.65 615.904 920.602 616 920.506 616C919.642 616 918.97 615.984 918.49 615.952L915.85 615.904L913.018 615.952C912.538 615.984 911.866 616 911.002 616C910.906 616 910.858 615.904 910.858 615.712C910.858 615.52 910.906 615.424 911.002 615.424C912.314 615.424 913.322 614.976 914.026 614.08C914.762 613.184 915.146 611.888 915.178 610.192L915.658 587.104ZM949.162 615.424C949.226 615.424 949.258 615.52 949.258 615.712C949.258 615.904 949.226 616 949.162 616C948.106 616 947.258 615.984 946.618 615.952L943.162 615.904L939.802 615.952C939.226 615.984 938.41 616 937.354 616C937.29 616 937.258 615.904 937.258 615.712C937.258 615.52 937.29 615.424 937.354 615.424C938.41 615.424 939.194 615.344 939.706 615.184C940.218 614.992 940.554 614.672 940.714 614.224C940.874 613.776 940.922 613.072 940.858 612.112L939.85 590.176L941.962 586.864L929.674 615.664C929.61 615.792 929.482 615.856 929.29 615.856C929.13 615.856 928.986 615.792 928.858 615.664L915.85 589.984C915.274 588.8 914.618 587.936 913.882 587.392C913.146 586.848 912.298 586.576 911.338 586.576C911.242 586.576 911.194 586.48 911.194 586.288C911.194 586.096 911.242 586 911.338 586L913.402 586.048C913.818 586.08 914.362 586.096 915.034 586.096L917.242 586.048C917.53 586.016 917.866 586 918.25 586C918.666 586 919.002 586.16 919.258 586.48C919.514 586.768 919.914 587.44 920.458 588.496L931.258 609.664L929.194 613.312L940.57 587.2C940.762 586.752 940.97 586.448 941.194 586.288C941.418 586.096 941.69 586 942.01 586C942.234 586 942.522 586.016 942.874 586.048C943.226 586.08 943.658 586.096 944.17 586.096L946.762 586.048C947.178 586.016 947.786 586 948.586 586C948.682 586 948.73 586.096 948.73 586.288C948.73 586.48 948.682 586.576 948.586 586.576C947.082 586.576 945.978 586.864 945.274 587.44C944.602 587.984 944.298 588.896 944.362 590.176L945.418 612.112C945.482 613.104 945.61 613.824 945.802 614.272C945.994 614.72 946.33 615.024 946.81 615.184C947.29 615.344 948.074 615.424 949.162 615.424Z" fill="#4F4F4F"/>
<path id="Vector_9" class= "st1" d="M867.805 603.04H881.245L881.581 604.24H867.181L867.805 603.04ZM892.717 615.424C892.845 615.424 892.909 615.52 892.909 615.712C892.909 615.904 892.845 616 892.717 616C892.109 616 891.133 615.968 889.789 615.904C888.445 615.84 887.469 615.808 886.861 615.808C886.061 615.808 885.117 615.84 884.029 615.904C882.941 615.968 882.093 616 881.485 616C881.357 616 881.293 615.904 881.293 615.712C881.293 615.52 881.357 615.424 881.485 615.424C882.445 615.424 883.133 615.328 883.549 615.136C883.965 614.912 884.173 614.56 884.173 614.08C884.173 613.6 883.901 612.784 883.357 611.632L873.325 591.232L875.293 588.016L865.789 609.424C865.373 610.384 865.165 611.248 865.165 612.016C865.165 613.136 865.565 613.984 866.365 614.56C867.165 615.136 868.285 615.424 869.725 615.424C869.885 615.424 869.965 615.52 869.965 615.712C869.965 615.904 869.885 616 869.725 616C869.149 616 868.317 615.968 867.229 615.904C866.013 615.84 864.957 615.808 864.061 615.808C863.197 615.808 862.189 615.84 861.037 615.904C860.013 615.968 859.165 616 858.493 616C858.333 616 858.253 615.904 858.253 615.712C858.253 615.52 858.333 615.424 858.493 615.424C859.389 615.424 860.141 615.248 860.749 614.896C861.357 614.544 861.949 613.92 862.525 613.024C863.101 612.096 863.789 610.736 864.589 608.944L874.909 585.712C874.973 585.616 875.117 585.568 875.341 585.568C875.565 585.568 875.693 585.616 875.725 585.712L887.485 609.424C888.573 611.728 889.485 613.312 890.221 614.176C890.989 615.008 891.821 615.424 892.717 615.424Z" fill="#4F4F4F"/>
<path id="Vector_10" class= "st1" d="M812.633 587.104L813.929 587.2V610.192C813.929 611.888 814.249 613.184 814.889 614.08C815.561 614.976 816.537 615.424 817.817 615.424C817.913 615.424 817.961 615.52 817.961 615.712C817.961 615.904 817.913 616 817.817 616C816.985 616 816.345 615.984 815.897 615.952L813.353 615.904L810.521 615.952C810.009 615.984 809.273 616 808.313 616C808.217 616 808.169 615.904 808.169 615.712C808.169 615.52 808.217 615.424 808.313 615.424C809.689 615.424 810.745 614.976 811.481 614.08C812.249 613.184 812.633 611.888 812.633 610.192V587.104ZM837.017 616.672C837.017 616.768 836.937 616.832 836.777 616.864C836.617 616.896 836.505 616.88 836.441 616.816L813.353 589.936C812.265 588.688 811.305 587.824 810.473 587.344C809.641 586.832 808.825 586.576 808.025 586.576C807.929 586.576 807.881 586.48 807.881 586.288C807.881 586.096 807.929 586 808.025 586L809.945 586.048C810.329 586.08 810.905 586.096 811.673 586.096L814.745 586.048C815.129 586.016 815.577 586 816.089 586C816.345 586 816.537 586.064 816.665 586.192C816.793 586.32 816.985 586.576 817.241 586.96C817.785 587.696 818.185 588.208 818.441 588.496L836.633 609.904L837.017 616.672ZM837.017 616.672L835.721 615.232V591.856C835.721 590.16 835.385 588.864 834.713 587.968C834.073 587.04 833.113 586.576 831.833 586.576C831.769 586.576 831.737 586.48 831.737 586.288C831.737 586.096 831.769 586 831.833 586L833.801 586.048C834.825 586.112 835.673 586.144 836.345 586.144C836.953 586.144 837.833 586.112 838.985 586.048L841.001 586C841.097 586 841.145 586.096 841.145 586.288C841.145 586.48 841.097 586.576 841.001 586.576C839.721 586.576 838.729 587.04 838.025 587.968C837.353 588.864 837.017 590.16 837.017 591.856V616.672Z" fill="#4F4F4F"/>
<path id="Vector_11" class= "st1" d="M738.715 616C738.619 616 738.571 615.904 738.571 615.712C738.571 615.52 738.619 615.424 738.715 615.424C739.867 615.424 740.699 615.344 741.211 615.184C741.755 615.024 742.123 614.72 742.315 614.272C742.507 613.792 742.603 613.072 742.603 612.112V589.888C742.603 588.928 742.507 588.224 742.315 587.776C742.155 587.328 741.819 587.024 741.307 586.864C740.795 586.672 740.011 586.576 738.955 586.576C738.859 586.576 738.811 586.48 738.811 586.288C738.811 586.096 738.859 586 738.955 586H758.923C759.243 586 759.403 586.144 759.403 586.432L759.499 592.672C759.499 592.736 759.403 592.784 759.211 592.816C759.051 592.816 758.955 592.768 758.923 592.672C758.155 589.056 755.947 587.248 752.299 587.248H750.331C749.179 587.248 748.363 587.456 747.883 587.872C747.403 588.288 747.163 588.976 747.163 589.936V611.92C747.163 612.944 747.291 613.696 747.547 614.176C747.803 614.624 748.299 614.944 749.035 615.136C749.803 615.328 750.971 615.424 752.539 615.424C752.603 615.424 752.635 615.52 752.635 615.712C752.635 615.904 752.603 616 752.539 616C751.227 616 750.203 615.984 749.467 615.952L744.763 615.904L741.259 615.952C740.651 615.984 739.803 616 738.715 616ZM756.523 605.68C756.523 602.96 754.683 601.6 751.003 601.6H745.003V600.352H751.099C754.683 600.352 756.475 599.152 756.475 596.752C756.475 596.688 756.571 596.656 756.763 596.656C756.955 596.656 757.051 596.688 757.051 596.752L757.003 600.976C757.003 601.968 757.019 602.704 757.051 603.184L757.099 605.68C757.099 605.776 757.003 605.824 756.811 605.824C756.619 605.824 756.523 605.776 756.523 605.68Z" fill="#4F4F4F"/>
<path id="Vector_12" class= "st1" d="M700.957 616.576C697.981 616.576 695.325 615.888 692.989 614.512C690.685 613.104 688.893 611.216 687.613 608.848C686.365 606.448 685.741 603.84 685.741 601.024C685.741 597.728 686.573 594.912 688.237 592.576C689.901 590.208 692.029 588.432 694.621 587.248C697.245 586.064 699.917 585.472 702.637 585.472C705.677 585.472 708.349 586.192 710.653 587.632C712.957 589.04 714.717 590.912 715.933 593.248C717.181 595.584 717.805 598.064 717.805 600.688C717.805 603.6 717.037 606.272 715.501 608.704C713.965 611.136 711.901 613.056 709.309 614.464C706.749 615.872 703.965 616.576 700.957 616.576ZM702.589 615.424C704.509 615.424 706.221 614.912 707.725 613.888C709.261 612.832 710.461 611.296 711.325 609.28C712.221 607.264 712.669 604.864 712.669 602.08C712.669 599.104 712.173 596.464 711.181 594.16C710.221 591.824 708.829 590 707.005 588.688C705.213 587.376 703.101 586.72 700.669 586.72C697.533 586.72 695.117 587.84 693.421 590.08C691.725 592.288 690.877 595.36 690.877 599.296C690.877 602.368 691.373 605.136 692.365 607.6C693.357 610.032 694.749 611.952 696.541 613.36C698.333 614.736 700.349 615.424 702.589 615.424Z" fill="#4F4F4F"/>
<path id="Vector_13" class= "st1" d="M614.305 616C614.209 616 614.161 615.904 614.161 615.712C614.161 615.52 614.209 615.424 614.305 615.424C615.393 615.424 616.177 615.344 616.657 615.184C617.169 615.024 617.505 614.72 617.665 614.272C617.857 613.792 617.953 613.072 617.953 612.112V589.888C617.953 588.928 617.857 588.224 617.665 587.776C617.505 587.328 617.169 587.024 616.657 586.864C616.145 586.672 615.361 586.576 614.305 586.576C614.209 586.576 614.161 586.48 614.161 586.288C614.161 586.096 614.209 586 614.305 586H634.273C634.593 586 634.753 586.144 634.753 586.432L634.849 592.672C634.849 592.736 634.753 592.784 634.561 592.816C634.401 592.816 634.305 592.768 634.273 592.672C633.505 589.056 631.297 587.248 627.649 587.248H625.681C624.497 587.248 623.665 587.456 623.185 587.872C622.737 588.288 622.513 588.992 622.513 589.984V611.92C622.513 612.976 622.705 613.712 623.089 614.128C623.505 614.544 624.225 614.752 625.249 614.752H627.601C631.889 614.752 634.609 612.688 635.761 608.56C635.761 608.496 635.841 608.464 636.001 608.464C636.225 608.464 636.337 608.512 636.337 608.608C636.017 611.04 635.857 613.264 635.857 615.28C635.857 615.536 635.809 615.728 635.713 615.856C635.617 615.952 635.425 616 635.137 616H614.305ZM632.449 605.152C632.449 602.4 630.657 601.024 627.073 601.024H620.353V599.776H627.121C630.641 599.776 632.401 598.592 632.401 596.224C632.401 596.128 632.481 596.08 632.641 596.08C632.833 596.08 632.929 596.128 632.929 596.224L632.881 600.4L632.929 602.656C632.993 603.68 633.025 604.512 633.025 605.152C633.025 605.216 632.929 605.248 632.737 605.248C632.545 605.248 632.449 605.216 632.449 605.152Z" fill="#4F4F4F"/>
<path id="Vector_14" class= "st1" d="M579.033 591.088C579.033 592.272 579.321 593.328 579.897 594.256C580.505 595.152 581.241 595.936 582.105 596.608C582.969 597.248 584.153 598.048 585.657 599.008C587.289 600.032 588.569 600.912 589.497 601.648C590.457 602.384 591.273 603.296 591.945 604.384C592.617 605.44 592.953 606.688 592.953 608.128C592.953 609.76 592.521 611.216 591.657 612.496C590.825 613.776 589.625 614.784 588.057 615.52C586.521 616.224 584.761 616.576 582.777 616.576C581.433 616.576 580.041 616.4 578.601 616.048C577.193 615.696 576.121 615.264 575.385 614.752C575.097 614.56 574.937 614.256 574.905 613.84L574.617 606.592V606.544C574.617 606.416 574.697 606.352 574.857 606.352C575.017 606.32 575.113 606.368 575.145 606.496C576.201 609.12 577.401 611.28 578.745 612.976C580.121 614.672 581.849 615.52 583.929 615.52C585.337 615.52 586.505 615.152 587.433 614.416C588.361 613.648 588.825 612.384 588.825 610.624C588.825 609.216 588.505 607.984 587.865 606.928C587.257 605.872 586.489 604.992 585.561 604.288C584.665 603.584 583.433 602.72 581.865 601.696C580.329 600.704 579.129 599.872 578.265 599.2C577.401 598.496 576.665 597.648 576.057 596.656C575.449 595.632 575.145 594.448 575.145 593.104C575.145 591.44 575.609 590.032 576.537 588.88C577.465 587.728 578.665 586.88 580.137 586.336C581.641 585.76 583.209 585.472 584.841 585.472C585.897 585.472 586.969 585.584 588.057 585.808C589.145 586 590.073 586.256 590.841 586.576C591.321 586.768 591.561 587.072 591.561 587.488L591.657 593.968C591.657 594.096 591.577 594.176 591.417 594.208C591.289 594.24 591.193 594.208 591.129 594.112C590.489 592.16 589.625 590.4 588.537 588.832C587.481 587.232 585.881 586.432 583.737 586.432C582.297 586.432 581.145 586.864 580.281 587.728C579.449 588.56 579.033 589.68 579.033 591.088Z" fill="#4F4F4F"/>
<path id="Vector_15" class= "st1" d="M548.581 591.856C548.581 590.192 548.197 588.896 547.429 587.968C546.693 587.04 545.621 586.576 544.213 586.576C544.149 586.576 544.117 586.48 544.117 586.288C544.117 586.096 544.149 586 544.213 586L546.421 586.048C547.637 586.112 548.597 586.144 549.301 586.144C549.877 586.144 550.741 586.112 551.893 586.048L554.005 586C554.069 586 554.101 586.096 554.101 586.288C554.101 586.48 554.069 586.576 554.005 586.576C552.757 586.576 551.781 587.04 551.077 587.968C550.405 588.896 550.069 590.192 550.069 591.856V605.296C550.069 607.6 549.573 609.616 548.581 611.344C547.621 613.04 546.245 614.352 544.453 615.28C542.693 616.208 540.645 616.672 538.309 616.672C535.973 616.672 533.893 616.224 532.069 615.328C530.245 614.4 528.821 613.088 527.797 611.392C526.805 609.664 526.309 607.648 526.309 605.344V589.888C526.309 588.928 526.213 588.224 526.021 587.776C525.829 587.328 525.477 587.024 524.965 586.864C524.485 586.672 523.717 586.576 522.661 586.576C522.565 586.576 522.517 586.48 522.517 586.288C522.517 586.096 522.565 586 522.661 586L525.157 586.048C526.565 586.112 527.701 586.144 528.565 586.144C529.525 586.144 530.709 586.112 532.117 586.048L534.517 586C534.613 586 534.661 586.096 534.661 586.288C534.661 586.48 534.613 586.576 534.517 586.576C533.461 586.576 532.677 586.672 532.165 586.864C531.653 587.056 531.301 587.392 531.109 587.872C530.949 588.32 530.869 589.024 530.869 589.984V603.664C530.869 607.472 531.653 610.32 533.221 612.208C534.821 614.064 537.045 614.992 539.893 614.992C542.613 614.992 544.741 614.16 546.277 612.496C547.813 610.8 548.581 608.416 548.581 605.344V591.856Z" fill="#4F4F4F"/>
<path id="Vector_16" class= "st1" d="M485.191 616.576C482.215 616.576 479.559 615.888 477.223 614.512C474.919 613.104 473.127 611.216 471.847 608.848C470.599 606.448 469.975 603.84 469.975 601.024C469.975 597.728 470.807 594.912 472.471 592.576C474.135 590.208 476.263 588.432 478.855 587.248C481.479 586.064 484.151 585.472 486.871 585.472C489.911 585.472 492.583 586.192 494.887 587.632C497.191 589.04 498.951 590.912 500.167 593.248C501.415 595.584 502.039 598.064 502.039 600.688C502.039 603.6 501.271 606.272 499.735 608.704C498.199 611.136 496.135 613.056 493.543 614.464C490.983 615.872 488.199 616.576 485.191 616.576ZM486.823 615.424C488.743 615.424 490.455 614.912 491.959 613.888C493.495 612.832 494.695 611.296 495.559 609.28C496.455 607.264 496.903 604.864 496.903 602.08C496.903 599.104 496.407 596.464 495.415 594.16C494.455 591.824 493.063 590 491.239 588.688C489.447 587.376 487.335 586.72 484.903 586.72C481.767 586.72 479.351 587.84 477.655 590.08C475.959 592.288 475.111 595.36 475.111 599.296C475.111 602.368 475.607 605.136 476.599 607.6C477.591 610.032 478.983 611.952 480.775 613.36C482.567 614.736 484.583 615.424 486.823 615.424Z" fill="#4F4F4F"/>
<path id="Vector_17" class= "st1" d="M439.805 592.984C439.805 592.024 439.709 591.32 439.517 590.872C439.325 590.392 438.941 590.056 438.365 589.864C437.789 589.672 436.909 589.576 435.725 589.576C435.629 589.576 435.581 589.48 435.581 589.288C435.581 589.096 435.629 589 435.725 589L438.029 589.048C439.565 589.112 440.925 589.144 442.109 589.144C442.973 589.144 444.141 589.112 445.613 589.048L448.253 589C448.349 589 448.397 589.096 448.397 589.288C448.397 589.48 448.349 589.576 448.253 589.576C447.101 589.576 446.253 589.672 445.709 589.864C445.165 590.024 444.797 590.328 444.605 590.776C444.413 591.224 444.317 591.928 444.317 592.888V615.112C444.317 616.072 444.413 616.792 444.605 617.272C444.797 617.72 445.165 618.024 445.709 618.184C446.253 618.344 447.101 618.424 448.253 618.424C448.349 618.424 448.397 618.52 448.397 618.712C448.397 618.904 448.349 619 448.253 619C447.165 619 446.285 618.984 445.613 618.952L442.109 618.904L438.029 618.952C437.453 618.984 436.685 619 435.725 619C435.629 619 435.581 618.904 435.581 618.712C435.581 618.52 435.629 618.424 435.725 618.424C436.941 618.424 437.821 618.344 438.365 618.184C438.941 618.024 439.325 617.72 439.517 617.272C439.709 616.792 439.805 616.072 439.805 615.112V592.984ZM420.845 602.776H441.869V604.024H420.845V602.776ZM418.733 592.888C418.733 591.928 418.637 591.224 418.445 590.776C418.253 590.328 417.885 590.024 417.341 589.864C416.797 589.672 415.965 589.576 414.845 589.576C414.781 589.576 414.749 589.48 414.749 589.288C414.749 589.096 414.781 589 414.845 589L417.389 589.048C418.861 589.112 420.013 589.144 420.845 589.144C421.965 589.144 423.293 589.112 424.829 589.048L427.325 589C427.389 589 427.421 589.096 427.421 589.288C427.421 589.48 427.389 589.576 427.325 589.576C426.173 589.576 425.309 589.672 424.733 589.864C424.189 590.056 423.805 590.392 423.581 590.872C423.389 591.32 423.293 592.024 423.293 592.984V615.112C423.293 616.072 423.389 616.792 423.581 617.272C423.773 617.72 424.141 618.024 424.685 618.184C425.261 618.344 426.141 618.424 427.325 618.424C427.389 618.424 427.421 618.52 427.421 618.712C427.421 618.904 427.389 619 427.325 619C426.237 619 425.389 618.984 424.781 618.952L420.845 618.904L417.341 618.952C416.733 618.984 415.885 619 414.797 619C414.733 619 414.701 618.904 414.701 618.712C414.701 618.52 414.733 618.424 414.797 618.424C415.949 618.424 416.797 618.344 417.341 618.184C417.885 618.024 418.253 617.72 418.445 617.272C418.637 616.792 418.733 616.072 418.733 615.112V592.888Z" fill="#4F4F4F"/>
</g>
</svg>
